<svg xmlns="http://www.w3.org/2000/svg" viewBox="0 0 744.09 1052.4"><path fill="#26231f" d="M459.88 400.234c-1.41 0-123.952 5.28-132.444 17.952-8.477 12.671-8.947 39.069 0 40.653 8.961 1.584 134.325-.53 134.325-.53l98.978-.53s-13.663-33.26 1.895-44.345-92.85-13.198-102.753-13.198zM459.414 479.964s-134.325-1.587-142.817 6.334c-8.477 7.92-25.446 68.638 3.775 73.388 29.222 4.751 148.943-5.806 148.943-5.806l106.984-5.282s-13.663-53.324.94-66.524l-117.826-2.11zM283.61 587.657s15.073 37.485-2.836 53.324 146.106 7.921 154.13-4.223c8.006-12.143 5.655-54.908-.94-57.548-6.598-2.64-143.288 8.977-150.355 8.447zM327.32 663.558c-6.524 11.484-12.121 62.632 0 65.761 12.105 3.13 126.728-2.088 126.728-2.088l105.293-32.358s-16.778-34.445-5.598-48.017-219.904 5.218-226.425 16.702z"/><path fill="#26231f" d="M455.752 742.456s-187.772 8.022-194.926 17.824c-7.155 9.802-11.93 33.88 3.188 37.435 15.103 3.554 187.759-.889 195.722-5.349 7.948-4.46 132.078-40.104 132.078-40.104s-18.306-23.172-9.55-38.324c8.757-15.15-126.508 28.519-126.508 28.519zM248.089 821.786s22.287 40.104-7.948 57.928 203.685 19.617 214.028 8.92c10.343-10.698 46.147-65.056-2.395-72.197-48.526-7.126-193.341-3.554-203.684 5.349z"/><path fill="#26231f" d="M470.067 918.926s-217.214-16.934-233.127-2.666c-15.91 14.252-17.497 55.261.794 61.5 18.305 6.237 233.126 32.963 233.126 32.963l98.668-47.232s-31.043-49.915 2.38-91.797l-101.84 47.232z"/><path fill="#26231f" d="M475.626 901.981s-224.368-13.363-241.868-10.697c-17.513 2.683-64.556 52.811-7.713 104.42 1.63 1.482 243.143 51.61 247.727 36.224 3.188-10.697 6.626-25.657-.529-28.34-7.17-2.665-233.919-31.185-233.919-31.185s-26.253-48.138 6.362-55.262c28.222-6.171 218.802 15.157 225.163 8.92 6.362-6.254 9.55-25.854 4.775-24.077z"/><path fill="#26231f" d="M475.626 901.981s.22-.214.764-.18c.588 0 1.263.79 1.484 1.925.5 2.27.264 5.743-.75 10.055-.513 2.14-1.233 4.526-2.35 6.994a24.928 24.928 0 0 1-2.042 3.703 13.86 13.86 0 0 1-1.41 1.744c-.25.33-.735.593-1.073.692a8.97 8.97 0 0 1-1.102.28c-2.923.51-6.023.542-9.358.592-3.335.033-6.876-.034-10.623-.148-30-.939-73.268-4.526-126.758-7.9-13.37-.806-27.385-1.613-41.989-2.106-7.301-.23-14.75-.395-22.316-.214-3.761.115-7.595.263-11.298.905-3.658.674-7.316 2.04-10.21 4.542-2.939 2.452-4.849 6.187-5.554 10.318-.735 4.164-.455 8.59.309 12.936.764 4.345 2.012 8.656 3.555 12.886a112.588 112.588 0 0 0 2.498 6.27c.455 1.036.925 2.057 1.41 3.077l.734 1.514.559 1.103 50.54 6.369 110.467 14.202c19.143 2.55 38.623 5.119 58.397 7.998l7.42 1.136 3.73.642 1.91.362c.589.099 1.514.395 2.175.806 1.44.806 2.571 2.288 3.188 3.834.603 1.548.882 3.127.97 4.658.19 3.078-.147 6.007-.617 8.854-.485 2.863-1.146 5.66-1.88 8.41-.368 1.382-.765 2.748-1.161 4.114-.132.526-.573 1.267-.94 1.596a4.736 4.736 0 0 1-1.146.84c-.735.394-1.425.625-2.101.806-2.718.691-5.304.806-7.904.905-2.586.082-5.172.033-7.743-.066-10.298-.428-20.436-1.547-30.484-2.765-10.05-1.234-20.01-2.666-29.883-4.163-19.746-3.029-39.153-6.386-58.194-9.825a3340.078 3340.078 0 0 1-55.974-10.664c-18.277-3.687-36.127-7.241-53.55-11.323l-.823-.23-.441-.115c-.206-.066-.5-.165-.72-.313-.5-.411-.573-.51-.823-.74l-.646-.593a185.084 185.084 0 0 1-2.542-2.436c-1.66-1.662-3.29-3.357-4.848-5.118-3.13-3.538-6.038-7.274-8.595-11.29-5.127-7.98-8.873-17.148-10.005-26.791-1.19-9.628.382-19.42 3.864-27.895 3.468-8.525 8.64-15.898 14.677-21.822 3.041-2.963 6.318-5.58 9.888-7.62 1.777-1.02 3.643-1.876 5.641-2.436 2.057-.576 4.04-.56 5.95-.642 7.655-.164 15.103.066 22.434.264 14.618.444 28.65 1.053 42.05 1.678 53.55 2.551 96.86 5.201 126.787 7.06 29.927 1.877 46.47 3.094 46.457 3.325-.014.23-16.573-.527-46.513-2.024-29.942-1.449-73.268-3.72-126.818-5.974-13.384-.543-27.414-1.086-42.02-1.465-7.301-.164-14.779-.345-22.316-.164-1.895.082-3.76.099-5.435.592-1.72.494-3.438 1.284-5.098 2.238-3.335 1.926-6.465 4.427-9.359 7.274-5.774 5.695-10.695 12.804-13.972 20.9-3.276 8.081-4.716 17.264-3.584 26.3 1.072 9.067 4.642 17.757 9.579 25.426 2.468 3.85 5.289 7.471 8.33 10.894a119.818 119.818 0 0 0 4.745 4.97 88.402 88.402 0 0 0 2.483 2.37l1.087 1.004c.014.016 0 .016.06.033l.366.099.78.197c17.262 4.016 35.187 7.554 53.433 11.191 18.247 3.604 36.918 7.143 55.944 10.566s38.403 6.764 58.12 9.759c9.859 1.498 19.79 2.93 29.81 4.163 10.02 1.202 20.127 2.32 30.265 2.732 2.526.1 5.068.149 7.566.066 2.483-.082 5.01-.23 7.272-.806a7.739 7.739 0 0 0 1.484-.56c.206-.115.367-.23.455-.312.103-.149.03 0 .089-.165.396-1.333.778-2.666 1.146-4.016.705-2.666 1.336-5.365 1.792-8.063.455-2.683.75-5.399.587-7.966-.146-2.567-.91-4.904-2.541-5.76-.441-.247-.735-.362-1.381-.493l-1.793-.346-3.687-.625-7.39-1.153c-19.73-2.88-39.212-5.48-58.354-8.03l-110.436-14.4-26.063-3.358-12.767-1.629-6.332-.806-3.144-.412-1.557-.197-1.014-.132-.735-.099c-.132.017-.235-.033-.279-.18l-.19-.363-.618-1.168-.382-.79-.764-1.564c-.5-1.053-.97-2.106-1.44-3.176a113.703 113.703 0 0 1-2.556-6.451c-1.572-4.361-2.865-8.838-3.658-13.445-.794-4.576-1.117-9.348-.28-14.038.794-4.658 3.1-9.15 6.523-11.98 3.394-2.897 7.405-4.313 11.357-5.053 3.952-.642 7.801-.774 11.636-.873 7.64-.148 15.117.05 22.434.313 14.633.56 28.663 1.432 42.032 2.337 53.507 3.67 96.744 7.62 126.671 8.953 3.747.164 7.273.28 10.593.312 3.29 0 6.42 0 9.212-.428.69-.148 1.38-.247 1.733-.69.5-.495.94-1.038 1.337-1.614.823-1.135 1.47-2.337 2.042-3.521 1.116-2.37 1.88-4.69 2.424-6.78 1.087-4.197 1.41-7.62 1.043-9.793-.176-1.086-.705-1.777-1.205-1.826-.484-.1-.749.05-.749 0z"/><path fill="#26231f" d="M465.273 904.678s110.6-68.628 117.753-61.5c7.17 7.126 3.79 21.378-.984 25.837s-107.88 62.522-112.2 59.493c-7.258-5.086-4.57-23.83-4.57-23.83zM467.67 1003.582s105.03-54.359 109.804-47.232c4.774 7.127-.265 21.855-.265 21.855s-98.388 55.528-103.958 55.528c-5.568 0-10.343-30.15-5.582-30.15z"/><path fill="#26231f" d="M582.254 764.727s42.165 25.849 15.91 70.398-117.783 68.264-126.521 68.264c-8.757 0-239.472-4.08-246.626-13-7.17-8.904 3.982-16.935 3.982-16.935s217.2 11.586 222.766 8.03 14.324-46.359-9.55-57.038c-23.858-10.697-200.495 1.777-200.495 1.777s-10.343-15.157 3.981-16.046c3.174-.197 209.251-11.586 218.007-11.586 8.741 0 116.96-41.882 118.545-33.862z"/><path fill="#26231f" d="M458.149 728.207s8.742 20.498-1.601 21.388c-10.343.894-185.379 6.242-190.153 15.154-4.775 8.914-6.361 25.849 3.188 25.849 9.535 0 186.964-13.38 188.565-8.031 1.586 5.348-.808 17.823-.808 17.823s-196.85 15.98-204.814 10.631c-7.948-5.348-14.691-42.312-9.916-50.331 4.774-8.021 60.381-29.812 75.498-27.136 15.118 2.674 140.041-5.346 140.041-5.346z"/><path fill="#26231f" d="M458.116 728.207s126.495-35.65 131.269-28.521c4.775 7.13 5.583 10.695-.793 14.261-6.362 3.565-130.49 39.216-132.078 35.647-1.587-3.564-3.982-16.04.793-17.823l.808-3.565zM454.154 782.537S594.987 737.978 598.16 746c3.188 8.023 3.188 15.154-4.775 17.826-7.948 2.675-136.852 41.883-140.833 40.105-3.967-1.778 1.601-21.395 1.601-21.395zM453.089 643.75s-127.654-1.043-136.969 10.438c-9.329 11.484-36.113 71.603-11.885 83.085 24.241 11.482 145.138.423 147.93-3.752 2.792-4.175 0-16.701 0-16.701s-118.339 11.482-123.938 4.175c-5.583-7.307-8.389-46.972 2.806-53.234 11.18-6.263 118.34-2.085 121.133-5.218 0 0 9.314-24.01.925-18.79z"/><path fill="#26231f" d="M453.089 643.75s111.831-20.875 114.624-12.526c2.791 8.352-5.597 15.657-5.597 15.657s-104.355 16.704-109.95 15.659c-5.598-1.045-7.464-19.833.925-18.79zM452.157 716.822s110.892-38.623 114.607-29.226c3.732 9.394.94 13.57.94 13.57s-109.024 32.357-115.55 32.357c-6.522 0 0-16.7 0-16.7z"/><path fill="#26231f" d="M283.61 568.648s156.01-10.562 164.016 2.639c8.007 13.2 11.783 68.637 3.776 74.443-8.022 5.807-171.098 19.006-174.403 12.671-3.291-6.334-.94-22.702-.94-22.702s147.061 5.808 152.717.53c5.656-5.283 6.127-49.106.94-53.327-5.186-4.221-148.003 11.615-150.823 6.337-2.836-5.282-.47-20.062 4.716-20.59z"/><path fill="#26231f" d="M430.685 566.019s150.354-6.868 153.19-1.587c2.821 5.283 7.067 57.549-5.186 64.942l-12.267 4.221s-111.702 16.367-119.238 12.672c-7.537-3.696-19.32-80.778-16.499-80.249z"/><path fill="#26231f" d="M460.845 482.594c-1.41 3.696-130.55 2.64-141.392 6.338-10.843 3.696-5.186 57.015-.94 64.41 4.23 7.393 149.881-5.81 149.881-5.81s.94 12.671-.955 17.423c-1.88 4.751-136.675 12.671-156.949 2.111-20.26-10.557-11.782-84.473-.94-90.279 10.093-5.405 132.048-9.436 148.9-9.971l1.924-.063.47 15.842z"/><path fill="#26231f" d="M458.449 466.814s124.937-1.115 128.243 4.164c3.305 5.283-2.351 12.672-2.351 12.672s-126.319 6.334-129.152 1.583c-2.82-4.753-3.29-15.84 2.365-16.367l.897-2.052zM465.54 548.075c1.41 0 109.82-11.087 112.653-2.638 2.82 8.45-.485 17.425-.485 17.425s-109.334 8.444-112.17 4.75c-2.821-3.697-6.127-14.784-.94-17.422l.94-2.115z"/><path fill="#26231f" d="M462.743 387.052s-142.817 11.085-148.004 19.006c-5.186 7.919-16.499 58.603 4.246 63.883 20.73 5.278 146.579-2.641 146.579-2.641l-.94-16.367s-134.795 8.448-137.631 1.058c-2.821-7.392-3.291-29.04 3.776-32.734 7.066-3.697 129.138-9.506 129.608-14.785.47-5.28 9.432-17.952 2.365-17.422z"/><path fill="#26231f" d="M462.743 387.052s107.923 11.087 108.396 19.536c.47 8.445-2.821 10.03-2.821 10.03s-109.82-7.92-111.229-12.145c-1.425-4.223 1.41-16.896 5.657-17.421zM460.38 452.5c5.23-1.955 99.447-3.697 104.164 1.581 4.716 5.281 7.537 12.67-.94 14.257-8.492 1.585-104.634 2.11-106.042.528-1.426-1.585-1.426-14.785 2.82-16.366z"/><path fill="#fefbde" d="M239.434 917.894s-21.01 20.506.543 52.498c43.384 8.443 222.444 33.277 222.444 33.277s-16.866-59.89-1.778-73.152-202.346-25.294-220.123-15.042c-17.777 10.27-1.087 2.42-1.087 2.42z"/><path fill="#d9b68b" d="M475.96 929.812s-6.127 3.883-7.552 12.787c-3.776 23.534 4.848 54.918 4.848 54.918l87.796-39.825s-21.01-32.585-5.377-72.412l-79.717 44.532z"/><path fill="#2c559e" d="M468.935 815.294s5.935 60.348-9.153 83.88 132.518-64.562 135.75-69.399c3.232-4.821 14.721-24.833-5.392-43.447-12.384-11.454-121.205 28.965-121.205 28.965z"/><path fill="#078cc9" d="M242.663 814.096s-2.689 8.442.543 8.442 131.446-13.873 208.472.609c5.715 1.07 9.153-12.672 5.92-12.672-3.231 0-174.536-6.04-214.936 3.62zM230.845 877.447s-5.935 6.632-1.087 10.861c4.848 4.23 210.692 12.952 220.33 10.27 4.304-1.218.543-9.661.543-9.661s-202.01-3.028-219.787-11.47z"/><path fill="#fefbde" d="M257.21 828.577s16.161 30.166-3.232 45.867l199.864 6.632s11.841-19.304 2.145-45.85c-8.081-22.151-174.536-9.051-198.778-6.649z"/><path fill="#009935" d="M456.285 733.767s5.23 11.118-.529 11.118c-5.745 0-187.053 7.026-194.37 18.146-7.317 11.112-1.043 26.927 5.744 33.363 6.802 6.435 190.196-7.603 190.196-7.603l-1.043 14.038s-193.325 5.266-197.513 4.098c-4.173-1.169-10.975-34.529-10.446-40.97.529-6.438 31.866-18.143 31.866-18.143l176.094-14.046z"/><path fill="#007429" d="M462.577 733.168s.102 2.345 3.76 2.345 118.15-23.8 118.15-27.312c0-3.51.882-4.297.882-4.297s-122.794 28.093-122.794 29.263zM466.338 788.03s-3.452 5.957 2.806 4.196c6.274-1.76 123.014-28.632 125.627-32.728 2.615-4.093-6.523-4.035-6.523-4.035s-121.382 28.469-121.912 32.567z"/><path fill="#fefbde" d="M269.694 771.817s-1.44 14.351 7.978 17.856c9.402 3.506 178.604-6.155 178.604-6.155s-8.888-24.006-.529-31.03c8.36-7.021.764-2.896.764-2.896s-181.587 13.44-186.817 22.226z"/><path fill="#d9b68b" d="M466.738 749.546s-16.72 9.95-5.216 31.603l122.264-33.943s-14.633-14.048-7.845-26.924L466.74 749.546z"/><path fill="#302980" d="M453.155 722.049s2.6 8.195-1.057 8.195c-3.658 0-125.394 9.366-134.795 5.268-9.417-4.096-13.59-16.387-13.076-24.582.53-8.194 7.845-48.583 15.676-52.678 7.845-4.097 130.637-11.118 130.637-5.852 0 5.265-3.658 6.436-3.658 6.436s-116.006-1.756-121.749 5.268c-5.744 7.024-9.93 46.24-2.615 54.436 7.317 8.192 15.676 9.363 15.676 9.363l114.96-5.854z"/><path fill="#21276e" d="M461.511 719.685s-.103 3.787 1.998 3.204c2.086-.587 99.388-26.262 101.974-22.52 1.322 1.91-3.658-8.192-3.658-8.192s-95.612 21.656-100.313 27.508zM457.85 651.807s-.53 7.61 1.042 6.44c1.572-1.172 103.46-12.878 103.972-14.634.529-1.754-.514-5.266-.514-5.266s-103.46 12.288-104.501 13.46z"/><path fill="#d9b68b" d="M459.947 666.454c-.53 1.756-12.547 28.094 0 44.483l91.953-21.658s-19.48-22.842-9.035-32.205l-82.92 9.38z"/><path fill="#fefbde" d="M457.85 664.69s-19.335 28.094 0 50.335-116.519 11.705-125.923 5.851c-9.418-5.851-10.975-45.65-3.659-53.846l129.578-2.342z"/><path fill="#ee7500" d="M280.78 640.988s-4.04 12.838 1.028 13.356c5.084.517 137.704-5.692 140.937-8.281 3.232-2.589-.47-3.624-.47-3.624s-115.05 4.14-141.496-1.451z"/><path fill="#fefbde" d="M289.668 591.186s16.631 23.808-.925 44.512 131.725 5.199 137.69 1.037c17.101-11.905 4.628-51.244 4.628-51.244-6.464-2.068-141.393 5.695-141.393 5.695zM454.887 488.386s-10.93 42.552-5.73 61.79-123.849 5.246-129.578-1.75c-5.715-6.996-5.715-55.957 2.086-58.873s133.223-1.167 133.223-1.167z"/><path fill="#d9b68b" d="M460.08 488.952s-12.488 39.639-5.73 55.957l108.895-8.998s-4.82-37.052 6.626-49.293l-109.79 2.332z"/><path fill="#ca0178" d="M456.95 392.211s3.13 9.91-1.557 9.91c-4.686 0-122.643 7.68-127.933 16.083-5.29 8.4-11.533 32.3.44 38.71 11.974 6.413 133.883 1.413 133.883 1.413s-1.704 7.33-5.348 7.33c-3.643 0-132.18 3.497-138.423-.583-6.244-4.08-8.844-47.798 0-53.63 8.844-5.828 138.94-19.235 138.94-19.235z"/><path fill="#b00179" d="M462.144 390.447s-3.644 9.91.529 10.493c4.157.584 103.545 12.823 103.545 12.823l.529-5.243s-98.359-20.986-104.604-18.073zM468.902 455.729s-4.643 12.035-3.365 11.554c1.278-.478 96.508 1.27 97.553-1.061 1.043-2.332 4.158-8.726-2.35-8.444-6.494.281-87.15-4.378-91.837-2.049z"/><path fill="#fefbde" d="M459.014 407.924s-2.365 28.85 5.583 42.988-130.99 7.144-135.16 1.899c-4.158-5.248-6.244-27.979 1.571-31.477 7.802-3.5 128.007-13.408 128.007-13.408z"/><path fill="#d9b68b" d="M463.176 409.09s-1.043 34.974 6.244 39.638c7.286 4.663 84.83 2.332 84.83 2.332s-10.931-26.231-.53-34.392l-90.545-7.579z"/><path fill="#26231f" d="M438.608 956.91c-.132.493-8.55-2.123-22.405-4.855-6.92-1.366-15.206-2.716-24.447-3.884-9.24-1.169-19.437-2.156-30.161-3.094-10.725-.922-20.965-1.794-30.265-2.814s-17.674-2.19-24.652-3.44c-13.987-2.501-22.434-5.233-22.346-5.644.103-.494 8.668 1.398 22.64 3.274 6.978.955 15.323 1.877 24.608 2.716l30.25 2.55c10.74.939 20.98 2.008 30.264 3.358 9.27 1.35 17.6 2.962 24.52 4.641 13.855 3.357 22.097 6.797 21.994 7.192zM443.668 973.854c-.103.461-7.14-1.119-18.453-3.834-11.312-2.699-26.915-6.533-44.266-9.99-17.35-3.488-33.173-5.727-44.661-6.845-11.504-1.152-18.659-1.416-18.659-1.926 0-.411 7.185-1.004 18.79-.46 11.622.51 27.621 2.386 45.059 5.907 17.438 3.49 33.026 7.702 44.235 10.994 11.195 3.324 18.042 5.71 17.953 6.155zM330.715 838.297c0 .461-3.614.856-9.447 1.877-5.818.954-13.869 2.518-22.933 3.521-9.021 1.02-17.44.971-23.39-.592-2.967-.74-5.273-1.843-6.743-2.83-1.469-.988-2.115-1.795-2.013-1.976.235-.411 3.394 1.663 9.139 2.453 5.714.905 13.81.592 22.727-.412 8.918-.987 17.043-2.172 22.993-2.534 5.95-.428 9.681.033 9.666.493zM374.092 857.506c-.059.477-6.097-.165-15.838-1.185-9.74-.988-23.184-2.271-38.067-2.502-7.45-.115-14.53.05-20.965.379l-4.687.263-4.437.461c-2.88.247-5.582.428-8.065.46-9.961.264-15.955-1.974-15.823-2.402.088-.477 6.038.889 15.735.017 2.409-.181 5.068-.494 7.904-.872l4.437-.61 4.774-.427a233.556 233.556 0 0 1 21.17-.642c15.03.23 28.561 1.909 38.271 3.505 9.726 1.63 15.646 3.11 15.588 3.555zM441.637 761.497c.059.46-3.203 1.46-8.506 2.745a264.729 264.729 0 0 1-20.92 4.125c-8.228 1.3-15.765 1.909-21.23 1.942-5.466.033-8.845-.461-8.845-.905 0-.478 3.35-.84 8.727-1.482 5.362-.627 12.767-1.616 20.935-2.893 8.169-1.269 15.588-2.47 20.995-3.141 5.391-.682 8.77-.851 8.844-.39zM445.665 677.94c0 .48-3.497.849-9.123 1.446l-21.993 2.317c-8.624.841-16.499 1.213-22.214.976-5.715-.207-9.212-.907-9.182-1.353.03-.482 3.526-.633 9.153-1.033 5.627-.372 13.384-1.113 21.978-1.952 8.61-.834 16.47-1.374 22.17-1.338 5.7.01 9.212.486 9.212.937zM438.608 690.357c-.014.933-6.744 1.65-15.044 2.391-8.301.724-15.133.82-15.206-.132-.088-.901 6.596-2.501 14.985-3.232 8.404-.749 15.28.042 15.265.973zM348.891 600.008c-.013.477-2.82.855-7.36 1.45-4.525.564-10.799 1.416-17.821 1.905-7.008.504-13.472.246-18.07-.673-4.614-.89-7.288-2.273-7.17-2.682.118-.484 2.909.052 7.404.312 4.496.287 10.725.17 17.66-.326 6.934-.48 13.266-.962 17.88-.92 4.627.014 7.477.48 7.477.933zM450.725 498.34c0 .489-7.052.815-18.438 1.646-11.37.781-27.076 2.263-44.442 3.814-17.38 1.554-33.188 2.492-44.648 2.466-11.445.023-18.512-.715-18.512-1.149.014-.497 7.082-.606 18.468-1.234 11.385-.588 27.076-1.896 44.455-3.448 17.365-1.547 33.144-2.66 44.589-2.836 11.46-.219 18.526.3 18.526.74zM446.697 511.922c.03.466-1.733 1.063-4.613 1.722-2.88.642-6.89 1.389-11.4 1.766-4.51.39-8.683.18-11.651-.43-2.968-.597-4.687-1.493-4.598-1.927.088-.474 1.91-.423 4.789-.45 2.88-.01 6.831-.179 11.239-.559 4.408-.37 8.448-.734 11.4-.773 2.939-.051 4.79.19 4.834.651zM452.723 421.54c0 .472-2.469.859-6.45 1.374-3.981.492-9.476 1.2-15.632 1.69-6.14.5-11.782.466-15.852-.075-4.054-.522-6.493-1.422-6.42-1.863.059-.48 2.556-.426 6.523-.52 3.981-.076 9.447-.412 15.544-.907 6.097-.487 11.68-.823 15.734-.708 4.055.092 6.568.552 6.553 1.01zM443.668 436.22c.323.885-1.94 2.49-4.893 2.67-2.923.213-5.186-.627-5.186-1.54-.013-.948 2.292-1.626 4.966-1.825 2.674-.17 4.804-.158 5.113.696zM525.328 507.395c0 .479-3.614.844-9.417 1.525-5.803.646-13.825 1.682-22.772 2.392-8.947.722-17.145.66-23.036-.165-5.906-.79-9.403-2.212-9.3-2.623.088-.495 3.658.076 9.461.245 5.789.203 13.796-.108 22.67-.826 8.873-.703 16.968-1.364 22.86-1.404 5.89-.074 9.534.405 9.534.856zM504.156 685.83c.117.969-10.035 3.103-22.567 4.65-12.532 1.534-22.64 3.018-22.816 2.128-.19-.928 9.844-3.937 22.464-5.482 12.59-1.552 22.801-2.17 22.919-1.297zM518.27 924.152c.221.971-10.034 4.214-21.963 10.04-11.944 5.776-20.877 12.227-21.39 11.42-.486-.69 7.903-8.557 20.185-14.515 12.268-5.974 23.022-7.784 23.169-6.945zM502.125 945.624c.118.461-1.748 1.449-4.833 2.7-3.07 1.283-7.346 2.78-11.886 4.805-4.54 2.008-8.389 4.328-11.019 6.32-2.659 1.958-4.187 3.455-4.525 3.126-.294-.28.72-2.386 3.203-5.003 2.454-2.616 6.479-5.48 11.225-7.57 4.76-2.123 9.211-3.291 12.443-3.966 3.247-.675 5.29-.856 5.392-.411z"/><path fill="#26231f" d="M306.513 932.075s-21.17 16.935-25.21 40.65l39.328 7.917s12.106-38.41 21.17-44.056-21.17-12.425-35.287-4.51z"/><path fill="#e20415" d="M466.405 908.306s3.731 11.421-1.704 13.71c-5.436 2.27-215.04-21.313-228.293-8.756 0 0-27.517 19.024 0 63.557l229.997 34.625s4.07 15.602 1.351 15.602c-2.717 0-238.15-39.579-242.557-41.866-4.422-2.27-20.392-39.199-15.632-57.072 4.76-17.889 16.646-31.203 22.081-32.355 5.436-1.135 234.758 12.557 234.758 12.557z"/><path fill="#c80015" d="M470.866 1010.706s-1.925 13.973 4.01 13.364c5.921-.61 99.108-48.268 100.197-51.297 1.072-3.012 1.616-12.672 0-11.454-1.616 1.201-100.123 41.473-104.208 49.389zM472.164 908.206l5.745 4.049s100.386-43.873 103.075-47.495c2.689-3.62.544-15.684.544-15.684s-107.746 53.091-109.364 59.13z"/><path fill="#d2650c" d="M435.212 572.577s22.552 41.223.162 66.303 137.088-14.168 139.718-17.856c2.63-3.69 6.2-46.842.94-48.32-5.274-1.475-139.495-6.762-140.82-.125z"/><path fill="#ee7500" d="M282.744 574.64s-4.202 12.123 0 11.387c50.364-8.798 146.945-4.657 147.87-6.727.912-2.07-2.776-8.8-2.776-8.8s-140.467-1.035-145.094 4.14z"/><path fill="#fec611" d="M454.354 470.876s2.6 10.493-3.115 9.909c-5.73-.583-132.37-.078-134.618 5.498-2.248 5.579-17.85 32.973-1.719 66.783 0 0 1.029 3.499 4.158 4.664 3.114 1.165 118.649-4.082 119.161.582.515 4.662-.514 8.161-.514 8.161s-118.649.58-122.807-1.75c-4.172-2.331-19.775-37.306-5.215-84.52 0 0 95.23-11.076 144.668-9.327z"/><path fill="#cd9e00" d="M459.547 472.64s1.513 4.406 4.907 5.518c3.394 1.113 119.471 4.973 119.471 2.642v-6.995s-123.336-5.827-124.378-1.165zM444.966 554.833s4.07 5.26 8.242 5.26c4.158 0 120.44 1.395 120.956-2.102.529-3.495-.132-8.987-.132-8.987s-123.336 1.748-129.066 5.83z"/><path fill="#e20415" d="M307.545 933.174s-23.198 29.376-18.159 33.886c5.054 4.526 30.25 1.136 30.25 1.136s19.158-29.36 16.132-32.75c-3.012-3.39-20.157-5.661-28.223-2.271z"/><path fill="#078cc9" d="M480.22 824.848s97.274-42.704 101.225-35.35l3.937 7.356s-97.273 47.132-101.225 44.186c-3.937-2.946-10.519-16.194-3.937-16.194z"/><path fill="#26231f" d="M451.424 117.403s0-57.789 48.248-86.308l.66 3.003s-8.036 6.004-9.373 18.014 14.06-20.267 32.822-24.019c18.76-3.75 29.838-4.233 33.188 3.272s-4.745 24.458-4.745 24.458-27.386-7.688-30.06 7.32 15.691-4.278 26.416 3.978c0 0 1.998 9.754-1.351 12.006-3.35 2.251-25.388-6.384-24.05 2.621 0 0 28.75 7.135 30.088 18.393l-2.689 6.755s-13.457-11.393-10.108-3.887c3.35 7.506 15.47 15.895 13.458 20.396-1.998 4.504-23.448-10.505-19.422-3.751 4.025 6.754 9.388 18.01 2.673 14.259-6.699-3.755-7.36 6.003-7.36 6.753 0 .751-15.558-23.98-24.27-23.229-8.698.75 6.185 5.219 7.522 12.721 1.336 7.507-12.4-7.344-23.786-2.091-11.386 5.253-11.063 14.85-17.762 8.846-6.7-6.003-25.46-12.758-20.099-19.51z"/><path fill="#780f1a" d="M457.75 96.33s13.516-46.919 36.612-59.849-1.984 4.062-2.968 4.8c-.999.74-5.612 5.914-3.305 14.779l5.274-.739s20.788-34.358 53.11-24.753 4.276 16.256 1.646 18.103c-2.644 1.848-29.03-7.02-34.628 15.147l1.308 8.498s10.225-11.452 31.998-3.695v7.758s-21.435-9.607-32.645 2.586l.323 5.543s21.112-4.434 36.935 14.037l-1.307 3.695s-18.482-10.345-19.144-4.802c-.646 5.541 21.45 22.166 18.482 22.905-2.967.739-17.16-9.606-17.82-5.541-.662 4.065 7.595 15.884 4.627 15.516-2.968-.37-8.903 4.063-8.903 4.063s-16.822-29.557-29.03-22.537c-12.21 7.023-5.613 3.695-4.952 5.174.661 1.478 12.532 8.128 9.903 7.39-2.645-.74-11.21-3.326-15.177 0-3.952 3.324-19.804.771-22.434-4.788-2.63-5.557-10.548-18.12-7.904-23.291z"/><path fill="#26231f" d="M451.824 94.133s3.952-23.276 9.564-17.364c5.597 5.911 35.95 45.81 28.693 52.831-7.258 7.021-14.516 5.91-16.822 2.217-2.307-3.693-23.096-33.251-21.435-37.684z"/><path fill="#0083c2" d="M459.081 78.986s-4.628 12.56-4.29 15.886c.323 3.326 22.42 36.572 26.048 34.728 3.629-1.846 6.596-4.432 4.951-9.606-1.645-5.17-25.064-44.702-26.71-41.007z"/><path fill="#11b9e7" d="M457.75 87.109c-.147 1.097-3.306-.37.984 6.28s17.806 25.495 17.806 31.773c0 0-6.596-20.688-9.888-24.754-3.305-4.063-8.58-15.884-8.903-13.299z"/><path fill="#8fd5f2" d="M460.08 81.915s26.709 34.729 24.74 39.902c-1.983 5.172-17.483-24.384-19.79-27.709-2.306-3.322-6.273-15.517-4.95-12.191z"/><path fill="#26231f" d="M344.23 117.968s-10.71-60.787-64.982-63.04-31.087 12.398-22.11 12.757c18.761.75 14.074 5.254 14.074 5.254s-23.448-3-24.123 3.753c-.235 2.368-3.188 7.08.675 9.757 7.14 4.955 23.448 7.504 23.448 7.504-4.025 3.752-28.81-3.752-28.81-3.752s-3.35 12.756-1.337 13.51c2.013.748 31.484 5.25 30.808 9.752-.66 4.504-24.784 0-24.784 0s-10.05 11.257 6.699 13.51c16.748 2.25-6.905.577 2.468 11.835 9.388 11.258 24.697-1.262 48.82 8.497 24.124 9.756 35.14 14.941 38.493 11.94 3.35-3.003 16.073-20.262 13.399-27.018-2.689-6.756-5.363-9.756-12.737-14.26z"/><path fill="#780f1a" d="M260.54 66.036s11.224-9.237 19.79-8.128c8.579 1.108 46.176 1.108 62.012 60.218 0 0 3.952.74 1.645 3.695-2.306 2.956-5.612 25.122-4.613 29.187.984 4.064.984 5.911-2.321 2.955-3.291-2.955-31.323-16.993-41.546-17.363-10.226-.37-31.999 2.585-33.966 1.107-1.984-1.478-5.29-6.65-5.29-6.65s10.226-1.106 9.242-3.325c-.985-2.215-17.483-2.955-18.144-5.54-.662-2.588 1.322-5.543 1.322-5.543s23.095 4.064 25.725 1.477c2.644-2.587.66-9.235-2.307-9.972-2.968-.74-25.725-7.021-25.725-7.021s-3.29-8.867-2.967-7.76c.323 1.11 33.642 12.562 37.594 8.5 3.967-4.066-15.5-11.083-20.45-14.04-4.937-2.956-9.888-4.803-9.888-4.803l.323-5.913s9.241-6.65 18.467-1.107c9.241 5.543 8.918-2.217 7.258-4.432-1.646-2.215-16.16-5.543-16.16-5.543z"/><path fill="#26231f" d="M348.259 114.806c-.985-.765-6.935-18.471-12.21-11.823-5.273 6.649-18.143 40.64-10.224 54.31 7.918 13.669 15.837 8.13 16.821 5.91.985-2.216 8.903-45.81 5.612-48.396zM457.516 494.845s-45.97 9.988-86.96-11.881c-41.003-21.868-90.412-63.697-69.815-63.574 57.195.347 161.46 65.954 156.772 75.455z"/><path fill="#008137" d="M443.268 486.389s-33.026-.157-67.362-17.795-80.435-43.334-63.261-41.57c17.16 1.766 134.545 51.703 130.623 59.367z"/><path fill="#26231f" d="M455.985 205.355c16.513 16.004 17.997 27.022 32.204 25.146 14.221-1.874 16.337 20.46 24.402 48.107 8.228 28.129 14.81 81.77 9.77 110.43-4.187 23.793-11.562 24.22-19.98 44.172-18.585 44.083-37.904 65.998-43.707 66.903-63.57-67.465-159.449-56.373-161.959-69.493-2.512-13.117 73.664-76.264 75.322-100.625 1.058-15.417 14.178-87.952 27.341-88.565 23.419-1.093 14.486-24.115 17.572-25.148 8.359-2.812 33.672-16.136 39.035-10.932z"/><path fill="#19a429" d="M409.146 241.441s-10.74 42.641 16.587 40.454c11.767-.94 22.654-55.704 22.654-55.704s16.396 14.158 31.029 31.652c14.647 17.492 55.637 103.868 30.264 139.948 0 0-50.421 92.403-54.49 91.031-4.069-1.373-38.226-33.082-47.997-37.455-9.755-4.374-79.73-29.597-79.73-29.597s37.758-58.967 45.575-67.712c7.8-8.745 4.877-31.708 6.832-41.546 1.954-9.841 18.54-62.319 18.54-62.319s6.831-12.028 10.74-8.749z"/><path fill="#fce900" d="M411.01 454.497s32.454 27.515 44.193 34.309c3.393-2.413 7.257-8.244 7.257-8.244s-36.685-26.063-42.957-28.569c-6.259-2.508-8.492 2.505-8.492 2.505z"/><path fill="#018c37" d="M450.426 234.983s6.934 25.646 4.172 30.31c-2.777 4.664 3.467 59.842 4.158 67.616.69 7.772-29.148 31.087-45.105 49.738-15.955 18.653-4.848 53.627 15.265 69.17 20.127 15.542 27.062 24.092 27.062 24.092s47.658-75.476 51.583-92.14c3.922-16.665-.235-35.318-5.098-43.088-4.863-7.772-17.35-55.957-22.89-74.61-5.553-18.652-28.457-41.968-29.147-31.089z"/><path fill="#26231f" d="M497.498 315.378s4.172 34.668-5.862 36.543c-10.035 1.874-29.795-.159-29.795-.159s4.701-39.195 10.549-41.07c5.862-1.872 24.27-2.814 25.108 4.686zM364.205 306.89s-11.871 39.488-19.393 38.552c-7.537-.938-18.394-4.311-15.882-14.617 2.498-10.307 15.044-46.849 19.231-44.04 4.188 2.812 16.044 8.863 16.044 20.106zM387.907 451.235c3.394 5.429 4.187 12.18-3.35 13.12-7.522.934-118.765 47.784-139.688 64.652 0 0-4.187-8.435-1.675-12.182 2.513-3.747 97.037-75.898 116.27-77.772 19.245-1.873 22.58 2.811 28.442 12.182z"/><path fill="#26231f" d="M512.545 350.033s-77.776-14.99-144.699 6.561-40.15-63.713-82.815-70.271c0 0-126.306 25.297-126.306 37.478 0 12.18 107.074 79.643 107.074 79.643l13.384 6.559 110.407 1.875s122.117-52.472 122.953-61.843zM364.304 163.609c3.16 1.978 9.403 2.556 12.18.36l-12.18-.36z"/><path fill="#26231f" d="M376.489 163.975c-.662-.801-2.85-.206-6.039-.349-3.202-.243-5.656-.872-6.155-.01-.441.705 2.306 3.178 6.14 3.447 3.909.255 6.7-2.44 6.054-3.086zM367.3 157.783c2.454 3.119 7.36 4.822 10.843 4.277l-10.842-4.277z"/><path fill="#26231f" d="M378.153 162.078c-.235-1.02-2.586-1.42-5.377-2.391-2.762-1.11-4.716-2.494-5.465-1.883-.647.438 1.116 3.749 4.642 5.146 3.527 1.237 6.45-.027 6.2-.872z"/><path fill="#26231f" d="M369.93 155.12c1.264 3.506 5.216 5.974 8.39 5.691l-8.39-5.69z"/><path fill="#26231f" d="M378.32 160.813c-.206-1.059-2.101-1.631-4.202-2.902-2.013-1.428-3.277-3.05-4.188-2.79-.764.098-.205 3.667 2.777 5.75 3.041 1.864 5.848.778 5.612-.058z"/><path fill="#26231f" d="M373.892 166.073c1.572 2.476 4.701 2.975 7.008 1.12 2.306-1.854 2.894-5.37 1.322-7.843-1.572-2.475-4.701-2.972-7.008-1.118-2.292 1.858-2.894 5.367-1.322 7.84zM462.976 122.296s7.42-19.182 17.013-9.68 16.234 19.387 2.483 31.624c-.368.32-1.822-2.867-1.822-2.867s-12.003-15.45-17.674-19.077z"/><path fill="#f09b75" d="M466.704 125.026s5.377-16.906 12.694-9.076 9.755 8.185-.367 22.51c-.28.406 0 0 0 0s-5.26-10.631-12.327-13.434z"/><path fill="#26231f" d="M481.152 141.172c11.342 29.158-3.144 64.652-32.762 85.019-4.143 2.846-6.288 9.823-10.989 12.019-5.362 2.51-13.09.003-18.496 1.353-33.203 8.264-65.512-4.921-76.63-33.494-12.914-33.231 7.698-74.696 46.043-92.616 38.343-17.916 79.906-5.513 92.836 27.72z"/><path fill="#f4b891" d="M475.593 142.57c10.666 27.43-2.615 60.67-30.044 79.626-3.835 2.643-6.42 7.719-10.784 9.751-4.98 2.329-11.533 1.397-16.557 2.63-30.809 7.583-60.881-4.963-71.344-31.848-12.15-31.26 6.817-70.065 42.355-86.677 35.54-16.615 74.223-4.741 86.37 26.517z"/><path fill="#f4b891" d="M459.614 141.904c8.14 7.964 3.438 27.042-10.505 42.601-13.927 15.565-31.807 21.733-39.944 13.77-8.125-7.964.103-23.534 14.015-39.1 13.928-15.564 28.31-25.241 36.436-17.271z"/><path fill="#f4b791" d="M459.414 142.07c8.066 7.908 3.409 26.835-10.402 42.265-13.825 15.439-31.572 21.553-39.638 13.647-8.08-7.908.073-23.363 13.883-38.8 13.81-15.436 28.076-25.023 36.157-17.112z"/><path fill="#f4b791" d="M459.18 142.204c8.022 7.848 3.41 26.624-10.298 41.932-13.707 15.313-31.307 21.37-39.315 13.524-8.022-7.848.044-23.191 13.736-38.503 13.693-15.31 27.87-24.803 35.877-16.951z"/><path fill="#f4b690" d="M458.981 142.337c7.948 7.792 3.38 26.417-10.21 41.596-13.59 15.184-31.058 21.186-39.006 13.399-7.948-7.79.03-23.019 13.604-38.204 13.59-15.183 27.664-24.583 35.614-16.79z"/><path fill="#f4b590" d="M458.748 142.47c7.904 7.733 3.38 26.21-10.107 41.26-13.472 15.06-30.794 21.006-38.683 13.275-7.904-7.728 0-22.846 13.472-37.904 13.472-15.06 27.43-24.366 35.317-16.633z"/><path fill="#f4b490" d="M458.548 142.636c7.831 7.673 3.35 26-10.019 40.924-13.354 14.935-30.544 20.826-38.373 13.154-7.83-7.673-.014-22.675 13.34-37.608 13.354-14.931 27.223-24.147 35.054-16.472z"/><path fill="#f3b490" d="M458.349 142.77c7.787 7.614 3.35 25.79-9.902 40.587-13.252 14.808-30.294 20.643-38.067 13.03-7.787-7.612-.044-22.503 13.193-37.308 13.251-14.803 27.002-23.93 34.774-16.31z"/><path fill="#f3b38f" d="M458.116 142.903c7.713 7.558 3.32 25.582-9.814 40.254-13.134 14.68-30.044 20.461-37.757 12.906-7.713-7.554-.06-22.332 13.075-37.012 13.134-14.675 26.783-23.71 34.495-16.151z"/><path fill="#f3b28e" d="M457.916 143.07c7.67 7.499 3.32 25.373-9.711 39.92-13.032 14.552-29.78 20.277-37.435 12.781-7.654-7.495-.088-22.158 12.929-36.712 13.017-14.551 26.562-23.492 34.215-15.991z"/><path fill="#f2b18f" d="M457.716 143.202c7.596 7.437 3.291 25.163-9.623 39.585-12.913 14.425-29.53 20.096-37.125 12.658-7.595-7.437-.103-21.987 12.811-36.413 12.9-14.424 26.342-23.272 33.936-15.828z"/><path fill="#f2b18d" d="M457.483 143.335c7.552 7.38 3.276 24.954-9.52 39.246-12.796 14.3-29.266 19.915-36.802 12.537-7.537-7.381-.132-21.816 12.664-36.116 12.782-14.297 26.136-23.053 33.66-15.668z"/><path fill="#f3b08e" d="M457.283 143.502c7.478 7.32 3.262 24.743-9.431 38.913-12.68 14.172-29.016 19.732-36.493 12.411-7.478-7.318-.147-21.642 12.532-35.816 12.679-14.172 25.916-22.835 33.393-15.508z"/><path fill="#f3af8e" d="M457.05 143.635c7.42 7.264 3.247 24.537-9.314 38.576-12.576 14.045-28.766 19.552-36.186 12.289-7.42-7.26-.177-21.47 12.4-35.517 12.56-14.043 25.695-22.615 33.1-15.35z"/><path fill="#f3ae8e" d="M456.85 143.768c7.361 7.202 3.233 24.329-9.226 38.24-12.458 13.918-28.516 19.369-35.863 12.164-7.36-7.202-.206-21.299 12.253-35.218 12.444-13.916 25.475-22.396 32.835-15.188z"/><path fill="#f3ae8d" d="M456.618 143.901c7.301 7.146 3.217 24.12-9.124 37.908-12.34 13.79-28.252 19.186-35.554 12.041-7.301-7.144-.205-21.127 12.121-34.92 12.34-13.792 25.27-22.177 32.557-15.03z"/><path fill="#f2ac8d" d="M456.418 144.068c7.243 7.088 3.203 23.912-9.036 37.57-12.223 13.667-28.002 19.007-35.23 11.921-7.243-7.085-.236-20.957 11.988-34.622 12.209-13.662 25.034-21.958 32.277-14.869z"/><path fill="#f2ac8c" d="M456.218 144.201c7.17 7.03 3.174 23.705-8.947 37.235-12.106 13.54-27.738 18.825-34.921 11.796-7.184-7.025-.25-20.783 11.856-34.322 12.106-13.539 24.828-21.74 32.012-14.71z"/><path fill="#f1ab8c" d="M455.985 144.334c7.125 6.971 3.159 23.494-8.83 36.899-12.003 13.412-27.502 18.642-34.611 11.673-7.126-6.968-.28-20.613 11.709-34.026 12.003-13.407 24.608-21.52 31.733-14.548z"/><path fill="#f1ab8c" d="M455.785 144.5c7.052 6.913 3.144 23.286-8.741 36.566-11.885 13.286-27.238 18.46-34.306 11.548-7.051-6.91-.294-20.438 11.577-33.726 11.886-13.28 24.403-21.302 31.47-14.387z"/><path fill="#f2a98a" d="M455.586 144.634c7.007 6.852 3.129 23.076-8.639 36.23-11.768 13.158-26.988 18.276-33.982 11.424-7.008-6.851-.323-20.269 11.445-33.427 11.768-13.157 24.167-21.085 31.175-14.227z"/><path fill="#f2a88b" d="M455.386 144.767c6.934 6.795 3.115 22.865-8.55 35.893-11.651 13.033-26.725 18.096-33.674 11.303-6.934-6.792-.337-20.096 11.313-33.126 11.65-13.033 23.962-20.868 30.911-14.07z"/><path fill="#f2a88a" d="M455.153 144.9c6.89 6.74 3.1 22.658-8.448 35.56-11.533 12.906-26.474 17.914-33.35 11.178-6.89-6.734-.367-19.924 11.166-32.83 11.547-12.904 23.756-20.647 30.632-13.908z"/><path fill="#f2a78a" d="M454.953 145.067c6.817 6.674 3.085 22.447-8.345 35.224-11.43 12.778-26.224 17.73-33.056 11.054-6.817-6.675-.382-19.752 11.048-32.532 11.43-12.776 23.521-20.427 30.353-13.745z"/><path fill="#f1a689" d="M454.72 145.2c6.758 6.617 3.07 22.238-8.242 34.888-11.312 12.652-25.975 17.55-32.733 10.929-6.758-6.616-.411-19.58 10.901-32.231 11.313-12.65 23.316-20.21 30.074-13.586z"/><path fill="#f0a589" d="M454.52 145.333c6.7 6.56 3.056 22.03-8.153 34.552-11.195 12.525-25.71 17.367-32.425 10.807-6.699-6.556-.426-19.408 10.784-31.935 11.195-12.524 23.08-19.99 29.795-13.424z"/><path fill="#f0a48a" d="M454.287 145.5c6.64 6.501 3.041 21.821-8.05 34.218-11.078 12.4-25.461 17.185-32.102 10.686-6.64-6.502-.455-19.238 10.637-31.639 11.078-12.396 22.875-19.77 29.516-13.264z"/><path fill="#f0a488" d="M454.088 145.632c6.596 6.443 3.04 21.617-7.949 33.883-10.974 12.273-25.196 17.003-31.777 10.562-6.597-6.44-.485-19.066 10.49-31.34 10.974-12.268 22.653-19.55 29.236-13.104z"/><path fill="#f0a388" d="M453.855 145.766c6.522 6.385 3.011 21.405-7.846 33.546-10.872 12.145-24.96 16.822-31.484 10.437-6.523-6.382-.5-18.894 10.372-31.04 10.857-12.142 22.434-19.332 28.958-12.945z"/><path fill="#f0a288" d="M453.655 145.899c6.464 6.326 2.982 21.197-7.757 33.212-10.755 12.02-24.697 16.64-31.161 10.313-6.464-6.324-.514-18.72 10.225-30.74 10.74-12.015 22.229-19.113 28.693-12.785z"/><path fill="#f0a187" d="M453.455 146.065c6.406 6.27 2.982 20.988-7.654 32.877-10.637 11.89-24.447 16.458-30.852 10.19-6.406-6.265-.53-18.549 10.093-30.442 10.637-11.889 22.008-18.895 28.413-12.624z"/><path fill="#f0a187" d="M453.222 146.198c6.346 6.211 2.953 20.78-7.566 32.543-10.52 11.765-24.182 16.275-30.53 10.067-6.346-6.208-.557-18.377 9.962-30.145 10.504-11.762 21.788-18.675 28.134-12.464z"/><path fill="#f09f87" d="M453.022 146.332c6.288 6.15 2.953 20.57-7.463 32.204-10.402 11.64-23.933 16.095-30.221 9.943-6.288-6.145-.573-18.203 9.829-29.843 10.401-11.637 21.567-18.456 27.855-12.305z"/><path fill="#ef9e86" d="M452.823 146.498c6.228 6.092 2.923 20.362-7.361 31.87-10.299 11.51-23.683 15.912-29.912 9.82-6.23-6.088-.603-18.031 9.681-29.546 10.284-11.509 21.362-18.238 27.591-12.144z"/><path fill="#ef9c86" d="M452.59 146.631c6.17 6.035 2.923 20.152-7.258 31.533-10.182 11.387-23.434 15.734-29.604 9.7-6.17-6.031-.617-17.864 9.564-29.25 10.167-11.382 21.127-18.02 27.298-11.983z"/><path fill="#ef9c86" d="M452.39 146.764c6.097 5.976 2.894 19.946-7.17 31.2-10.063 11.26-23.168 15.55-29.28 9.575-6.111-5.973-.646-17.69 9.418-28.952 10.063-11.253 20.92-17.8 27.032-11.822z"/><path fill="#ef9b85" d="M452.157 146.93c6.053 5.915 2.894 19.736-7.067 30.864-9.946 11.132-22.919 15.366-28.971 9.452-6.038-5.917-.661-17.52 9.285-28.654 9.946-11.128 20.715-17.58 26.753-11.661z"/><path fill="#ef9b84" d="M451.957 147.064c5.98 5.855 2.865 19.524-6.978 30.528-9.829 11.005-22.655 15.183-28.649 9.324-5.994-5.852-.69-17.344 9.153-28.35 9.828-11.004 20.48-17.364 26.474-11.502z"/><path fill="#ef9b84" d="M451.724 147.197c5.935 5.798 2.865 19.316-6.876 30.192-9.71 10.88-22.404 15-28.325 9.203-5.935-5.797-.72-17.175 9.006-28.055 9.726-10.875 20.274-17.143 26.195-11.34z"/><path fill="#ef9983" d="M451.524 147.33c5.863 5.742 2.836 19.11-6.772 29.858-9.608 10.752-22.155 14.82-28.032 9.08-5.876-5.737-.734-17 8.874-27.757 9.608-10.748 20.054-16.924 25.93-11.18z"/><path fill="#ef9883" d="M451.324 147.497c5.818 5.682 2.836 18.9-6.67 29.524-9.49 10.624-21.905 14.638-27.708 8.954-5.818-5.678-.764-16.829 8.742-27.455 9.49-10.62 19.833-16.708 25.636-11.023z"/><path fill="#ee9783" d="M451.091 147.63c5.745 5.623 2.807 18.692-6.581 29.188-9.373 10.5-21.64 14.458-27.4 8.834-5.744-5.62-.764-16.66 8.61-27.16 9.372-10.495 19.612-16.487 25.371-10.862z"/><path fill="#ee9783" d="M450.892 147.763c5.7 5.566 2.791 18.485-6.48 28.85-9.27 10.374-21.39 14.277-27.076 8.711-5.7-5.56-.793-16.486 8.463-26.86 9.27-10.369 19.407-16.269 25.093-10.701z"/><path fill="#ee9682" d="M450.692 147.896c5.627 5.507 2.777 18.274-6.39 28.515-9.153 10.248-21.127 14.094-26.769 8.588-5.627-5.504-.808-16.314 8.345-26.564 9.153-10.24 19.172-16.05 24.814-10.539z"/><path fill="#ed9482" d="M450.459 148.063c5.583 5.447 2.762 18.064-6.273 28.179-9.05 10.12-20.892 13.91-26.46 8.464-5.583-5.444-.837-16.143 8.198-26.264 9.035-10.115 18.967-15.83 24.535-10.38z"/><path fill="#ed9482" d="M450.26 148.196c5.508 5.39 2.746 17.857-6.186 27.845-8.932 9.995-20.627 13.73-26.151 8.34-5.51-5.386-.852-15.97 8.065-25.964 8.933-9.988 18.747-15.613 24.27-10.221z"/><path fill="#ee9482" d="M450.026 148.329c5.466 5.33 2.733 17.649-6.082 27.51-8.815 9.867-20.377 13.548-25.828 8.217-5.45-5.328-.881-15.799 7.933-25.667 8.8-9.861 18.526-15.392 23.977-10.06z"/><path fill="#ee9282" d="M449.826 148.495c5.392 5.273 2.718 17.438-5.994 27.174-8.697 9.738-20.113 13.368-25.519 8.092-5.392-5.268-.896-15.626 7.801-25.367 8.698-9.734 18.32-15.173 23.712-9.898z"/><path fill="#ed9182" d="M449.627 148.629c5.347 5.211 2.703 17.227-5.892 26.836-8.58 9.613-19.863 13.184-25.196 7.969-5.333-5.21-.925-15.455 7.655-25.068 8.594-9.606 18.1-14.954 23.433-9.737z"/><path fill="#ed9181" d="M449.394 148.762c5.274 5.152 2.688 17.018-5.789 26.504s-19.613 13-24.902 7.847c-5.274-5.153-.94-15.284 7.537-24.773 8.462-9.481 17.88-14.736 23.154-9.578z"/><path fill="#ed9081" d="M449.194 148.928c5.23 5.095 2.674 16.81-5.686 26.168s-19.363 12.82-24.579 7.722c-5.215-5.092-.97-15.11 7.39-24.473 8.36-9.353 17.66-14.517 22.875-9.417z"/><path fill="#ed8e81" d="M448.96 149.061c5.158 5.04 2.66 16.604-5.596 25.835-8.242 9.23-19.1 12.635-24.256 7.598-5.172-5.034-1-14.938 7.243-24.175 8.242-9.224 17.453-14.297 22.61-9.257z"/><path fill="#ed8d80" d="M448.761 149.194c5.098 4.98 2.645 16.393-5.494 25.499-8.125 9.104-18.85 12.456-23.948 7.475-5.098-4.975-1.013-14.767 7.126-23.876 8.124-9.1 17.218-14.079 22.316-9.098z"/><path fill="#ed8d80" d="M448.561 149.328c5.04 4.92 2.616 16.184-5.406 25.16-8.007 8.98-18.585 12.276-23.624 7.354-5.04-4.917-1.043-14.594 6.978-23.575 8.022-8.975 17.013-13.863 22.052-8.939z"/><path fill="#ed8c7f" d="M448.328 149.494c4.98 4.863 2.615 15.978-5.289 24.827-7.904 8.852-18.35 12.093-23.33 7.23-4.98-4.858-1.043-14.425 6.846-23.277 7.904-8.85 16.808-13.643 21.773-8.78z"/><path fill="#ed8a7f" d="M448.129 149.627c4.921 4.804 2.585 15.768-5.201 24.492-7.787 8.727-18.085 11.91-23.007 7.104-4.922-4.799-1.073-14.25 6.714-22.977 7.786-8.721 16.572-13.426 21.493-8.619z"/><path fill="#ed8a7e" d="M447.896 149.76c4.863 4.747 2.585 15.559-5.098 24.158-7.67 8.597-17.836 11.727-22.699 6.98-4.863-4.74-1.087-14.08 6.582-22.679 7.669-8.595 16.366-13.206 21.215-8.459z"/><path fill="#eb897d" d="M447.696 149.927c4.804 4.687 2.556 15.35-5.01 23.822-7.551 8.471-17.571 11.544-22.375 6.859-4.804-4.684-1.117-13.91 6.435-22.383 7.566-8.47 16.146-12.988 20.95-8.298z"/><path fill="#eb877c" d="M447.496 150.06c4.746 4.628 2.556 15.142-4.907 23.486-7.448 8.347-17.321 11.367-22.066 6.736-4.731-4.625-1.132-13.737 6.317-22.084 7.434-8.34 15.926-12.77 20.656-8.138z"/><path fill="#eb877c" d="M447.263 150.193c4.687 4.57 2.527 14.933-4.804 23.15-7.346 8.219-17.071 11.183-21.758 6.613-4.687-4.566-1.16-13.563 6.17-21.786 7.331-8.214 15.706-12.549 20.392-7.977z"/><path fill="#eb867b" d="M447.063 150.326c4.628 4.513 2.527 14.724-4.7 22.815-7.23 8.093-16.823 11.001-21.45 6.489-4.614-4.508-1.176-13.393 6.052-21.487 7.214-8.087 15.485-12.33 20.098-7.817z"/><path fill="#ea847b" d="M446.864 150.493c4.569 4.45 2.497 14.513-4.613 22.477-7.111 7.967-16.558 10.819-21.127 6.366-4.569-4.447-1.205-13.219 5.906-21.187 7.096-7.962 15.265-12.111 19.834-7.656z"/><path fill="#ea837b" d="M446.63 150.626c4.511 4.39 2.483 14.304-4.51 22.141-6.993 7.84-16.307 10.637-20.817 6.243-4.496-4.39-1.22-13.049 5.773-20.89 6.994-7.836 15.06-11.891 19.555-7.494z"/><path fill="#ea837b" d="M446.43 150.76c4.452 4.334 2.469 14.098-4.421 21.808-6.876 7.713-16.058 10.455-20.495 6.117-4.437-4.331-1.249-12.874 5.642-20.59 6.875-7.706 14.838-11.673 19.275-7.336z"/><path fill="#ea8179" d="M446.198 150.926c4.392 4.277 2.453 13.888-4.305 21.473-6.773 7.588-15.808 10.274-20.2 5.998-4.379-4.275-1.264-12.708 5.509-20.295 6.758-7.582 14.618-11.454 18.996-7.177z"/><path fill="#ea8078" d="M445.998 151.059c4.334 4.218 2.439 13.68-4.216 21.139-6.656 7.456-15.544 10.09-19.878 5.87-4.32-4.214-1.293-12.532 5.362-19.993 6.655-7.454 14.413-11.236 18.732-7.016z"/><path fill="#ea8078" d="M445.765 151.192c4.275 4.158 2.424 13.472-4.114 20.803-6.537 7.33-15.294 9.907-19.554 5.747-4.275-4.154-1.322-12.36 5.23-19.696 6.523-7.327 14.177-11.014 18.438-6.854z"/><path fill="#ea7e77" d="M445.565 151.325c4.202 4.101 2.41 13.263-4.025 20.47-6.42 7.204-15.03 9.725-19.246 5.623-4.202-4.098-1.337-12.19 5.098-19.397 6.42-7.201 13.972-10.799 18.173-6.696z"/><path fill="#ea7d78" d="M445.366 151.491c4.158 4.044 2.394 13.054-3.923 20.132-6.303 7.078-14.78 9.546-18.923 5.502-4.157-4.039-1.351-12.019 4.952-19.099 6.317-7.073 13.751-10.58 17.894-6.535z"/><path fill="#e97c77" d="M445.133 151.625c4.084 3.982 2.38 12.846-3.835 19.796-6.185 6.953-14.515 9.364-18.614 5.378-4.084-3.98-1.366-11.844 4.819-18.799 6.2-6.948 13.546-10.361 17.63-6.375z"/><path fill="#e97c77" d="M444.933 151.758c4.04 3.925 2.365 12.635-3.717 19.46-6.083 6.827-14.28 9.182-18.306 5.254-4.025-3.92-1.396-11.672 4.687-18.5 6.082-6.82 13.31-10.142 17.336-6.214z"/><path fill="#e97a76" d="M444.733 151.924c3.967 3.866 2.336 12.427-3.629 19.125s-14.016 9-17.997 5.13c-3.967-3.861-1.41-11.497 4.554-18.2 5.965-6.695 13.105-9.926 17.072-6.055z"/><path fill="#e97a76" d="M444.5 152.057c3.923 3.808 2.336 12.222-3.526 18.791-5.847 6.573-13.766 8.818-17.674 5.01-3.908-3.807-1.44-11.331 4.408-17.906 5.862-6.566 12.899-9.705 16.792-5.895z"/><path fill="#e87975" d="M444.3 152.19c3.85 3.751 2.307 12.01-3.438 18.456-5.744 6.446-13.516 8.636-17.365 4.884-3.85-3.744-1.454-11.156 4.29-17.606 5.745-6.441 12.664-9.486 16.513-5.733z"/><path fill="#e87975" d="M444.067 152.357c3.805 3.69 2.307 11.798-3.335 18.116-5.627 6.32-13.251 8.455-17.042 4.763-3.79-3.687-1.484-10.987 4.143-17.308 5.627-6.313 12.459-9.266 16.234-5.571z"/><path fill="#e87875" d="M443.868 152.49c3.731 3.632 2.277 11.59-3.233 17.784-5.524 6.193-13.002 8.27-16.733 4.637-3.732-3.628-1.513-10.814 4.01-17.008 5.51-6.186 12.224-9.048 15.956-5.413z"/><path fill="#e87775" d="M443.635 152.623c3.687 3.575 2.277 11.385-3.13 17.451-5.406 6.065-12.752 8.09-16.425 4.513-3.673-3.57-1.528-10.643 3.879-16.71 5.391-6.06 12.017-8.828 15.676-5.254z"/><path fill="#e87673" d="M443.435 152.757c3.614 3.516 2.248 11.174-3.041 17.115-5.29 5.937-12.503 7.906-16.102 4.389-3.614-3.51-1.558-10.47 3.731-16.411 5.29-5.933 11.798-8.609 15.412-5.093z"/><path fill="#e87673" d="M443.235 152.923c3.57 3.456 2.248 10.965-2.938 16.78-5.172 5.812-12.238 7.724-15.794 4.264-3.555-3.45-1.572-10.298 3.615-16.112 5.17-5.808 11.576-8.39 15.117-4.932z"/><path fill="#e87573" d="M443.002 153.056c3.496 3.398 2.218 10.756-2.85 16.442-5.054 5.686-11.974 7.544-15.47 4.144-3.497-3.395-1.602-10.124 3.467-15.813 5.054-5.681 11.356-8.173 14.853-4.773z"/><path fill="#e87473" d="M442.802 153.19c3.453 3.339 2.219 10.547-2.732 16.106s-11.74 7.363-15.177 4.022c-3.423-3.338-1.616-9.957 3.335-15.518 4.951-5.55 11.151-7.953 14.574-4.611z"/><path fill="#e87472" d="M442.603 153.356c3.378 3.281 2.189 10.34-2.645 15.772-4.834 5.434-11.489 7.179-14.853 3.897-3.38-3.277-1.631-9.782 3.202-15.218 4.82-5.426 10.93-7.735 14.295-4.451z"/><path fill="#e87472" d="M442.37 153.489c3.32 3.222 2.16 10.13-2.557 15.438-4.716 5.303-11.224 6.998-14.545 3.772-3.305-3.217-1.645-9.61 3.07-14.92 4.717-5.297 10.711-7.514 14.031-4.29z"/><path fill="#e87272" d="M442.17 153.622c3.261 3.165 2.16 9.92-2.454 15.101-4.598 5.179-10.974 6.817-14.221 3.65-3.262-3.16-1.675-9.438 2.923-14.62 4.613-5.174 10.505-7.297 13.752-4.13z"/><path fill="#e87171" d="M441.97 153.755c3.188 3.104 2.13 9.713-2.365 14.766-4.481 5.052-10.71 6.635-13.913 3.526-3.188-3.1-1.69-9.267 2.806-14.322 4.48-5.048 10.27-7.077 13.472-3.97z"/><path fill="#e86f70" d="M441.737 153.922c3.144 3.048 2.13 9.505-2.248 14.43-4.378 4.925-10.475 6.454-13.604 3.404-3.13-3.043-1.719-9.094 2.659-14.023 4.378-4.919 10.064-6.86 13.193-3.811z"/><path fill="#e86f70" d="M441.537 154.055c3.07 2.987 2.101 9.295-2.16 14.095-4.26 4.8-10.21 6.27-13.295 3.279-3.071-2.98-1.734-8.922 2.527-13.724 4.26-4.792 9.843-6.64 12.928-3.65z"/><path fill="#e86e70" d="M441.304 154.188c3.027 2.93 2.101 9.087-2.057 13.76-4.143 4.672-9.96 6.087-12.972 3.156-3.012-2.926-1.763-8.752 2.395-13.425 4.143-4.666 9.622-6.422 12.635-3.49z"/><path fill="#e76d6f" d="M441.104 154.354c2.953 2.872 2.072 8.879-1.968 13.424-4.026 4.546-9.697 5.907-12.65 3.033-2.967-2.867-1.792-8.579 2.248-13.128 4.04-4.538 9.417-6.202 12.37-3.329z"/><path fill="#e76c6f" d="M440.871 154.488c2.91 2.81 2.072 8.668-1.865 13.086-3.908 4.42-9.447 5.727-12.341 2.911-2.895-2.807-1.807-8.406 2.115-12.83 3.923-4.413 9.197-5.982 12.091-3.167z"/><path fill="#e76c6f" d="M440.672 154.62c2.835 2.756 2.042 8.461-1.763 12.755-3.82 4.292-9.197 5.543-12.033 2.786-2.85-2.748-1.836-8.235 1.984-12.532 3.805-4.284 8.976-5.763 11.812-3.008z"/><path fill="#e76a6f" d="M440.472 154.754c2.791 2.696 2.042 8.253-1.66 12.418s-8.947 5.362-11.724 2.663c-2.777-2.69-1.851-8.062 1.851-12.232 3.688-4.159 8.756-5.546 11.533-2.849z"/><path fill="#e7696d" d="M440.239 154.92c2.718 2.637 2.013 8.045-1.572 12.083s-8.683 5.178-11.4 2.54c-2.718-2.634-1.881-7.891 1.704-11.935 3.584-4.03 8.55-5.326 11.268-2.688z"/><path fill="#e6676d" d="M440.04 155.054c2.673 2.577 1.997 7.833-1.47 11.748-3.467 3.912-8.433 4.995-11.092 2.413-2.66-2.57-1.895-7.717 1.586-11.634 3.468-3.905 8.316-5.108 10.975-2.528z"/><path fill="#e7666d" d="M439.84 155.187c2.6 2.52 1.983 7.626-1.382 11.413-3.35 3.785-8.168 4.815-10.769 2.29-2.6-2.512-1.924-7.547 1.44-11.335 3.35-3.78 8.11-4.89 10.71-2.368z"/><path fill="#e7666d" d="M439.606 155.353c2.542 2.46 1.97 7.417-1.263 11.077-3.247 3.66-7.933 4.635-10.475 2.17-2.542-2.456-1.925-7.377 1.307-11.038 3.247-3.654 7.89-4.67 10.432-2.209z"/><path fill="#e6656c" d="M439.407 155.486c2.483 2.403 1.954 7.209-1.176 10.742-3.129 3.533-7.669 4.451-10.151 2.045-2.483-2.398-1.954-7.205 1.175-10.74 3.114-3.525 7.669-4.451 10.152-2.047z"/><path fill="#f4b891" d="M343.631 188.21c.573 9.432 11.372 18.261 24.124 19.737 12.752 1.48 22.625-4.957 22.067-14.385-.573-9.422-12.15-17.089-24.888-18.563-12.767-1.477-21.86 3.788-21.302 13.211z"/><path fill="#f4b791" d="M343.798 188.177c.558 9.36 11.268 18.124 23.918 19.589 12.65 1.47 22.448-4.92 21.876-14.282-.559-9.352-12.033-16.963-24.682-18.428-12.65-1.463-21.685 3.765-21.112 13.121z"/><path fill="#f4b791" d="M343.93 188.144c.56 9.291 11.181 17.99 23.728 19.444 12.532 1.456 22.257-4.888 21.7-14.178-.559-9.285-11.945-16.844-24.477-18.297-12.546-1.451-21.508 3.746-20.95 13.03z"/><path fill="#f4b690" d="M344.064 188.11c.558 9.223 11.092 17.855 23.536 19.296 12.43 1.444 22.067-4.853 21.523-14.072-.558-9.216-11.841-16.722-24.285-18.162-12.444-1.44-21.332 3.72-20.774 12.938z"/><path fill="#f4b590" d="M344.23 188.077c.559 9.155 11.005 17.724 23.346 19.153 12.326 1.432 21.875-4.82 21.332-13.972-.544-9.145-11.739-16.599-24.065-18.026-12.341-1.428-21.156 3.7-20.612 12.845z"/><path fill="#f4b490" d="M344.397 188.044c.544 9.083 10.901 17.586 23.14 19.003 12.223 1.422 21.699-4.784 21.155-13.865-.544-9.08-11.65-16.477-23.874-17.894-12.238-1.415-20.979 3.676-20.421 12.756z"/><path fill="#f3b490" d="M344.53 188.01c.544 9.016 10.813 17.455 22.934 18.859 12.135 1.412 21.523-4.75 20.994-13.762-.544-9.01-11.548-16.355-23.668-17.76-12.135-1.406-20.803 3.657-20.26 12.663z"/><path fill="#f3b38f" d="M344.697 187.977c.543 8.945 10.724 17.318 22.742 18.712 12.032 1.397 21.332-4.715 20.803-13.66-.543-8.936-11.444-16.23-23.462-17.625-12.033-1.392-20.627 3.634-20.083 12.573z"/><path fill="#f3b28e" d="M344.83 187.944c.543 8.878 10.637 17.184 22.551 18.564 11.915 1.385 21.156-4.68 20.627-13.554-.543-8.87-11.342-16.109-23.256-17.493-11.93-1.379-20.451 3.614-19.922 12.483z"/><path fill="#f2b18f" d="M344.963 187.91c.544 8.809 10.549 17.049 22.36 18.418 11.812 1.374 20.966-4.646 20.436-13.452-.529-8.798-11.239-15.985-23.05-17.354s-20.275 3.587-19.746 12.388z"/><path fill="#f2b18d" d="M345.13 187.877c.528 8.74 10.445 16.915 22.154 18.273 11.71 1.362 20.774-4.612 20.26-13.347-.529-8.732-11.136-15.863-22.845-17.222-11.724-1.358-20.099 3.568-19.57 12.296z"/><path fill="#f3b08e" d="M345.296 187.844c.514 8.667 10.357 16.776 21.964 18.124 11.606 1.348 20.597-4.578 20.083-13.245-.529-8.66-11.048-15.742-22.654-17.089-11.607-1.344-19.922 3.543-19.393 12.21z"/><path fill="#f3af8e" d="M345.429 187.81c.514 8.601 10.27 16.646 21.773 17.977 11.503 1.34 20.407-4.54 19.892-13.14-.514-8.592-10.93-15.617-22.434-16.953-11.518-1.332-19.745 3.521-19.231 12.117z"/><path fill="#f3ae8e" d="M345.595 187.778c.515 8.527 10.182 16.506 21.582 17.827 11.386 1.328 20.216-4.506 19.716-13.034-.514-8.525-10.842-15.497-22.243-16.822-11.4-1.32-19.569 3.5-19.055 12.028z"/><path fill="#f3ae8d" d="M345.729 187.744c.5 8.46 10.078 16.375 21.361 17.683 11.298 1.315 20.054-4.471 19.54-12.932-.5-8.455-10.74-15.374-22.023-16.686-11.298-1.31-19.392 3.478-18.878 11.935z"/><path fill="#f2ac8d" d="M345.895 187.711c.5 8.391 9.99 16.238 21.17 17.537 11.196 1.301 19.864-4.437 19.364-12.829-.5-8.385-10.637-15.25-21.832-16.55-11.195-1.3-19.216 3.454-18.702 11.842z"/><path fill="#f2ac8c" d="M346.028 187.678c.5 8.32 9.902 16.105 20.98 17.39 11.092 1.29 19.671-4.404 19.187-12.725-.5-8.316-10.549-15.129-21.626-16.416-11.092-1.287-19.04 3.431-18.541 11.75z"/><path fill="#f1ab8c" d="M346.195 187.644c.5 8.255 9.799 15.969 20.788 17.243 10.99 1.282 19.496-4.368 18.996-12.621-.484-8.245-10.43-15.007-21.42-16.283-10.99-1.274-18.864 3.412-18.364 11.662z"/><path fill="#f1ab8c" d="M346.328 187.611c.485 8.186 9.696 15.835 20.583 17.1 10.886 1.268 19.305-4.335 18.82-12.518-.5-8.18-10.343-14.884-21.215-16.151-10.886-1.26-18.688 3.39-18.188 11.57z"/><path fill="#f2a98a" d="M346.494 187.578c.485 8.115 9.608 15.698 20.392 16.95 10.77 1.255 19.114-4.301 18.644-12.414-.5-8.109-10.24-14.763-21.024-16.015-10.783-1.249-18.511 3.367-18.012 11.479z"/><path fill="#f2a88b" d="M346.627 187.511c.485 8.046 9.52 15.565 20.201 16.803 10.667 1.246 18.923-4.262 18.453-12.308-.485-8.04-10.137-14.64-20.803-15.881-10.68-1.236-18.335 3.345-17.85 11.386z"/><path fill="#f2a88a" d="M346.794 187.478c.485 7.977 9.432 15.432 20.01 16.658 10.563 1.233 18.746-4.23 18.276-12.206-.485-7.97-10.049-14.515-20.612-15.746-10.578-1.226-18.144 3.322-17.674 11.294z"/><path fill="#f2a78a" d="M346.927 187.445c.485 7.907 9.344 15.295 19.819 16.511 10.46 1.221 18.555-4.195 18.085-12.102-.47-7.903-9.931-14.395-20.392-15.613-10.475-1.215-17.982 3.3-17.512 11.204z"/><path fill="#f1a689" d="M347.093 187.411c.47 7.839 9.241 15.162 19.599 16.365 10.372 1.208 18.394-4.161 17.924-11.998-.47-7.832-9.844-14.273-20.201-15.48-10.358-1.201-17.792 3.278-17.322 11.114z"/><path fill="#f0a589" d="M347.227 187.378c.455 7.77 9.152 15.027 19.407 16.219 10.255 1.196 18.203-4.124 17.733-11.894-.456-7.763-9.726-14.15-19.981-15.345-10.27-1.191-17.63 3.257-17.16 11.02z"/><path fill="#f0a48a" d="M347.393 187.345c.456 7.7 9.065 14.89 19.217 16.072 10.152 1.183 18.012-4.091 17.556-11.791-.455-7.694-9.637-14.029-19.79-15.212-10.151-1.178-17.438 3.234-16.983 10.931z"/><path fill="#f0a488" d="M347.526 187.312c.456 7.63 8.977 14.757 19.026 15.925 10.049 1.174 17.835-4.057 17.38-11.686-.456-7.626-9.535-13.906-19.584-15.076-10.064-1.167-17.277 3.212-16.822 10.837z"/><path fill="#f0a388" d="M347.693 187.278c.44 7.564 8.874 14.622 18.82 15.78 9.946 1.16 17.644-4.021 17.189-11.585-.441-7.555-9.433-13.781-19.379-14.941-9.946-1.154-17.086 3.19-16.63 10.746z"/><path fill="#f0a288" d="M347.86 187.245c.44 7.493 8.785 14.489 18.628 15.633 9.843 1.148 17.454-3.986 17.013-11.48-.456-7.489-9.344-13.662-19.173-14.809-9.843-1.142-16.924 3.17-16.469 10.656z"/><path fill="#f0a187" d="M347.992 187.212c.441 7.423 8.698 14.354 18.438 15.484 9.741 1.139 17.263-3.948 16.837-11.375-.456-7.417-9.241-13.538-18.982-14.673-9.74-1.13-16.733 3.143-16.292 10.564z"/><path fill="#f0a187" d="M348.125 187.178c.441 7.353 8.61 14.218 18.247 15.34 9.623 1.126 17.087-3.918 16.646-11.275-.44-7.346-9.138-13.414-18.761-14.538-9.638-1.119-16.572 3.124-16.132 10.474z"/><path fill="#f09f87" d="M348.292 187.145c.426 7.286 8.506 14.084 18.041 15.192 9.52 1.114 16.895-3.883 16.47-11.168-.441-7.28-9.036-13.294-18.57-14.407-9.536-1.106-16.382 3.1-15.941 10.383z"/><path fill="#ef9e86" d="M348.458 187.112c.426 7.214 8.419 13.947 17.836 15.043 9.432 1.104 16.719-3.846 16.293-11.064-.426-7.208-8.933-13.169-18.35-14.27-9.432-1.096-16.22 3.078-15.779 10.29z"/><path fill="#ef9c86" d="M348.592 187.078c.426 7.151 8.33 13.816 17.644 14.9 9.33 1.092 16.543-3.814 16.117-10.96-.426-7.14-8.83-13.048-18.159-14.138-9.329-1.083-16.028 3.056-15.602 10.198z"/><path fill="#ef9c86" d="M348.725 187.045c.426 7.077 8.242 13.678 17.453 14.75 9.227 1.082 16.352-3.778 15.94-10.855-.425-7.071-8.74-12.925-17.952-14.003-9.227-1.071-15.867 3.033-15.441 10.108z"/><path fill="#ef9b85" d="M348.891 187.012c.426 7.009 8.154 13.544 17.263 14.607 9.108 1.067 16.16-3.744 15.75-10.754-.412-7.003-8.64-12.802-17.748-13.869-9.11-1.06-15.676 3.012-15.265 10.016z"/><path fill="#ef9b84" d="M349.058 186.979c.411 6.938 8.05 13.409 17.056 14.457 9.006 1.055 15.985-3.708 15.573-10.65-.41-6.933-8.535-12.68-17.541-13.734-9.021-1.047-15.515 2.99-15.089 9.927z"/><path fill="#ef9b84" d="M349.19 186.945c.412 6.871 7.964 13.275 16.867 14.313 8.903 1.043 15.793-3.675 15.382-10.547-.397-6.863-8.433-12.557-17.336-13.6-8.903-1.034-15.324 2.969-14.912 9.835z"/><path fill="#ef9983" d="M349.324 186.912c.411 6.8 7.875 13.14 16.675 14.166 8.8 1.032 15.602-3.64 15.206-10.443-.412-6.794-8.33-12.434-17.13-13.466-8.815-1.023-15.162 2.946-14.751 9.743z"/><path fill="#ef9883" d="M349.49 186.879c.412 6.729 7.787 13.002 16.484 14.016 8.698 1.022 15.427-3.604 15.03-10.336-.412-6.728-8.242-12.315-16.94-13.332-8.697-1.014-14.97 2.922-14.574 9.652z"/><path fill="#ee9783" d="M349.624 186.845c.396 6.66 7.698 12.87 16.292 13.87 8.58 1.01 15.236-3.57 14.839-10.233-.397-6.657-8.125-12.191-16.72-13.198-8.594-1-14.808 2.901-14.412 9.561z"/><path fill="#ee9783" d="M349.79 186.812c.382 6.595 7.58 12.735 16.072 13.725 8.492.996 15.06-3.536 14.677-10.13-.396-6.589-8.036-12.069-16.528-13.065-8.491-.987-14.617 2.88-14.221 9.47z"/><path fill="#ee9682" d="M349.956 186.779c.382 6.522 7.493 12.598 15.882 13.579 8.389.982 14.883-3.503 14.486-10.028-.382-6.518-7.933-11.948-16.308-12.932-8.389-.974-14.456 2.859-14.06 9.38z"/><path fill="#ed9482" d="M350.09 186.712c.382 6.455 7.404 12.465 15.69 13.43 8.286.977 14.692-3.465 14.31-9.92-.382-6.45-7.83-11.826-16.117-12.796-8.286-.965-14.265 2.834-13.883 9.286z"/><path fill="#ed9482" d="M350.223 186.679c.382 6.384 7.316 12.331 15.5 13.286 8.183.96 14.5-3.433 14.133-9.82-.382-6.38-7.743-11.701-15.911-12.66-8.184-.954-14.104 2.812-13.722 9.194z"/><path fill="#ee9482" d="M350.39 186.646c.366 6.314 7.213 12.196 15.293 13.137 8.08.952 14.324-3.397 13.942-9.716-.367-6.311-7.625-11.578-15.705-12.525-8.08-.94-13.913 2.789-13.531 9.104z"/><path fill="#ee9282" d="M350.556 186.612c.367 6.246 7.125 12.062 15.103 12.992 7.977.938 14.133-3.364 13.766-9.613-.368-6.24-7.537-11.456-15.5-12.392-7.977-.93-13.736 2.77-13.369 9.013z"/><path fill="#ed9182" d="M350.689 186.58c.367 6.177 7.037 11.926 14.912 12.847 7.86.925 13.942-3.33 13.575-9.51-.353-6.174-7.434-11.334-15.294-12.26-7.875-.916-13.56 2.746-13.193 8.922z"/><path fill="#ed9181" d="M350.855 186.546c.368 6.107 6.95 11.791 14.706 12.697 7.772.915 13.781-3.293 13.414-9.402-.353-6.104-7.331-11.212-15.088-12.126-7.772-.905-13.399 2.724-13.032 8.831z"/><path fill="#ed9081" d="M350.988 186.513c.353 6.038 6.847 11.656 14.5 12.553 7.67.902 13.59-3.259 13.238-9.3-.367-6.036-7.243-11.09-14.897-11.99-7.655-.894-13.208 2.698-12.84 8.736z"/><path fill="#ed8e81" d="M351.155 186.48c.352 5.971 6.758 11.523 14.31 12.406 7.566.89 13.398-3.225 13.046-9.198-.353-5.964-7.126-10.967-14.677-11.854-7.566-.884-13.032 2.678-12.68 8.645z"/><path fill="#ed8d80" d="M351.288 186.446c.353 5.902 6.67 11.386 14.119 12.257 7.463.882 13.207-3.187 12.87-9.09-.353-5.895-7.038-10.844-14.486-11.721-7.449-.87-12.856 2.654-12.503 8.554z"/><path fill="#ed8d80" d="M351.454 186.413c.353 5.832 6.582 11.255 13.928 12.112 7.346.866 13.031-3.155 12.679-8.989-.338-5.827-6.92-10.723-14.266-11.587-7.36-.858-12.678 2.634-12.34 8.464z"/><path fill="#ed8c7f" d="M351.588 186.38c.352 5.763 6.493 11.12 13.736 11.967 7.243.854 12.84-3.122 12.502-8.887-.337-5.756-6.831-10.594-14.074-11.452-7.243-.848-12.503 2.612-12.165 8.372z"/><path fill="#ed8a7f" d="M351.754 186.346c.323 5.693 6.39 10.982 13.531 11.82 7.14.842 12.65-3.088 12.326-8.784-.337-5.687-6.728-10.476-13.869-11.317-7.14-.836-12.326 2.589-11.988 8.281z"/><path fill="#ed8a7e" d="M351.887 186.313c.324 5.625 6.303 10.85 13.34 11.673 7.037.833 12.473-3.051 12.135-8.678-.323-5.618-6.626-10.355-13.663-11.182-7.037-.825-12.15 2.565-11.812 8.187z"/><path fill="#eb897d" d="M352.054 186.28c.323 5.555 6.214 10.713 13.149 11.528 6.934.818 12.282-3.018 11.959-8.576-.324-5.55-6.538-10.231-13.458-11.05-6.934-.81-11.974 2.545-11.65 8.098z"/><path fill="#eb877c" d="M352.187 186.246c.323 5.485 6.126 10.58 12.943 11.38 6.832.808 12.106-2.982 11.797-8.469-.323-5.481-6.435-10.11-13.266-10.917-6.832-.8-11.797 2.523-11.474 8.006z"/><path fill="#eb877c" d="M352.353 186.213c.309 5.418 6.024 10.444 12.738 11.234 6.728.796 11.93-2.948 11.606-8.367-.309-5.413-6.332-9.988-13.046-10.783-6.729-.786-11.62 2.502-11.298 7.916z"/><path fill="#eb867b" d="M352.486 186.18c.31 5.348 5.936 10.31 12.547 11.089 6.626.785 11.739-2.913 11.43-8.264-.323-5.342-6.229-9.864-12.855-10.647-6.626-.776-11.444 2.478-11.121 7.822z"/><path fill="#ea847b" d="M352.653 186.146c.309 5.28 5.847 10.176 12.356 10.94 6.523.773 11.547-2.879 11.239-8.158-.309-5.275-6.127-9.745-12.635-10.515-6.524-.762-11.269 2.457-10.96 7.734z"/><path fill="#ea837b" d="M352.786 186.113c.309 5.21 5.76 10.044 12.165 10.798 6.42.758 11.37-2.847 11.062-8.06-.308-5.203-6.023-9.619-12.444-10.377-6.405-.754-11.092 2.434-10.783 7.64z"/><path fill="#ea837b" d="M352.953 186.08c.293 5.14 5.656 9.905 11.958 10.646 6.318.75 11.18-2.81 10.872-7.952-.294-5.136-5.92-9.496-12.223-10.245-6.318-.74-10.916 2.413-10.607 7.55z"/><path fill="#ea8179" d="M353.119 186.047c.294 5.07 5.568 9.772 11.768 10.5 6.2.738 10.99-2.774 10.695-7.848-.294-5.065-5.832-9.375-12.032-10.11-6.2-.728-10.74 2.39-10.431 7.458z"/><path fill="#ea8078" d="M353.252 185.98c.294 5.001 5.48 9.635 11.577 10.355 6.097.726 10.813-2.74 10.52-7.745-.295-4.996-5.73-9.25-11.827-9.976-6.112-.718-10.563 2.368-10.27 7.366z"/><path fill="#ea8078" d="M353.385 185.947c.294 4.932 5.377 9.502 11.372 10.206 6.008.715 10.636-2.704 10.342-7.636-.279-4.93-5.627-9.133-11.62-9.846-5.995-.704-10.387 2.344-10.094 7.276z"/><path fill="#ea7e77" d="M353.552 185.913c.294 4.865 5.289 9.366 11.18 10.062 5.906.703 10.446-2.672 10.166-7.537-.279-4.86-5.524-9.009-11.415-9.708-5.906-.693-10.21 2.322-9.931 7.184z"/><path fill="#ea7d78" d="M353.718 185.88c.28 4.795 5.186 9.234 10.975 9.915 5.803.692 10.255-2.636 9.99-7.432-.279-4.789-5.436-8.885-11.224-9.574-5.789-.68-10.034 2.299-9.74 7.091z"/><path fill="#e97c77" d="M353.851 185.847c.265 4.723 5.098 9.096 10.784 9.765 5.686.678 10.079-2.601 9.8-7.33-.265-4.72-5.32-8.761-11.005-9.44-5.685-.668-9.858 2.28-9.579 7.005z"/><path fill="#e97c77" d="M353.985 185.813c.264 4.656 5.01 8.964 10.592 9.621 5.583.665 9.888-2.567 9.623-7.226-.28-4.65-5.23-8.642-10.813-9.305-5.583-.658-9.682 2.255-9.402 6.91z"/><path fill="#e97a76" d="M354.151 185.78c.264 4.587 4.922 8.828 10.401 9.473 5.48.656 9.711-2.531 9.432-7.121-.264-4.584-5.127-8.517-10.592-9.172-5.48-.645-9.506 2.235-9.241 6.82z"/><path fill="#e97a76" d="M354.317 185.747c.25 4.516 4.82 8.693 10.196 9.326 5.377.645 9.52-2.496 9.256-7.017-.264-4.514-5.024-8.397-10.402-9.038-5.377-.632-9.329 2.211-9.05 6.729z"/><path fill="#e87975" d="M354.45 185.714c.25 4.446 4.731 8.557 10.006 9.18 5.274.633 9.329-2.46 9.08-6.914-.265-4.442-4.937-8.273-10.197-8.903-5.274-.623-9.153 2.19-8.888 6.637z"/><path fill="#e87975" d="M354.584 185.68c.25 4.378 4.642 8.423 9.814 9.037 5.17.617 9.152-2.43 8.888-6.813-.25-4.373-4.819-8.15-9.99-8.769-5.157-.608-8.977 2.168-8.712 6.545z"/><path fill="#e87875" d="M354.75 185.647c.25 4.308 4.555 8.286 9.608 8.883 5.07.61 8.977-2.39 8.727-6.704-.25-4.305-4.73-8.03-9.785-8.635-5.068-.598-8.8 2.144-8.55 6.456z"/><path fill="#e87775" d="M354.917 185.614c.235 4.24 4.451 8.152 9.402 8.742 4.966.595 8.786-2.359 8.536-6.603-.235-4.238-4.613-7.906-9.579-8.502-4.95-.586-8.609 2.123-8.359 6.363z"/><path fill="#e87673" d="M355.05 185.58c.235 4.172 4.363 8.02 9.211 8.594 4.863.586 8.595-2.322 8.36-6.499-.235-4.165-4.525-7.782-9.373-8.366-4.863-.573-8.448 2.101-8.198 6.271z"/><path fill="#e87673" d="M355.216 185.547c.235 4.101 4.275 7.885 9.02 8.447 4.761.573 8.42-2.289 8.184-6.395-.235-4.098-4.437-7.66-9.182-8.233-4.745-.561-8.256 2.08-8.021 6.181z"/><path fill="#e87573" d="M355.35 185.514c.234 4.032 4.187 7.75 8.829 8.3 4.657.562 8.227-2.252 7.992-6.29-.235-4.03-4.32-7.54-8.962-8.1-4.657-.549-8.095 2.058-7.86 6.09z"/><path fill="#e87473" d="M355.483 185.48c.235 3.967 4.099 7.617 8.638 8.155 4.555.55 8.037-2.217 7.816-6.186-.235-3.962-4.231-7.414-8.77-7.962-4.54-.542-7.905 2.032-7.684 5.993z"/><path fill="#e87472" d="M355.649 185.447c.22 3.894 3.996 7.48 8.433 8.008 4.437.537 7.86-2.185 7.625-6.084-.22-3.89-4.114-7.295-8.55-7.83-4.437-.527-7.743 2.012-7.508 5.906z"/><path fill="#e87472" d="M355.815 185.414c.22 3.826 3.908 7.345 8.242 7.863 4.334.523 7.67-2.15 7.45-5.982-.221-3.82-4.026-7.17-8.36-7.695-4.334-.514-7.552 1.99-7.332 5.814z"/><path fill="#e87272" d="M355.949 185.38c.22 3.756 3.82 7.212 8.05 7.716 4.232.513 7.478-2.115 7.273-5.877-.22-3.75-3.923-7.049-8.154-7.562-4.231-.5-7.39 1.97-7.17 5.724z"/><path fill="#e87171" d="M356.115 185.347c.22 3.688 3.732 7.075 7.846 7.569 4.142.503 7.316-2.082 7.096-5.772-.206-3.684-3.82-6.926-7.949-7.43-4.128-.489-7.199 1.949-6.993 5.633z"/><path fill="#e86f70" d="M356.248 185.314c.191 3.62 3.63 6.943 7.64 7.422 4.04.49 7.125-2.047 6.92-5.67-.206-3.613-3.717-6.803-7.743-7.291-4.025-.48-7.037 1.922-6.817 5.54z"/><path fill="#e86f70" d="M356.415 185.28c.19 3.55 3.54 6.807 7.448 7.276 3.923.478 6.935-2.01 6.744-5.565-.206-3.545-3.63-6.682-7.552-7.16-3.908-.466-6.846 1.9-6.64 5.45z"/><path fill="#e86e70" d="M356.548 185.248c.19 3.479 3.452 6.673 7.257 7.127 3.82.467 6.759-1.975 6.553-5.46-.191-3.476-3.526-6.56-7.331-7.026-3.82-.456-6.685 1.88-6.48 5.358z"/><path fill="#e76d6f" d="M356.714 185.181c.191 3.412 3.365 6.538 7.067 6.984 3.717.454 6.567-1.943 6.376-5.358-.19-3.408-3.423-6.436-7.14-6.893-3.702-.442-6.493 1.857-6.303 5.267z"/><path fill="#e76c6f" d="M356.847 185.148c.192 3.34 3.277 6.401 6.876 6.834 3.614.444 6.376-1.907 6.185-5.253-.176-3.339-3.32-6.316-6.92-6.759-3.613-.43-6.331 1.837-6.14 5.177z"/><path fill="#e76c6f" d="M357.014 185.114c.176 3.274 3.173 6.269 6.67 6.69 3.511.432 6.2-1.872 6.009-5.15-.191-3.267-3.218-6.192-6.729-6.621-3.496-.42-6.14 1.81-5.95 5.082z"/><path fill="#e76a6f" d="M357.147 185.081c.177 3.203 3.085 6.132 6.479 6.542 3.394.42 6.009-1.838 5.832-5.046-.19-3.197-3.129-6.068-6.523-6.487-3.408-.408-5.98 1.79-5.788 4.991z"/><path fill="#e7696d" d="M357.314 185.048c.176 3.135 2.997 5.998 6.287 6.395 3.291.408 5.818-1.804 5.642-4.94-.176-3.132-3.026-5.948-6.317-6.356-3.291-.395-5.789 1.768-5.612 4.901z"/><path fill="#e6676d" d="M357.447 185.015c.176 3.064 2.894 5.863 6.082 6.25 3.203.395 5.642-1.77 5.48-4.84-.176-3.061-2.924-5.824-6.112-6.22-3.202-.383-5.626 1.747-5.45 4.81z"/><path fill="#e7666d" d="M357.613 184.981c.162 2.999 2.792 5.73 5.877 6.104 3.1.384 5.465-1.734 5.289-4.735-.162-2.99-2.82-5.702-5.906-6.087-3.085-.37-5.436 1.725-5.26 4.718z"/><path fill="#e7666d" d="M357.746 184.948c.162 2.926 2.704 5.594 5.686 5.956 2.997.372 5.274-1.7 5.113-4.631-.162-2.923-2.718-5.58-5.7-5.953-2.983-.36-5.275 1.704-5.099 4.628z"/><path fill="#e6656c" d="M357.913 184.915c.161 2.858 2.615 5.46 5.494 5.81 2.894.36 5.098-1.665 4.937-4.527-.162-2.853-2.63-5.459-5.51-5.817-2.88-.35-5.083 1.678-4.922 4.534z"/><path fill="#f4b891" d="M388.14 191.007s-12.297-19.514 7.272-10.883-.734 8.954-7.272 10.883z"/><path fill="#f4b38b" d="M388.307 190.707s-11.768-18.685 6.963-10.419-.705 8.57-6.963 10.42z"/><path fill="#f2af85" d="M388.44 190.407s-11.24-17.857 6.655-9.958-.661 8.192-6.655 9.958z"/><path fill="#f2a97f" d="M388.606 190.108s-10.725-17.033 6.347-9.5-.647 7.815-6.347 9.5z"/><path fill="#f2a579" d="M388.773 189.808s-10.211-16.208 6.038-9.038-.603 7.435-6.038 9.038z"/><path fill="#f09e74" d="M388.906 189.509s-9.682-15.38 5.73-8.576-.573 7.057-5.73 8.576z"/><path fill="#ef9a6e" d="M389.072 189.21s-9.167-14.556 5.421-8.119-.543 6.68-5.42 8.118z"/><path fill="#ef9469" d="M389.205 188.91s-8.638-13.73 5.113-7.658-.514 6.3-5.113 7.657z"/><path fill="#ee8f62" d="M389.372 188.61s-8.125-12.9 4.804-7.197-.485 5.923-4.804 7.197z"/><path fill="#ec875a" d="M389.505 188.31s-7.61-12.076 4.495-6.736-.455 5.541-4.495 6.736z"/><path fill="#9e2c14" d="M437.143 172.464c.147.803-.514 1.608-1.47 1.802-.969.203-1.88-.284-2.041-1.086-.147-.8.514-1.606 1.469-1.804.97-.195 1.88.293 2.042 1.088zM418.967 175.394c.161.801-.5 1.606-1.47 1.802-.97.2-1.88-.288-2.027-1.086-.161-.799.5-1.607 1.47-1.804.969-.2 1.88.291 2.027 1.088zM420.598 186.912c.147.8-.514 1.605-1.484 1.799-.955.202-1.88-.286-2.027-1.085-.147-.8.499-1.606 1.469-1.807.97-.199 1.88.293 2.042 1.093zM441.204 155.753c.147.793-.5 1.6-1.469 1.8-.97.197-1.88-.291-2.042-1.091-.147-.8.514-1.605 1.47-1.804.969-.197 1.88.293 2.041 1.095zM426.557 166.006c.147.8-.5 1.608-1.47 1.807-.97.192-1.88-.293-2.042-1.095-.146-.8.5-1.607 1.47-1.805.97-.194 1.88.293 2.042 1.093zM426.424 178.656c.161.803-.5 1.608-1.47 1.809-.97.196-1.88-.297-2.027-1.093-.161-.8.5-1.606 1.47-1.804.969-.197 1.88.29 2.027 1.088zM365.902 181.42c.147.794-.514 1.6-1.469 1.803-.97.196-1.88-.291-2.042-1.091-.147-.8.5-1.606 1.47-1.802.969-.201 1.88.291 2.041 1.09zM371.195 189.409c.147.798-.514 1.604-1.469 1.807-.984.192-1.88-.297-2.042-1.096-.147-.8.514-1.606 1.484-1.802.955-.196 1.866.291 2.027 1.09zM356.215 181.785c.147.8-.5 1.608-1.47 1.807-.969.196-1.88-.293-2.027-1.092-.161-.8.5-1.608 1.47-1.802.97-.196 1.88.29 2.027 1.087zM379.485 185.58c.146.795-.5 1.603-1.47 1.8-.97.2-1.88-.289-2.027-1.09-.161-.797.5-1.603 1.47-1.8.954-.196 1.88.287 2.027 1.09z"/><path fill="#26231f" d="M353.485 208.018c.235-.482 5.539 3.48 15.324 5.492 4.863 1.018 10.783 1.524 17.35 1.218 6.567-.293 13.751-1.378 21.2-3.16 3.761-.904 7.317-1.827 10.652-3.183 3.35-1.323 6.508-2.88 9.446-4.501 5.892-3.262 10.946-6.805 14.971-10.08 8.11-6.528 11.9-12.12 12.253-11.818.338.206-2.953 6.506-10.96 13.709-3.967 3.607-9.006 7.453-15 10.962-2.997 1.748-6.23 3.416-9.711 4.84-1.749.71-3.541 1.36-5.407 1.904-1.851.53-3.703 1.01-5.612 1.468-7.596 1.815-14.986 2.837-21.758 2.964-6.759.146-12.885-.627-17.865-1.991-4.995-1.34-8.845-3.246-11.327-4.837-2.483-1.605-3.659-2.808-3.556-2.987z"/><path fill="#26231f" d="M377.687 217.04c-.03-.216.91-.646 2.718-.814 1.792-.176 4.408-.016 7.537.616 3.13.607 6.773 1.66 10.754 2.857 3.982 1.18 8.33 2.552 12.9 3.34 2.277.392 4.51.58 6.61.45a16.691 16.691 0 0 0 3.012-.47 11.58 11.58 0 0 0 1.396-.455c.426-.15 1.029-.45.955-.406.044-.02.03-.024.059-.065.073-.197.132-.396.176-.597.088-.403.132-.825.117-1.274 0-.897-.176-1.91-.308-3.007-.118-1.092-.133-2.294.088-3.41a9.203 9.203 0 0 1 1.131-2.916c.985-1.634 2.145-2.72 3.159-3.6a22.788 22.788 0 0 1 2.747-1.987c1.572-.956 2.512-1.303 2.615-1.112.103.206-.632.936-1.954 2.192-1.249 1.269-3.335 3.048-4.745 5.748-.69 1.371-.91 2.818-.558 4.676.147.938.411 2.006.484 3.304.03.645 0 1.343-.132 2.04a8.072 8.072 0 0 1-.25 1.031c-.073.244-.19.495-.279.744-.132.227-.162.57-.426.629-.97.567-1.337.747-1.91.989a15.34 15.34 0 0 1-1.675.602c-1.13.33-2.32.535-3.51.642-2.38.196-4.834.003-7.258-.408-4.863-.846-9.256-2.344-13.223-3.691-3.952-1.368-7.463-2.635-10.43-3.52-2.983-.902-5.407-1.403-7.112-1.628-1.69-.235-2.659-.257-2.688-.5z"/><path fill="#da013c" d="M422.562 211.214s.264 9.925-2.204 10.406c-2.483.475-22.257-3.372-22.257-3.372s19.378-1.885 24.461-7.034z"/><path fill="#26231f" d="M385.677 186.146c-.177.088-.72-.646-1.308-2.057-.279-.71-.588-1.594-.69-2.717-.03-.561-.03-1.193.176-1.848a3.496 3.496 0 0 1 1.102-1.718c.514-.441 1.087-.673 1.601-.828.661-.17 1.073-.133 1.572-.128.955.044 1.807.251 2.483.562.676.3 1.175.738 1.44 1.121.25.387.264.68.191.73-.191.12-.72-.494-1.94-.708a8.899 8.899 0 0 0-2.174-.152c-.382.023-.896.064-1.175.17-.397.134-.779.317-1.087.577-1.22.97-.75 3.214-.485 4.554.294 1.417.5 2.347.294 2.442zM459.28 181.353c0 .228-.455.506-1.277.839-.823.31-2.072.688-3.541.469-1.484-.202-2.689-1.155-3.247-1.988-.588-.838-.69-1.493-.544-1.611.368-.305 1.705 1.636 3.997 1.929 1.146.177 2.277.04 3.144.026.866-.03 1.454.1 1.469.336zM355.216 213.577c-.338-.281.235-1.854-.19-3.791-.31-1.972-1.485-2.98-1.338-3.412.074-.196.588-.219 1.234.268.661.473 1.337 1.503 1.587 2.783s.03 2.5-.338 3.244c-.367.76-.808 1.035-.955.908zM414.106 152.956c1.146 3.789.426 10.676-2.057 13.293l2.057-13.293z"/><path fill="#26231f" d="M412.042 166.239c.544.869 3.512-1.721 3.923-6.014.602-4.203-1.073-7.649-1.866-7.278-.793.33-.69 3.158-1.19 6.675-.397 3.57-1.396 5.858-.867 6.617zM408.347 155.153c2.277 3.23 2.836 8.854 1.675 12.54l-1.675-12.54z"/><path fill="#26231f" d="M410.045 167.704c.705.418 2.395-2.54 1.983-6.585-.558-4.071-3.144-6.587-3.658-5.956-.69.698.147 3.08.588 6.269.323 3.212.22 5.832 1.087 6.272z"/><path fill="#26231f" d="M405.45 157.517c2.866 2.006 4.29 6.743 3.41 10.124l-3.41-10.124z"/><path fill="#26231f" d="M408.88 167.637c.705.418 2.218-2.449 1.16-6.076-1.263-3.607-4.334-4.858-4.569-4.052-.411.948.779 2.615 1.66 5.051.72 2.508.853 4.662 1.749 5.077z"/><path fill="#26231f" d="M414.406 163.809c1.895 2.149 1.733 5.644-.367 7.812-2.101 2.167-5.348 2.182-7.243.04-1.88-2.155-1.705-5.643.396-7.81 2.101-2.172 5.333-2.188 7.214-.042zM372.893 162.377c1.998 3.318 2.939 10.166 1.16 13.43l-1.16-13.43z"/><path fill="#26231f" d="M374.058 175.826c.735.674 2.983-2.705 2.366-6.962-.412-4.235-2.85-7.062-3.526-6.468-.676.553.073 3.25.44 6.788.456 3.565.044 6.065.72 6.642zM367.866 166.239c2.968 2.429 4.834 7.694 4.584 11.589l-4.584-11.589z"/><path fill="#26231f" d="M372.46 177.824c.78.196 1.72-3.157.368-6.935-1.499-3.767-4.599-5.421-4.951-4.657-.5.875.881 2.922 2.071 5.862 1.058 3.008 1.587 5.562 2.513 5.73z"/><path fill="#26231f" d="M365.67 169.368c3.231 1.085 5.73 5.232 5.685 8.752l-5.686-8.752z"/><path fill="#26231f" d="M371.362 178.123c.764.201 1.557-3.02-.338-6.197-2.057-3.11-5.318-3.398-5.348-2.556-.176 1.037 1.367 2.29 2.792 4.381 1.278 2.204 1.924 4.238 2.894 4.373z"/><path fill="#26231f" d="M375.756 172.764c2.321 1.512 2.997 4.935 1.484 7.643-1.513 2.715-4.628 3.692-6.964 2.188-2.336-1.51-2.997-4.934-1.484-7.644 1.513-2.717 4.628-3.695 6.964-2.187zM487.244 203.158s22.875 11.41 25.373 27.335c2.512 15.928-1.278 95.702-8.8 97.576-7.537 1.873-43.134-8.95-43.134-15.51 0-6.56-5.921-84.253-1.749-90.811 4.188-6.556 14.927-18.588 28.31-18.588zM392.135 404.396c.837 2.81 16.719 52.471 6.685 57.155-10.035 4.687-113.756-38.416-113.756-38.416s0 5.622-6.685 5.622c-6.699 0-20.083-4.684-20.92-7.495-.838-2.813-3.335-9.37-3.335-9.37L147.05 385.656s3.085-63.697 10.037-61.84c52.698 14.055 107.07 76.834 112.08 78.708 1.132.42 1.103 2.793 11.71.938 64.406-11.243 111.259.937 111.259.937z"/><path fill="#26231f" d="M512.545 350.033s-123.792 44.04-122.953 54.346c.837 10.307 10.871 57.156 10.871 57.156s110.423-66.527 112.081-72.147c1.675-5.623 9.212-43.103 0-39.355zM388.64 238.145s-7.949 1.562-14.648-2.185c-6.684-3.746-11.797-12.24-16.587-5.469-13.766 19.444-22.346 65.355-22.346 65.355s32.616 9.37 35.128 16.867 11.621-16.621 20.906-36.542c4.055-8.672 10.093-31.466-2.453-38.028zM254.081 522.442s-9.726 33.32-18.952 33.836c-21.42 1.2-77.276-39.981-74.853-46.583 7.499-20.397 79.583.568 83.755 4.312 4.187 3.747 11.709 3.747 10.049 8.434z"/><path fill="#f4b891" d="M247.923 517.249s102.296-76.394 109.114-74.866c6.817 1.53 23.639 14.772 20.01 15.279-3.643.51-113.213 52.458-124.129 61.626-4.114 3.46-5.906 12.733-9.55 12.224-3.642-.508-58.736-16.562-53.197-19.353 9.095-4.584 34.1 2.037 39.11 3.564 4.995 1.53 18.643 1.528 18.643 1.528z"/><path fill="#26231f" d="M307.046 421.607s-48.807 125.217-52.978 136.459c-4.187 11.243-18.408 35.603-11.724 34.668 6.7-.937 17.571-28.11 23.433-29.983 5.847-1.875 45.161-86.804 75.265-126.16 8.184-10.695-31.484-14.982-33.995-14.982z"/><path fill="#26231f" d="M267.464 547.742s18.437 26.142 12.59 43.008c-3.041 8.73-51.919 63.018-64.879 52.168-6.596-5.524-.808-25.382 2.542-35.686 3.335-10.307 33.026-55.741 49.745-59.49z"/><path fill="#f4b891" d="M305.181 437.785s-43.193 106.445-45.926 116.629c-2.718 10.185-30.75 45.424-25.461 48.383 10.916 6.112 33.643-41.762 33.643-41.762s2.145-8.673 3.188-11.716c6.817-19.862 54.11-101.86 52.741-104.407-1.366-2.546-15.91-12.223-18.188-7.13z"/><path fill="#26231f" d="M357.78 100.524s-30.045 39.153-12.973 55.581 12.296-16.01 12.973-12.257c.66 3.754-3.82 11.115 7.375 10.261 2.012-12.009 12.561-31.454 9.211-17.197-3.35 14.26.97 19.193 6.817 19.761 5.201-14.55-.881-25.024 5.848-24.225-3.35 9.755 11.327 20 14 16.247-7.889-5.987-.058-23.443 2.542-18.527 4.834 9.122 24.932 31.067 23.918 21.66-1.131-10.536-12.37-23.724-3.379-18.922 6.303 3.367 10.549 8.497 16.822 6.28-6.038-8.255-8.021-15.096-6.009-15.845 2.013-.752 10.96 6.978 18.864 3.283-6.023-14.256 7.185-.999 11.871-7.002 4.687-6.004-15.529-30.994-31.293-39.332-18.32-9.692-44.485 1.519-49.172 9.023-4.687 7.504-12.21-5.913-27.415 11.212z"/><path fill="#fce900" d="M462.843 229.39s-1.543 77.662 3.908 78.72c22.449 4.372 39.036 9.84 39.036 9.84s3.907-79.817 2.938-87.47c-.985-7.653-19.085-20.287-23.433-20.774-9.756-1.091-21.48 5.469-22.449 19.683zM358.379 233.784s-21.465 54.67-17.571 56.853c3.908 2.187 31.234 14.214 31.234 14.214s18.556-34.988 19.525-45.923c.985-10.931-6.831-18.586-12.694-20.773-5.847-2.185-17.556-9.838-20.494-4.372z"/><path fill="#f4b891" d="M415.005 243.605s-5.862 33.892 5.847 31.706c11.71-2.184 21.48-43.733 21.48-43.733s-4.878 8.747-11.71 6.56c-6.831-2.186-14.647-1.093-15.617 5.467z"/><path fill="#c7b172" d="M156.442 327.23s-8.135 49.768-3.757 52.571c4.383 2.804 104.5 26.639 104.5 26.639s0 5.607 1.881 8.41c1.88 2.804 6.89 7.01 11.9 8.412 4.995 1.4 8.125.701 8.125.701l4.378-6.31 110.772 36.453-13.765-49.769s-63.834-3.505-90.749 2.803-15.014 3.504-21.273 0-78.218-70.096-112.011-79.91z"/><path fill="#edc79b" d="M395.497 404.329s3.747 49.769 8.756 46.966c5.01-2.803 103.885-58.185 104.501-63.088.632-4.908 6.89-34.346 3.13-30.843-3.747 3.504-111.376 39.253-116.386 46.966z"/><path fill="#fdf7b4" d="M165.197 323.7s80.732 44.862 102.004 76.408 84.477-11.216 116.402-2.804l127.024-42.761s-68.214-15.422-139.541 6.31-7.508 0-10.02-2.805c-2.497-2.804-40.68-58.18-75.721-67.995-9.183-2.572-120.147 33.65-120.147 33.65z"/><path fill="#f4b891" d="M471.232 318.108c-1.337 1.488-7.508 26.637-3.13 26.637 4.379 0 25.035 2.103 25.035 2.103l.617-25.235s-19.393-7.009-22.522-3.505zM341.7 299.898s-5.01 14.018-3.76 17.525c1.248 3.506 11.268 16.124 11.268 16.124l8.756-27.339s-13.766-11.918-16.263-6.31z"/><path fill="#26231f" d="M398.826 461.555s-11.107-16.05-5.156-20.218c5.964-4.168 118.369-71.713 120.603-63.377 2.233 8.34-1.734 11.447-1.734 11.447s-109.305 74.853-113.712 72.146z"/><path fill="#e20415" d="M398.893 445.509s0 10.842 5.215 7.508c5.216-3.336 106.455-63.378 107.19-66.714.75-3.337-3.716-2.503-3.716-2.503s-106.455 55.871-108.689 61.707z"/><path fill="#26231f" d="M286.472 412.152c-5.215 0-2.982 8.337-8.932 6.671-5.965-1.668-15.632 0-15.632-5.004 0-5.003-6.699-11.675-6.699-11.675S152.476 374.626 149.5 372.958c-2.98-1.666-7.446-2.5-7.446 2.503s2.234 11.674 2.234 11.674 102.68 16.092 104.177 24.43c1.484 8.341-.484 17.025 17.748 21.23 20.45 4.719 22.448-5.071 26.165-6.739 3.717-1.669 108.732 33.627 108.732 33.627.426-1.182 4.01-12.088-7.448-17.512-30.941-14.658-103.386-30.02-107.19-30.02z"/><path fill="#e20415" d="M146.521 377.963s-4.156 8.724.528 7.699c4.683-1.025 105.18 22.322 105.18 22.322l4.966-1.534s-111.419-32.657-110.673-28.487zM287.97 416.313s107.204 27.522 107.953 31.69c.735 4.167-1.66 6.104-1.66 6.104s-104.061-31.955-104.794-33.623c-.749-1.667-4.466-5.004-1.498-4.17z"/><path fill="#e20415" d="M254.115 411.886s.058 6.408 2.762 8.433c2.703 2.02 9.622 7.75 14.133 7.75 4.51 0 17.307-4.729 18.438-7.59 1.116-2.858-2.498-6.9-3.688-4.543-1.204 2.358-4.437 7.65-11.738 7.076-12.929-1.01-15.647-6.064-15.94-9.772-.31-3.706-2.836-1.7-3.968-1.354z"/><path fill="#26231f" d="M248.655 411.087c-1.043 1.162-14.589 15.971-24.359 15.971-9.755 0-15.573-5.375-21.684-11.299-6.097-5.926-20.122-32.124-14.824-30.756 5.289 1.364 17.762 13.28 19.378 9.632 1.63-3.645.823-15.952 4.48-8.66s1.485 9.173 4.13 8.805c.822-6.382.748-12.907 4.01-7.893 3.261 5.015 4.613 12.904 5.274 10.118 1.484-6.227 5.304-9.204 6.523-2.824 1.22 6.379 3.174 8.688 5.29 10.025 6.522 4.101 13.81 4.602 11.782 6.881zM374.524 449.304c-1.116 1.065-14.382 13.106-24.123 12.244-9.74-.863-14.515-.897-20.171-7.345-5.671-6.45-10.945-39.808-5.774-37.977 5.186 1.835 6.655 15.68 8.536 12.188 1.88-3.488 1.924-15.831 5.069-8.236 3.129 7.595 2.115 13.748 3.379 7.458 1.263-6.286 1.777-11.117 4.671-5.827 2.88 5.287 1.69 16.016 2.953 9.727 1.264-6.291 7.523-7.884 8.286-1.413.779 6.467 6.26 9.357 8.286 10.884 6.2 4.664 11.078 6.206 8.889 8.298z"/><path fill="#f4b891" d="M190.231 390.147s12.826 22.275 21.053 25.81c14.25 6.129 29.662-4.826 28.34-6.683-1.323-1.856-3.144-.558-4.643-3.156-1.498-2.6-5.642-13-6.964-9.842-1.322 3.158.662 9.842-3.805 8.912-4.48-.927-3.159-14.851-5.642-13.368-2.482 1.484-.5 13.555-3.805 12.441-3.32-1.116-2.659-14.67-4.642-13.924-1.998.742-1.16 12.812-3.82 10.396-2.644-2.414-17.894-15.042-16.072-10.585zM324.024 421.507s4.642 22.281 9.284 25.995c4.643 3.715 12.767 3.899 17.733 3.713 4.98-.183 19.57-3.713 17.733-4.455-1.822-.742-9.77-4.274-10.608-7.429-.822-3.156-3.144-12.81-4.804-10.023-1.66 2.782-.984 12.44-4.965 10.583-3.982-1.856-1.308-15.48-3.32-15.598-3.145-.186.66 15.412-4.643 13.368-5.304-2.042-1.63-18.286-4.481-15.968-1.822 1.486-1.645 16.714-3.467 13.927-1.837-2.788-8.125-20.24-8.462-14.113z"/><path fill="#780f1a" d="M385.244 93.966s-10.152-.184-17.542 4.947c-7.375 5.13-19.716 20.61-23.08 29.555-5.025 13.349-3.159 27.434.66 24.013 3.806-3.42 11.46-16.902 12.988-12.91 1.528 3.989 1.793 15.388 4.334 11.969 2.542-3.422 4.834-20.522 8.903-21.946 4.07-1.425 7.126-2.85 6.612 1.139-.5 3.99-2.542 20.522.764 21.945 3.305 1.427-1.014-20.518 4.333-22.799 5.334-2.28 8.14-3.135 6.862.854-1.264 3.991.514 11.4 6.111 15.962 0 0-3.555-17.104 3.306-19.096 6.875-1.995 6.111.569 8.403 3.704 2.292 3.137 19.335 22.518 17.293 18.527-2.028-3.99-12.21-23.657-7.376-24.796 4.834-1.142 20.862 12.827 19.085 9.405-1.778-3.421-15.514-20.235-8.653-18.81 6.875 1.423 23.667 14.25 20.611 7.978-3.055-6.27-3.57-16.246.764-12.54 4.32 3.705 13.987 11.115 13.488 6.27-.515-4.845-9.198-16.904-16.573-21.75-7.39-4.844-21.111-15.146-30.675-13.669-13.649 2.11-19.158-2.771-30.617 12.049z"/><path fill="#0083c2" d="M336.407 108.148s-6.596 9.232-7.918 21.794c-1.323 12.563-2.968 24.755 1.645 28.82 4.613 4.061 9.902 4.061 9.902 1.476 0-2.586-5.289-11.081-2.982-18.842 2.321-7.76 6.273-20.688 5.612-24.753-.661-4.065-2.307-12.19-6.259-8.495z"/><path fill="#8fd5f2" d="M337.706 109.28c-1.22 1.234-11.21 25.12-8.565 41.006l1.968 5.91s1.322-27.339 6.934-40.64 2.968-9.603-.337-6.279z"/><path fill="#11b9e7" d="M341.001 115.172s2.307.002-.984 10.347c-3.306 10.343-5.289 16.992-4.95 25.49 0 0-3.306-4.802 2.306-21.798 1.88-5.715 3.29-16.995 3.629-14.039z"/><path fill="#fecc00" d="M488.61 214.81s15.25 2.328 15.954 15.54c.69 13.213-2.777 83.937-2.777 83.937s-18.731-9.326-25.666-8.548 8.316-1.557 9.006-4.664c.705-3.108 12.488-61.397 10.417-68.39-2.087-6.995-10.417-19.43-6.935-17.873zM383.846 247.433s7.625 7.77 0 21.76c-7.64 13.988-12.488 31.087-12.488 31.087s-18.746-11.658-27.062-11.658 18.041 3.886 20.113-.777c2.086-4.664 17.35-23.314 18.041-27.978.69-4.664 0-16.32 1.396-12.434z"/><path fill="#76b617" d="M402.555 255.989c1.057-2.148-8.33 20.982-12.488 39.635-4.173 18.653 3.467 17.099 3.467 20.206 0 3.109-6.949 28.757-6.949 28.757s40.947-10.105 47.881-8.55c6.935 1.554-15.955-12.434-25.666-13.988-9.71-1.555 2.072-11.656 10.402-12.435 8.33-.778-12.488-4.664-16.646-8.55-4.173-3.886 5.539-11.656 5.539-11.656s-9.006-26.423-5.539-33.42z"/><path fill="#26231f" d="M414.14 277.128s4.95-10.67 14.47 0c5.554 6.218 17.807-13.276 20.584-9.387 2.776 3.887 4.143 43.813-2.85 36.386-7.816-8.295-19.628-9.929-19.628-9.929s-8.477 9.6-13.34-1.282c-1.954-4.394-19.584 17.203-20.29 10.21-.69-6.994-1.16-29.13 5.437-34.535 1.674-1.376 12.84 8.536 15.617 8.536z"/><path fill="#fce900" d="M398.527 274.132s-3.424 8.963-1.528 20.91 13.34-8.106 16.38-7.68c3.057.426-.381 6.828 6.48 7.256 3.613.223 6.86-6.402 8.756-5.55 1.91.854 16.014 5.121 16.014 5.121s3.423-24.75 0-20.908c-3.439 3.84-11.813 10.669-15.25 8.96-3.424-1.708-5.848-7.352-9.52-4.267-3.674 3.084-6.098 3.84-6.098 3.84s-16-12.802-15.235-7.683z"/><path fill="#fdfad2" d="M481.252 215.908c-1.425.56-9.828 1.69-11.709 8.457-1.895 6.767 1.88 67.246 1.88 67.246s-1.498-57.941 3.41-62.17 11.694 0 11.326-4.227c-.381-4.23 1.499-11.843-4.907-9.305zM374.79 241.707s-10.24-5.464-12.458-3.805c-7.933 5.92-15.485 43.56-15.485 43.56s10.946-30.872 16.617-32.14c5.656-1.27 16.6-5.92 11.327-7.614z"/><path fill="#0083c2" d="M269.261 565.885s-22.595 45.261-35.317 41.7-5.73-.717-4.128-6.417c1.586-5.703 20.67-35.637 20.67-35.637s0-3.206-6.684 5.702c-6.67 8.908-30.543 44.902-26.724 57.732 3.82 12.83 18.144-2.495 22.92-5.701 4.76-3.208 33.085-32.79 34.98-38.49 1.91-5.7-.308-25.301-5.715-18.886zM244.128 535.592s-2.865 11.047-8.272 11.047-64.906-29.223-64.906-35.996c0-6.77 23.225-10.69 64.583 2.853 0 0-49.409-10.116-50.907-3.921-2.22 9.265 50.275 26.374 59.503 26.015z"/><path fill="#26231f" d="M271.925 400.6s-89.254-106.88-97.716-109.467c-8.466-2.587-6.927 4.308-6.927 4.308S268.09 402.322 271.925 400.598z"/><path fill="#26231f" d="M169.591 291.11s110.03-24.135 120.816-18.965c10.77 5.172 75.192 79.58 70.682 85.905-4.51 6.324-82.23 44.252-89.164 42.528-6.92-1.724-102.334-109.468-102.334-109.468z"/><path fill="#fefbde" d="M174.95 293.706s94.788 102.084 99.272 101.715c20.774-1.725 87.709-38.793 84.636-41.377-3.085-2.583-65.408-78.437-70.798-78.437-5.376 0-113.11 13.79-113.11 18.1z"/><path fill="#eb602b" d="M334.244 381.625s-18.468 7.756-11.548 7.756c6.934 0 56.18 2.588 64.642 0 8.463-2.587 23.08-9.48 20.01-9.48-3.085 0-64.642-.863-73.105 1.724z"/><path fill-rule="evenodd" fill="#a4082b" d="M382.048 100.824s-24.579-1.399-34.585 29.868c-6.582 20.58-3.335 16.801-3.335 16.801s7.493-19.134 11.665-18.2c4.173.933 5.833 16.334 5.833 13.067s-1.66-20.066 10.005-22.401c11.665-2.334 6.67 4.2 6.67 4.2s-.133 20.604 0 19.134c.205-2.554 2.908-24.27 8.741-26.135 5.833-1.865 1.249 9.801 3.335 16.333 2.086 6.535 0 0 0 0s.411-10.733 4.995-13.067c4.584-2.334 17.087 15.871 25.005 22.402 0 0-20.01-25.203-12.502-26.602 7.492-1.398 19.995 11.669 19.995 11.669s-16.25-20.534-5.421-18.668c10.842 1.866 19.583 8.4 19.583 8.4s-7.918-13.067-4.995-14c2.909-.933 15 3.734 15 3.734s-20.832-27.536-37.917-23.336c-17.086 4.2-28.736 11.2-32.071 16.8zM466.605 80.75s10.005-26.601 21.258-36.868-4.172 14-2.512 16.799c1.675 2.801-4.584 19.602-4.584 19.602s29.56-48.976 59.163-47.135c7.508.467-8.33 6.067-8.33 6.067s-24.167 12.602-30.411 28.468-1.249 11.202-1.249 11.202 8.33-7.935 24.99-9.334-23.33 10.732-23.33 14.466c0 3.733 17.924.467 34.585 6.533l-10.416 5.134s2.923 3.736 7.507 12.134c4.57 8.4-3.76-8.867-13.34-7.934-9.579.933 7.493 16.334 6.67 21.934-.837 5.6-8.756-16.334-21.244-16.334-12.502 0-18.335 3.735-20.01 2.334-1.66-1.4-19.584-23.8-18.746-27.067zM332.446 99.892s-9.168-34.069-48.747-38.736 12.503 4.667 15.412 12.134c2.923 7.468-12.488-6.066-17.498-7.467-4.995-1.4-.823 7-.823 7s22.905 5.132 21.656 15.867c-1.249 10.735-34.16-9.798-37.491-8.865-3.335.933 9.167 6.532 19.995 13.532 10.842 7.001 12.502 13.535 12.502 13.535l-26.665-2.801s20.421 2.335 22.081 7.468c1.66 5.131-19.157 9.798-16.66 9.798 2.498 0 16.66-4.2 17.498-.933.822 3.267-26.666 11.668-26.666 11.668s.412 3.267 4.995 1.4c4.584-1.866 38.33-4.666 44.163.934l5.832 5.6s6.67-37.335 10.417-40.134z"/><path fill-rule="evenodd" fill="#c40034" d="M380.783 105.485c-1.249.467-22.507-1.4-29.177 22.401 0 0 14.177-18.667 30.837-16.8l-1.66-5.601zM386.642 102.688s8.33-14.469 34.159-13.534-24.168 6.535-30.838 18.202c0 0-6.244-.468-3.32-4.668zM487.877 96.163s29.163-11.668 37.491 20.068-10.416-24.267-34.994-15.4l-2.498-4.668zM320.395 122.296s-29.589-12.135-48.334 8.398 28.751-16.335 44.589-3.266c0 0 5.406-3.735 3.746-5.132z"/><path fill-rule="evenodd" fill="#e20157" d="M413.607 134.68c-.118.248-1.704-.66-3.658-2.813-1.954-2.124-4.393-5.348-6.67-9.243-2.278-3.894-3.952-7.758-4.525-10.852-.294-1.537-.265-2.892.013-3.77.279-.89.705-1.197.779-1.12.102.084-.103.499-.147 1.272-.044.77.088 1.91.5 3.282.793 2.751 2.556 6.372 4.774 10.165a107.789 107.789 0 0 0 6.141 9.368c1.69 2.315 2.894 3.508 2.791 3.71zM437.875 113.441c-.132.22-1.572-.607-3.702-2.202-2.145-1.572-4.98-3.926-8.286-6.106-3.29-2.197-6.523-3.536-8.961-3.781-2.44-.283-3.982.237-4.055-.045-.088-.192 1.396-1.22 4.114-1.272 2.703-.09 6.332 1.198 9.74 3.487 3.438 2.273 6.185 4.824 8.154 6.66 1.94 1.86 3.115 3.047 2.997 3.26zM439.107 103.154c-.235.155-1.058-1.413-2.997-3.153-1.91-1.76-5.069-3.434-8.83-4.367-3.746-.966-7.287-1.28-9.843-1.556-2.57-.255-4.172-.459-4.172-.724 0-.25 1.601-.513 4.202-.594 2.6-.057 6.243.041 10.196 1.055 3.937.97 7.36 3.01 9.24 5.207 1.91 2.182 2.366 4.058 2.204 4.132zM544.104 97.062c-.147.204-2.6-1.961-7.331-3.694-4.701-1.796-11.49-3.282-19.07-3.943-7.595-.669-14.515-.45-19.452.233-2.468.334-4.436.797-5.773 1.208s-2.043.752-2.101.63c-.06-.101.573-.673 1.895-1.314 1.307-.64 3.29-1.319 5.803-1.827 4.995-1.037 12.047-1.47 19.745-.792 7.713.672 14.633 2.396 19.364 4.569 4.775 2.113 7.096 4.764 6.92 4.93zM524.596 37.906c.058.263-2.997 1.266-7.228 4.447-4.26 3.113-9.668 8.251-14.986 14.623-5.333 6.37-9.608 12.713-12.164 17.624-1.279 2.454-2.101 4.559-2.454 6.067-.382 1.511-.191 2.372-.323 2.413-.088.061-.514-.862-.309-2.55.177-1.668.867-3.954 2.057-6.559 2.365-5.22 6.567-11.801 11.974-18.272 5.406-6.473 11.048-11.563 15.573-14.468 4.525-2.982 7.83-3.566 7.86-3.326zM474.927 73.293c-.206.027-.558-1.068-.47-2.918.059-1.838.72-4.358 1.983-6.732a26.43 26.43 0 0 1 3.879-5.454c1.131-1.23 1.94-1.866 2.115-1.697.177.175-.323 1.128-1.219 2.553-.881 1.428-2.16 3.332-3.335 5.544-1.175 2.21-1.91 4.355-2.262 5.98-.368 1.62-.441 2.705-.69 2.724zM314.969 117.17c-.133.044-.338-.74-1.338-1.615-.969-.897-2.615-1.874-4.774-2.81-4.305-1.879-10.563-3.631-17.557-5.129-7.007-1.488-13.398-2.462-18.04-2.982-2.322-.258-4.203-.393-5.495-.431-1.308-.05-1.998.05-2.042-.079-.03-.117.675-.472 2.012-.645 1.323-.186 3.233-.253 5.598-.16 4.716.187 11.21.96 18.276 2.464 7.067 1.514 13.384 3.494 17.718 5.752 2.16 1.12 3.82 2.337 4.745 3.495.97 1.154 1 2.15.897 2.14zM318.298 109.213c-.22.114-.852-.989-1.984-2.64a45.832 45.832 0 0 0-4.848-5.96c-4.158-4.284-8.036-7.256-7.757-7.735.205-.39 4.54 1.887 8.903 6.37 2.16 2.246 3.79 4.689 4.701 6.61.91 1.925 1.175 3.258.984 3.355zM324.123 98.494c-.235.095-1.175-2.528-3.173-6.453-1.998-3.909-5.113-9.142-9.506-13.901-4.378-4.79-9.27-7.883-13.06-9.224-3.79-1.386-6.347-1.384-6.347-1.689-.013-.204 2.6-.696 6.67.42 4.07 1.068 9.358 4.17 13.884 9.15 4.583 4.947 7.624 10.475 9.402 14.632 1.778 4.181 2.321 6.996 2.13 7.065zM379.118 112.476c.044.235-1.66.85-4.01 2.746-2.35 1.853-5.422 4.781-8.257 8.548-2.835 3.752-4.775 7.713-5.318 10.798-.603 3.092.132 5.052-.132 5.144-.089.048-.397-.372-.691-1.285-.294-.905-.514-2.333-.338-4.063.294-3.494 2.233-7.88 5.201-11.795 2.968-3.938 6.288-6.816 8.918-8.464 2.63-1.697 4.613-1.912 4.628-1.63zM431.317 130.652c-.176.196-1.425-.856-3.496-2.403-2.072-1.573-5.054-3.494-8.345-5.796-3.306-2.28-6.097-5.001-7.522-7.486-1.44-2.465-1.749-4.276-1.572-4.348.235-.12.925 1.466 2.512 3.551 1.572 2.115 4.231 4.453 7.478 6.708 3.247 2.263 6.215 4.432 8.154 6.318 1.954 1.864 2.938 3.278 2.791 3.456zM377.62 148.462c-.22.002-.455-2.077-.47-5.452-.013-3.375.265-8.038.896-13.123.485-5.35 2.821-9.544 4.246-12.404 1.514-2.878 2.307-4.725 2.527-4.64.206.076-.22 2.16-1.469 5.236-1.19 3.08-3.217 7.124-3.658 12.056a398.963 398.963 0 0 0-1.366 12.937c-.28 3.32-.456 5.39-.706 5.39z"/></svg>