<svg xmlns="http://www.w3.org/2000/svg" viewBox="0 0 744.09 1052.4"><path fill="#252413" d="M521.775 347.405s22.534 7.89 26.766 31.564c4.232 23.67-55.657 80.52-75.38 113.661-19.72 33.141-27.474 53.619-26.058 59.931 1.398 6.314 28.183 50.503 16.906 50.503-11.277 0-107.084 7.893-121.158 4.738-14.092-3.157-14.092-137.302-11.277-165.71 2.814-28.407 44.954-108.186 93.375-121.744 12.598-3.528 94.009 12.85 96.824 27.054z"/><path fill="#bd0179" d="M425.94 328.23s10.09 4.518 13.115 16.943c3.025 12.424 10.53 19.727 18.15 21.462 7.601 1.73 59.489 6.777 59.489 6.777s-23.187 37.275-40.342 60.998c-17.135 23.72-40.322 103.917-38.311 109.57 2.01 5.645 6.146 38.05 6.146 38.05L343.25 595.936s-14.111-66.646-12.1-81.328c2.029-14.682 8.08-71.158 14.129-81.327 6.05-10.166 23.186-50.829 33.276-66.642 10.09-15.816 46.39-45.185 47.389-38.406z"/><path fill="#de6ea6" d="M450.018 380.29c3.216 2.25 23.932 13.55 16.83 15.322-7.104 1.767-21.827-.296-19.99 6.778 1.838 7.073 13.94 14.435 3.409 16.205-10.512 1.77-22.88 6.188-23.665 11.492-.785 5.303-3.676 20.921-4.997 21.215-1.322.296-58.933-25.043-58.933-25.043-12.35-1.18 22.63-16.798 24.469-21.512 1.838-4.714 1.838-25.93 1.838-25.93s13.422-8.546 15.796-10.903c2.355-2.357 36.818 6.483 45.24 12.377z"/><path fill="#930c7a" d="M479.952 397.817s-8.328 33.113-30.499 62.092c-22.172 28.974-25.848 67.262-22.172 73.475 3.696 6.208 6.471 38.287 3.696 38.287-2.757 0-80.356 13.45-88.686 10.346-8.31-3.101 8.329-10.348 8.329-10.348s40.647-6.207 50.815-11.38c10.148-5.175-14.8-17.59-9.247-26.905 5.533-9.317 17.557-19.663 19.394-25.872 1.857-6.21-40.647-25.87-36.013-23.8 4.614 2.068 34.176-4.141 49.874-18.63 15.7-14.484 53.57-71.4 53.57-71.4.938 14.487.938 4.139.938 4.139z"/><path fill="#26231f" d="M429.063 187.89s-10.74-27.912-24.737-15.12-23.684 26.36-3.676 44.876c.517.484 2.642-3.94 2.642-3.94s17.538-21.08 25.771-25.814z"/><path fill="#f09b75" d="M423.597 191.47s-7.793-24.518-18.457-13.926-14.207 10.908.478 32.112c.422.6 0 0 0 0s7.678-14.745 17.979-18.186z"/><path fill="#26231f" d="M605.289 277.323s27.647-11.451 28.183 8.774-4.059 39.571-29.638 34.77c-.67-.125.919-4.82.919-4.82s2.738-28.646.536-38.724z"/><path fill="#f09b75" d="M606.46 284.294s21.635-9.469 21.482 6.501 1.934 19.163-21.98 20.62c-.67.043 0 0 0 0s4.92-16.15.498-27.12z"/><path fill="#26231f" d="M400.256 219.813c-16.58 40.671 4.404 92.386 47.484 123.722 6.03 4.382 9.133 14.492 15.987 17.988 7.793 3.991 19.05 1.027 26.92 3.365 48.325 14.372 95.384-1.894 111.622-41.75 18.898-46.352-11.009-107.055-66.802-135.589-55.775-28.526-116.313-14.09-135.21 32.265z"/><path fill="#f4b891" d="M408.282 222.264c-15.585 38.26 3.676 86.668 43.575 115.822 5.571 4.071 9.324 11.5 15.662 14.746 7.237 3.7 16.791 2.888 24.105 5.04 44.841 13.204 88.646-2.328 103.926-39.826 17.768-43.605-9.745-100.386-61.44-126.837-51.714-26.449-108.061-12.546-125.831 31.056z"/><path fill="#26231f" d="M466.894 217.947c1.283 5.59 7.007 13.505 11.909 14.726l-11.91-14.726z"/><path fill="#26231f" d="M478.781 232.676c-.057 1.512-5.514.702-9.056-4.252-3.695-4.7-4.097-10.298-2.853-10.478 1.207-.235 3.083 3.332 6.165 7.276 3.006 4.082 5.84 6.095 5.744 7.454zM475.484 216.047c-.517 5.818 2.776 13.201 6.797 16.808l-6.797-16.808z"/><path fill="#26231f" d="M482.295 232.858c-.555 1.083-4.71-1.202-7.065-6.52-2.202-5.468-.804-10.656.268-10.292 1.34.308 1.991 3.921 3.696 8.21 1.876 4.217 3.848 7.369 3.101 8.602z"/><path fill="#26231f" d="M480.69 216.633c-2.087 4.777-.479 11.764 2.987 15.228l-2.987-15.228z"/><path fill="#26231f" d="M483.64 231.865c-.555 1.078-4.442-1.24-5.705-6.562-.996-5.469 1.876-9.473 2.718-8.667 1.168.838.881 3.852 1.551 7.561.881 3.674 2.24 6.438 1.436 7.668z"/><path fill="#26231f" d="M474.182 231.566c-.785 4.174 1.877 8.354 5.974 9.331 4.116.987 8.08-1.6 8.884-5.77.785-4.173-1.896-8.34-5.993-9.322-4.097-.986-8.06 1.594-8.865 5.76zM553.228 256.151c-4.614 2.572-13.708 2.908-17.748-.433l17.748.433z"/><path fill="#26231f" d="M535.484 255.722c.977-1.096 4.155-.073 8.807-.032 4.653-.101 8.233-.803 8.942.465.67 1.036-3.35 4.345-8.942 4.433-5.686.06-9.726-4-8.807-4.866zM548.89 247.63c-3.58 4.256-10.722 6.29-15.796 5.25l15.796-5.25z"/><path fill="#26231f" d="M533.055 252.876c.344-1.44 3.771-1.825 7.85-2.988 4.001-1.368 6.873-3.183 7.945-2.258.958.673-1.627 5.259-6.759 6.972-5.13 1.489-9.381-.538-9.036-1.726z"/><path fill="#26231f" d="M545.072 243.622c-1.857 4.898-7.62 8.105-12.215 7.45l12.215-7.45z"/><path fill="#26231f" d="M532.881 251.067c.306-1.485 3.044-2.156 6.108-3.805 2.929-1.877 4.767-4.088 6.107-3.646 1.11.193.287 5.244-4.059 7.976-4.422 2.415-8.52.65-8.156-.525z"/><path fill="#26231f" d="M539.258 258.889c-2.297 3.41-6.873 3.88-10.204 1.055-3.351-2.825-4.213-7.873-1.915-11.283 2.298-3.406 6.854-3.867 10.205-1.047 3.35 2.829 4.212 7.876 1.914 11.275z"/><path fill="#f4b891" d="M421.124 211.04c-9.133 9.128-4.844 31.192 9.554 49.267 14.417 18.08 33.487 25.346 42.62 16.219s2.66-31.16-11.756-49.246c-14.398-18.081-31.285-25.37-40.418-16.238z"/><path fill="#f4b791" d="M421.34 211.21c-9.074 9.06-4.824 30.949 9.459 48.88 14.302 17.932 33.219 25.136 42.275 16.075 9.075-9.064 2.66-30.923-11.622-48.864-14.283-17.932-31.055-25.158-40.112-16.091z"/><path fill="#f4b791" d="M421.558 211.375c-9 8.995-4.806 30.708 9.362 48.49 14.168 17.786 32.95 24.924 41.95 15.93 8.998-8.994 2.642-30.681-11.527-48.472-14.168-17.786-30.806-24.945-39.785-15.947z"/><path fill="#f4b690" d="M421.775 211.54c-8.923 8.926-4.768 30.465 9.285 48.1 14.054 17.637 32.683 24.711 41.605 15.785 8.941-8.927 2.661-30.44-11.392-48.083-14.053-17.64-30.557-24.733-39.498-15.803z"/><path fill="#f4b590" d="M421.991 211.704c-8.864 8.86-4.748 30.226 9.19 47.714 13.939 17.492 32.415 24.499 41.28 15.64s2.642-30.2-11.296-47.697c-13.92-17.49-30.309-24.521-39.174-15.656z"/><path fill="#f4b490" d="M422.252 211.874c-8.808 8.792-4.73 29.984 9.094 47.327 13.824 17.344 32.147 24.287 40.935 15.494 8.807-8.794 2.642-29.96-11.162-47.31-13.824-17.344-30.079-24.308-38.867-15.512z"/><path fill="#f3b490" d="M422.469 212.043c-8.73 8.723-4.71 29.744 8.998 46.937 13.69 17.198 31.86 24.074 40.61 15.352 8.73-8.725 2.642-29.72-11.067-46.924-13.69-17.198-29.83-24.097-38.541-15.365z"/><path fill="#f3b38f" d="M422.686 212.208c-8.655 8.658-4.672 29.503 8.922 46.55 13.575 17.05 31.61 23.864 40.265 15.206 8.673-8.657 2.642-29.479-10.933-46.533-13.575-17.051-29.58-23.885-38.254-15.223z"/><path fill="#f3b28e" d="M422.903 212.372c-8.597 8.59-4.653 29.262 8.826 46.161 13.46 16.904 31.323 23.652 39.92 15.06 8.616-8.591 2.642-29.239-10.818-46.148-13.46-16.904-29.331-23.673-37.928-15.076z"/><path fill="#f2b18f" d="M423.12 212.537c-8.54 8.525-4.634 29.021 8.73 45.775 13.345 16.756 31.055 23.437 39.595 14.914 8.539-8.523 2.623-28.996-10.703-45.757-13.345-16.756-29.102-23.46-37.622-14.932z"/><path fill="#f2b18d" d="M423.336 212.706c-8.462 8.458-4.595 28.78 8.636 45.389 13.23 16.609 30.806 23.225 39.269 14.769 8.481-8.455 2.641-28.757-10.589-45.371-13.23-16.61-28.853-23.247-37.316-14.785z"/><path fill="#f3b08e" d="M423.597 212.871c-8.386 8.39-4.576 28.54 8.539 44.998 13.115 16.463 30.538 23.015 38.944 14.627 8.405-8.39 2.623-28.518-10.473-44.985-13.116-16.46-28.624-23.034-37.01-14.64z"/><path fill="#f3af8e" d="M423.814 213.04c-8.329 8.324-4.557 28.3 8.443 44.612 13 16.317 30.27 22.803 38.599 14.481 8.348-8.323 2.642-28.276-10.359-44.594-12.981-16.314-28.355-22.823-36.684-14.496z"/><path fill="#f3ae8e" d="M424.03 213.205c-8.27 8.257-4.537 28.059 8.348 44.222 12.886 16.169 30.003 22.59 38.274 14.336 8.271-8.256 2.623-28.037-10.243-44.209-12.886-16.167-28.126-22.61-36.378-14.35z"/><path fill="#f3ae8d" d="M424.247 213.37c-8.194 8.19-4.499 27.816 8.272 43.835 12.751 16.022 29.734 22.378 37.928 14.19 8.214-8.188 2.623-27.793-10.128-43.818-12.752-16.018-27.877-22.398-36.072-14.204z"/><path fill="#f2ac8d" d="M424.464 213.535c-8.137 8.122-4.48 27.578 8.176 43.445 12.636 15.875 29.466 22.167 37.603 14.046 8.137-8.12 2.623-27.553-10.033-43.432-12.636-15.871-27.628-22.184-35.746-14.06z"/><path fill="#f2ac8c" d="M424.725 213.704c-8.061 8.055-4.462 27.335 8.08 43.058 12.521 15.73 29.197 21.954 37.258 13.902 8.08-8.055 2.623-27.312-9.899-43.046-12.521-15.725-27.379-21.973-35.44-13.913z"/><path fill="#f1ab8c" d="M424.898 213.874c-7.984 7.986-4.422 27.092 8.003 42.669 12.407 15.581 28.93 21.74 36.933 13.756 7.984-7.986 2.604-27.072-9.803-42.656-12.387-15.579-27.13-21.762-35.133-13.77z"/><path fill="#f1ab8c" d="M425.159 214.038c-7.927 7.921-4.404 26.855 7.907 42.283 12.273 15.434 28.662 21.53 36.588 13.61 7.926-7.92 2.623-26.832-9.669-42.269-12.292-15.431-26.9-21.55-34.827-13.624z"/><path fill="#f2a98a" d="M425.375 214.203c-7.869 7.854-4.365 26.612 7.793 41.895 12.177 15.285 28.413 21.316 36.282 13.465 7.85-7.853 2.604-26.593-9.573-41.882-12.158-15.283-26.652-21.336-34.502-13.478z"/><path fill="#f2a88b" d="M425.592 214.368c-7.792 7.787-4.327 26.373 7.716 41.506 12.062 15.141 28.145 21.106 35.938 13.321 7.792-7.786 2.604-26.35-9.44-41.494-12.042-15.134-26.402-21.122-34.214-13.333z"/><path fill="#f2a88a" d="M425.81 214.537c-7.736 7.718-4.309 26.13 7.62 41.118 11.946 14.994 27.876 20.894 35.611 13.177 7.716-7.721 2.604-26.112-9.343-41.106-11.928-14.99-26.154-20.913-33.89-13.19z"/><path fill="#f2a78a" d="M426.026 214.706c-7.658 7.653-4.289 25.892 7.525 40.732 11.813 14.846 27.608 20.681 35.267 13.03 7.659-7.651 2.604-25.869-9.21-40.718-11.813-14.84-25.923-20.7-33.582-13.044z"/><path fill="#f1a689" d="M426.286 214.871c-7.6 7.584-4.27 25.648 7.43 40.343 11.698 14.698 27.34 20.47 34.922 12.885 7.6-7.583 2.604-25.627-9.095-40.33-11.698-14.695-25.675-20.486-33.257-12.898z"/><path fill="#f0a589" d="M426.503 215.036c-7.524 7.52-4.23 25.409 7.353 39.956 11.583 14.55 27.073 20.257 34.597 12.738 7.524-7.515 2.604-25.385-8.98-39.941-11.583-14.546-25.445-20.274-32.97-12.753z"/><path fill="#f0a48a" d="M426.72 215.201c-7.467 7.45-4.212 25.166 7.257 39.566 11.468 14.404 26.805 20.046 34.252 12.596 7.468-7.45 2.604-25.147-8.864-39.556-11.45-14.399-25.178-20.06-32.645-12.606z"/><path fill="#f0a488" d="M426.937 215.37c-7.41 7.386-4.193 24.928 7.16 39.18 11.354 14.256 26.537 19.832 33.928 12.45 7.39-7.382 2.585-24.906-8.75-39.166-11.353-14.252-24.947-19.849-32.338-12.463z"/><path fill="#f0a388" d="M427.154 215.54c-7.333 7.317-4.174 24.685 7.065 38.79 11.22 14.108 26.25 19.62 33.583 12.305 7.333-7.316 2.604-24.664-8.635-38.778-11.22-14.106-24.699-19.637-32.013-12.318z"/><path fill="#f0a288" d="M427.371 215.704c-7.256 7.25-4.136 24.445 6.988 38.403 11.105 13.962 26 19.41 33.257 12.158 7.257-7.247 2.585-24.424-8.52-38.39-11.124-13.957-24.469-19.426-31.725-12.17z"/><path fill="#f0a187" d="M427.631 215.87c-7.199 7.183-4.116 24.201 6.893 38.013 10.99 13.816 25.714 19.198 32.913 12.015 7.199-7.181 2.584-24.184-8.406-38.003-10.99-13.808-24.22-19.212-31.4-12.026z"/><path fill="#f0a187" d="M427.848 216.034c-7.141 7.115-4.097 23.962 6.778 37.626 10.894 13.668 25.465 18.985 32.606 11.87 7.123-7.113 2.585-23.943-8.29-37.616-10.875-13.662-23.97-18.999-31.093-11.88z"/><path fill="#f09f87" d="M428.065 216.203c-7.065 7.048-4.059 23.721 6.701 37.24 10.76 13.52 25.197 18.772 32.262 11.724 7.065-7.047 2.584-23.703-8.176-37.227-10.76-13.517-23.722-18.789-30.787-11.737z"/><path fill="#ef9e86" d="M428.282 216.372c-6.988 6.981-4.04 23.481 6.606 36.851 10.645 13.375 24.928 18.56 31.936 11.58 6.988-6.98 2.565-23.461-8.061-36.84-10.645-13.369-23.493-18.576-30.48-11.59z"/><path fill="#ef9c86" d="M428.5 216.537c-6.932 6.914-4.022 23.24 6.509 36.465 10.53 13.226 24.66 18.345 31.591 11.433s2.585-23.22-7.946-36.452c-10.511-13.222-23.243-18.362-30.155-11.446z"/><path fill="#ef9c86" d="M428.716 216.702c-6.854 6.847-3.982 22.998 6.433 36.074 10.416 13.08 24.392 18.137 31.266 11.29 6.855-6.844 2.566-22.981-7.85-36.064-10.396-13.074-22.975-18.15-29.849-11.3z"/><path fill="#ef9b85" d="M428.976 216.867c-6.797 6.782-3.963 22.76 6.338 35.688 10.281 12.932 24.124 17.925 30.92 11.146 6.798-6.78 2.567-22.74-7.715-35.676-10.282-12.93-22.746-17.94-29.543-11.158z"/><path fill="#ef9b84" d="M429.193 217.036c-6.74 6.713-3.944 22.517 6.242 35.3 10.166 12.786 23.856 17.71 30.576 11 6.74-6.711 2.585-22.5-7.6-35.292-10.167-12.778-22.497-17.723-29.218-11.008z"/><path fill="#ef9b84" d="M429.41 217.201c-6.663 6.648-3.925 22.276 6.146 34.912 10.052 12.64 23.588 17.499 30.251 10.855s2.566-22.258-7.486-34.901c-10.052-12.632-22.267-17.514-28.91-10.866z"/><path fill="#ef9983" d="M429.627 217.375c-6.586 6.578-3.887 22.035 6.07 34.524 9.936 12.49 23.32 17.286 29.906 10.708 6.605-6.575 2.565-22.017-7.372-34.513-9.917-12.485-22.018-17.302-28.604-10.72z"/><path fill="#ef9883" d="M429.844 217.54c-6.529 6.511-3.868 21.792 5.954 34.133 9.823 12.345 23.072 17.076 29.6 10.565 6.53-6.51 2.566-21.775-7.256-34.125-9.822-12.337-21.77-17.089-28.298-10.573z"/><path fill="#ee9783" d="M430.104 217.704c-6.471 6.445-3.848 21.555 5.859 33.747 9.707 12.197 22.803 16.864 29.255 10.422 6.472-6.443 2.566-21.537-7.141-33.738-9.688-12.192-21.52-16.877-27.973-10.43z"/><path fill="#ee9783" d="M430.278 217.87c-6.395 6.377-3.791 21.311 5.782 33.358 9.592 12.049 22.535 16.651 28.93 10.276 6.395-6.377 2.546-21.298-7.027-33.35-9.592-12.046-21.29-16.666-27.685-10.284z"/><path fill="#ee9682" d="M430.538 218.038c-6.318 6.311-3.772 21.074 5.686 32.973 9.478 11.9 22.268 16.439 28.586 10.129 6.337-6.308 2.565-21.057-6.912-32.963-9.458-11.896-21.042-16.451-27.36-10.14z"/><path fill="#ed9482" d="M430.755 218.203c-6.26 6.244-3.753 20.829 5.59 32.582 9.344 11.755 22 16.227 28.26 9.986s2.547-20.815-6.797-32.575c-9.343-11.75-20.792-16.238-27.053-9.993z"/><path fill="#ed9482" d="M430.972 218.372c-6.204 6.179-3.734 20.59 5.495 32.196 9.229 11.609 21.731 16.014 27.915 9.84 6.203-6.175 2.546-20.574-6.682-32.187-9.229-11.602-20.544-16.027-26.728-9.849z"/><path fill="#ee9482" d="M431.189 218.537c-6.127 6.11-3.695 20.348 5.418 31.807 9.114 11.461 21.463 15.805 27.59 9.697s2.546-20.337-6.567-31.8c-9.114-11.454-20.314-15.815-26.441-9.704z"/><path fill="#ee9282" d="M431.45 218.706c-6.07 6.043-3.677 20.11 5.322 31.42 8.999 11.314 21.195 15.59 27.245 9.551 6.07-6.039 2.547-20.093-6.452-31.411-8.999-11.308-20.065-15.602-26.115-9.56z"/><path fill="#ed9182" d="M431.666 218.871c-5.993 5.976-3.657 19.867 5.227 31.032 8.865 11.166 20.927 15.378 26.92 9.405 5.992-5.973 2.527-19.852-6.338-31.024-8.883-11.16-19.835-15.39-25.809-9.413z"/><path fill="#ed9181" d="M431.883 219.036c-5.916 5.909-3.619 19.628 5.15 30.644 8.75 11.021 20.64 15.167 26.575 9.26 5.936-5.904 2.547-19.61-6.222-30.636-8.75-11.013-19.568-15.178-25.503-9.268z"/><path fill="#ed9081" d="M432.1 219.205c-5.859 5.842-3.6 19.384 5.055 30.256 8.635 10.873 20.371 14.955 26.25 9.115 5.858-5.838 2.526-19.371-6.108-30.247-8.655-10.866-19.338-14.967-25.197-9.124z"/><path fill="#ed8e81" d="M432.317 219.375c-5.801 5.772-3.58 19.143 4.94 29.866 8.539 10.726 20.122 14.743 25.924 8.971s2.527-19.13-5.993-29.863c-8.52-10.717-19.089-14.751-24.87-8.974z"/><path fill="#ed8d80" d="M432.534 219.535c-5.725 5.707-3.542 18.905 4.863 29.48 8.405 10.578 19.855 14.531 25.58 8.826 5.743-5.705 2.546-18.89-5.878-29.473-8.386-10.57-18.84-14.542-24.565-8.833z"/><path fill="#ed8d80" d="M432.75 219.704c-5.647 5.64-3.522 18.662 4.768 29.09 8.29 10.434 19.587 14.32 25.254 8.682 5.648-5.637 2.527-18.65-5.763-29.086-8.29-10.424-18.591-14.328-24.258-8.686z"/><path fill="#ed8c7f" d="M433.011 219.87c-5.59 5.572-3.504 18.42 4.672 28.702 8.175 10.286 19.318 14.106 24.909 8.536 5.61-5.57 2.527-18.408-5.648-28.698-8.156-10.275-18.342-14.114-23.933-8.54z"/><path fill="#ed8a7f" d="M433.228 220.038c-5.533 5.507-3.485 18.181 4.576 28.315 8.06 10.138 19.05 13.894 24.584 8.39 5.514-5.5 2.527-18.168-5.533-28.308-8.042-10.129-18.113-13.905-23.627-8.397z"/><path fill="#ed8a7e" d="M433.445 220.203c-5.457 5.44-3.446 17.94 4.5 27.929 7.926 9.99 18.782 13.683 24.238 8.246 5.457-5.437 2.528-17.93-5.418-27.923-7.927-9.982-17.863-13.691-23.32-8.252z"/><path fill="#eb897d" d="M433.662 220.368c-5.4 5.37-3.427 17.698 4.403 27.54 7.812 9.842 18.515 13.469 23.914 8.1 5.38-5.367 2.508-17.688-5.303-27.534-7.812-9.836-17.634-13.48-23.014-8.105z"/><path fill="#eb877c" d="M433.879 220.533c-5.323 5.305-3.408 17.46 4.308 27.151 7.696 9.697 18.246 13.259 23.569 7.957s2.527-17.447-5.189-27.147c-7.697-9.687-17.366-13.266-22.688-7.961z"/><path fill="#eb877c" d="M434.096 220.702c-5.246 5.236-3.37 17.217 4.231 26.763 7.582 9.549 17.978 13.047 23.243 7.811 5.246-5.233 2.509-17.205-5.073-26.76-7.582-9.54-17.136-13.052-22.401-7.814z"/><path fill="#eb867b" d="M434.356 220.871c-5.189 5.171-3.35 16.977 4.135 26.377 7.468 9.4 17.71 12.834 22.9 7.665 5.188-5.167 2.508-16.965-4.96-26.37-7.447-9.394-16.886-12.843-22.075-7.672z"/><path fill="#ea847b" d="M434.573 221.036c-5.131 5.104-3.332 16.736 4.02 25.989 7.353 9.254 17.462 12.62 22.593 7.521 5.112-5.102 2.508-16.725-4.844-25.984-7.352-9.247-16.657-12.63-21.769-7.526z"/><path fill="#ea837b" d="M434.79 221.201c-5.055 5.035-3.293 16.493 3.944 25.6s17.193 12.409 22.248 7.375c5.054-5.033 2.508-16.484-4.73-25.596-7.218-9.099-16.389-12.418-21.463-7.379z"/><path fill="#ea837b" d="M435.007 221.366c-4.997 4.97-3.274 16.255 3.848 25.213s16.925 12.197 21.922 7.23c4.978-4.965 2.49-16.243-4.614-25.209-7.122-8.949-16.16-12.204-21.157-7.234z"/><path fill="#ea8179" d="M435.224 221.535c-4.921 4.901-3.236 16.013 3.752 24.823 7.008 8.813 16.658 11.985 21.578 7.086 4.92-4.898 2.508-16.004-4.5-24.82-6.987-8.804-15.91-11.994-20.83-7.089z"/><path fill="#ea8078" d="M435.484 221.704c-4.863 4.836-3.217 15.772 3.657 24.437 6.873 8.667 16.389 11.772 21.252 6.94 4.844-4.832 2.489-15.761-4.384-24.433-6.874-8.655-15.681-11.78-20.525-6.944z"/><path fill="#ea8078" d="M435.657 221.87c-4.786 4.766-3.178 15.528 3.58 24.047 6.76 8.519 16.122 11.56 20.908 6.796 4.787-4.765 2.49-15.523-4.27-24.046-6.758-8.51-15.43-11.567-20.217-6.798z"/><path fill="#ea7e77" d="M435.918 222.034c-4.73 4.7-3.16 15.289 3.484 23.657 6.644 8.373 15.853 11.35 20.564 6.653 4.729-4.696 2.508-15.28-4.136-23.658-6.644-8.363-15.183-11.356-19.912-6.652z"/><path fill="#ea7d78" d="M436.135 222.199c-4.672 4.633-3.14 15.048 3.389 23.27 6.528 8.226 15.584 11.138 20.237 6.508 4.653-4.63 2.49-15.041-4.04-23.27-6.528-8.215-14.934-11.143-19.586-6.508z"/><path fill="#e97c77" d="M436.352 222.368c-4.577 4.568-3.102 14.81 3.312 22.885 6.395 8.077 15.298 10.925 19.893 6.361 4.595-4.564 2.489-14.8-3.906-22.88-6.414-8.07-14.704-10.932-19.3-6.365z"/><path fill="#e97c77" d="M436.568 222.537c-4.518 4.501-3.082 14.568 3.217 22.497 6.28 7.93 15.03 10.712 19.568 6.215 4.518-4.496 2.489-14.559-3.81-22.493-6.28-7.922-14.456-10.72-18.975-6.219z"/><path fill="#e97a76" d="M436.785 222.698c-4.46 4.434-3.063 14.327 3.102 22.11 6.185 7.783 14.781 10.498 19.242 6.071 4.461-4.43 2.49-14.32-3.676-22.107-6.184-7.773-14.206-10.508-18.668-6.074z"/><path fill="#e97a76" d="M437.046 222.867c-4.404 4.365-3.045 14.086 3.006 21.72 6.07 7.637 14.512 10.287 18.916 5.927 4.384-4.362 2.47-14.08-3.58-21.72-6.05-7.625-13.958-10.294-18.342-5.927z"/><path fill="#e87975" d="M437.263 223.032c-4.327 4.3-3.006 13.845 2.93 21.333 5.934 7.489 14.244 10.078 18.57 5.782 4.328-4.296 2.49-13.838-3.465-21.332-5.916-7.478-13.708-10.081-18.035-5.783z"/><path fill="#e87975" d="M437.48 223.201c-4.25 4.23-2.987 13.603 2.833 20.945s13.977 9.863 18.247 5.636c4.25-4.227 2.47-13.597-3.35-20.944-5.821-7.331-13.48-9.87-17.73-5.636z"/><path fill="#e87875" d="M437.696 223.37c-4.193 4.164-2.967 13.363 2.738 20.556 5.706 7.194 13.709 9.651 17.902 5.49 4.193-4.16 2.47-13.355-3.236-20.554-5.686-7.184-13.23-9.658-17.404-5.492z"/><path fill="#e87775" d="M437.913 223.535c-4.116 4.097-2.929 13.122 2.662 20.168 5.59 7.047 13.44 9.44 17.576 5.346 4.116-4.092 2.47-13.115-3.12-20.167-5.592-7.037-12.982-9.444-17.118-5.347z"/><path fill="#e87673" d="M438.13 223.7c-4.059 4.03-2.91 12.88 2.566 19.779 5.457 6.901 13.173 9.228 17.232 5.203 4.059-4.028 2.47-12.877-3.006-19.782-5.457-6.888-12.733-9.232-16.792-5.2z"/><path fill="#e87673" d="M438.39 223.87c-4 3.962-2.89 12.636 2.47 19.39 5.342 6.753 12.905 9.016 16.887 5.057 4.002-3.961 2.47-12.634-2.872-19.392-5.341-6.744-12.502-9.02-16.485-5.056z"/><path fill="#e87573" d="M438.608 224.034c-3.906 3.896-2.853 12.398 2.393 19.004 5.227 6.606 12.636 8.804 16.561 4.911 3.925-3.892 2.47-12.394-2.776-19.006-5.227-6.593-12.253-8.804-16.179-4.909z"/><path fill="#e87473" d="M438.824 224.203c-3.848 3.829-2.833 12.156 2.279 18.616 5.13 6.458 12.387 8.592 16.236 4.766 3.867-3.824 2.47-12.154-2.642-18.617-5.112-6.447-12.005-8.596-15.873-4.765z"/><path fill="#e87472" d="M439.041 224.368c-3.79 3.762-2.814 11.918 2.183 18.23 4.997 6.31 12.12 8.377 15.91 4.62 3.792-3.758 2.451-11.913-2.546-18.23-4.997-6.3-11.756-8.383-15.546-4.62z"/><path fill="#e87472" d="M439.258 224.533c-3.733 3.694-2.795 11.677 2.087 17.84 4.883 6.167 11.852 8.168 15.566 4.479 3.734-3.693 2.47-11.673-2.412-17.843-4.883-6.153-11.527-8.17-15.24-4.476z"/><path fill="#e87272" d="M439.475 224.698c-3.657 3.627-2.757 11.436 2.01 17.452 4.768 6.019 11.584 7.957 15.241 4.333 3.657-3.625 2.45-11.432-2.317-17.454-4.748-6.006-11.277-7.959-14.934-4.331z"/><path fill="#e87171" d="M439.736 224.867c-3.58 3.56-2.72 11.194 1.914 17.066 4.653 5.87 11.316 7.742 14.896 4.186 3.6-3.555 2.45-11.19-2.183-17.065-4.652-5.86-11.047-7.748-14.627-4.187z"/><path fill="#e86f70" d="M439.952 225.032c-3.522 3.493-2.718 10.953 1.82 16.677 4.518 5.722 11.047 7.53 14.57 4.04 3.522-3.489 2.45-10.949-2.087-16.677-4.519-5.712-10.78-7.534-14.303-4.04z"/><path fill="#e86f70" d="M440.17 225.201c-3.466 3.427-2.7 10.71 1.723 16.289 4.403 5.576 10.779 7.318 14.225 3.895 3.466-3.423 2.45-10.709-1.972-16.29-4.384-5.565-10.53-7.32-13.977-3.894z"/><path fill="#e86e70" d="M440.386 225.37c-3.389 3.36-2.642 10.472 1.647 15.9 4.289 5.43 10.511 7.108 13.9 3.752 3.389-3.353 2.432-10.468-1.857-15.903-4.289-5.416-10.3-7.108-13.69-3.749z"/><path fill="#e76d6f" d="M440.603 225.535c-3.331 3.292-2.623 10.23 1.551 15.512 4.174 5.283 10.243 6.893 13.555 3.607 3.332-3.287 2.451-10.228-1.742-15.517-4.155-5.267-10.052-6.895-13.364-3.602z"/><path fill="#e76c6f" d="M440.864 225.7c-3.255 3.223-2.604 9.99 1.455 15.124 4.04 5.134 9.956 6.683 13.23 3.461 3.235-3.221 2.431-9.987-1.628-15.127-4.059-5.123-9.803-6.683-13.058-3.458z"/><path fill="#e76c6f" d="M441.037 225.87c-3.178 3.158-2.566 9.746 1.379 14.734 3.925 4.989 9.707 6.473 12.885 3.318 3.197-3.153 2.432-9.746-1.512-14.74-3.925-4.974-9.555-6.471-12.752-3.313z"/><path fill="#e76a6f" d="M441.297 226.038c-3.12 3.09-2.546 9.506 1.264 14.347 3.83 4.84 9.44 6.258 12.56 3.172 3.121-3.086 2.45-9.505-1.378-14.352-3.81-4.827-9.324-6.26-12.446-3.166z"/><path fill="#e7696d" d="M441.514 226.203c-3.063 3.025-2.527 9.268 1.168 13.96 3.715 4.693 9.171 6.047 12.235 3.027 3.044-3.018 2.431-9.264-1.283-13.962-3.696-4.684-9.076-6.049-12.12-3.025z"/><path fill="#e6676d" d="M441.731 226.372c-2.987 2.956-2.489 9.025 1.092 13.572 3.599 4.547 8.902 5.834 11.89 2.883 2.986-2.953 2.43-9.028-1.15-13.579-3.58-4.532-8.845-5.833-11.832-2.876z"/><path fill="#e7666d" d="M441.948 226.533c-2.91 2.89-2.47 8.786.996 13.185 3.465 4.401 8.635 5.621 11.564 2.737 2.91-2.887 2.432-8.784-1.053-13.189-3.465-4.388-8.577-5.623-11.507-2.733z"/><path fill="#e7666d" d="M442.208 226.698c-2.852 2.825-2.45 8.545.9 12.797 3.35 4.255 8.367 5.411 11.22 2.593 2.853-2.818 2.431-8.543-.92-12.802-3.35-4.239-8.347-5.41-11.2-2.588z"/><path fill="#e6656c" d="M442.425 226.867c-2.795 2.756-2.431 8.304.804 12.408 3.236 4.107 8.1 5.199 10.895 2.447 2.776-2.75 2.412-8.302-.824-12.413-3.216-4.09-8.099-5.196-10.875-2.442z"/><path fill="#f4b891" d="M597.653 293.783c-.172 13.717-17.863 24.535-39.499 24.18-21.616-.347-39.02-11.737-38.847-25.444.19-13.709 19.28-22.66 40.915-22.311 21.635.351 37.604 9.87 37.43 23.574z"/><path fill="#f4b791" d="M597.393 293.696c-.191 13.617-17.73 24.357-39.173 24.005-21.463-.343-38.714-11.647-38.542-25.256s19.127-22.502 40.571-22.154c21.463.347 37.316 9.8 37.144 23.405z"/><path fill="#f4b791" d="M597.133 293.652c-.173 13.516-17.558 24.18-38.848 23.83-21.272-.339-38.388-11.562-38.216-25.07.172-13.505 18.955-22.34 40.226-21.995 21.29.343 37.01 9.735 36.837 23.235z"/><path fill="#f4b690" d="M596.872 293.566c-.19 13.415-17.442 23.997-38.541 23.652-21.099-.337-38.063-11.475-37.91-24.881.192-13.404 18.821-22.18 39.92-21.842 21.1.341 36.685 9.668 36.531 23.071z"/><path fill="#f4b590" d="M596.612 293.479c-.173 13.317-17.27 23.819-38.197 23.478-20.927-.335-37.756-11.388-37.603-24.694.172-13.306 18.649-22.022 39.575-21.685 20.927.339 36.397 9.6 36.225 22.9z"/><path fill="#f4b490" d="M596.352 293.392c-.172 13.214-17.117 23.64-37.871 23.3-20.755-.33-37.431-11.3-37.278-24.505.172-13.207 18.476-21.863 39.23-21.529 20.755.335 36.091 9.534 35.919 22.734z"/><path fill="#f3b490" d="M596.091 293.305c-.172 13.113-16.983 23.461-37.565 23.124-20.563-.325-37.105-11.212-36.952-24.319.172-13.104 18.323-21.702 38.886-21.37 20.582.33 35.803 9.465 35.631 22.565z"/><path fill="#f3b38f" d="M595.831 293.219c-.153 13.011-16.83 23.278-37.24 22.946-20.39-.322-36.799-11.125-36.626-24.13.172-13.004 18.15-21.542 38.56-21.214 20.391.326 35.478 9.396 35.306 22.397z"/><path fill="#f3b28e" d="M595.57 293.132c-.171 12.913-16.695 23.1-36.913 22.772-20.219-.321-36.493-11.038-36.34-23.943.173-12.905 18.017-21.383 38.236-21.06 20.218.327 35.171 9.33 35.018 22.23z"/><path fill="#f2b18f" d="M595.31 293.088c-.153 12.81-16.542 22.921-36.588 22.593-20.046-.316-36.167-10.95-36.014-23.753.173-12.804 17.845-21.224 37.89-20.903 20.047.322 34.885 9.263 34.713 22.063z"/><path fill="#f2b18d" d="M595.05 293.002c-.172 12.71-16.408 22.742-36.282 22.418-19.854-.313-35.841-10.865-35.688-23.566.172-12.703 17.69-21.063 37.545-20.748 19.874.32 34.579 9.197 34.426 21.896z"/><path fill="#f3b08e" d="M594.79 292.915c-.153 12.609-16.255 22.562-35.938 22.243-19.701-.311-35.535-10.78-35.382-23.382.172-12.602 17.519-20.902 37.201-20.589 19.702.318 34.272 9.128 34.119 21.728z"/><path fill="#f3af8e" d="M594.53 292.828c-.173 12.51-16.122 22.382-35.632 22.067-19.51-.309-35.21-10.69-35.057-23.193.154-12.502 17.347-20.744 36.876-20.433 19.51.313 33.965 9.062 33.813 21.56z"/><path fill="#f3ae8e" d="M594.27 292.741c-.154 12.412-15.969 22.205-35.307 21.891-19.337-.304-34.884-10.603-34.75-23.006.172-12.399 17.212-20.583 36.55-20.274 19.338.309 33.659 8.993 33.506 21.39z"/><path fill="#f3ae8d" d="M594.009 292.655c-.172 12.308-15.834 22.023-35 21.712-19.146-.3-34.558-10.515-34.424-22.817.172-12.3 17.04-20.424 36.205-20.118 19.166.305 33.372 8.924 33.219 21.222z"/><path fill="#f2ac8d" d="M593.749 292.568c-.153 12.21-15.68 21.844-34.655 21.539-18.993-.298-34.272-10.43-34.118-22.63.153-12.2 16.886-20.264 35.86-19.964 18.993.305 33.066 8.86 32.913 21.055z"/><path fill="#f2ac8c" d="M593.488 292.524c-.153 12.107-15.527 21.664-34.329 21.362-18.802-.296-33.946-10.342-33.793-22.442.153-12.099 16.715-20.105 35.516-19.807 18.821.3 32.76 8.791 32.606 20.887z"/><path fill="#f1ab8c" d="M593.228 292.438c-.153 12.008-15.374 21.485-34.022 21.185-18.63-.292-33.621-10.254-33.468-22.256.153-11.997 16.561-19.943 35.19-19.65 18.63.298 32.454 8.725 32.3 20.72z"/><path fill="#f1ab8c" d="M592.968 292.35c-.153 11.908-15.222 21.308-33.679 21.01-18.457-.287-33.314-10.165-33.161-22.066.153-11.9 16.389-19.783 34.846-19.494 18.457.296 32.146 8.656 31.993 20.55z"/><path fill="#f2a98a" d="M592.708 292.264c-.154 11.807-15.088 21.125-33.372 20.834-18.285-.287-32.99-10.08-32.855-21.88.153-11.796 16.236-19.624 34.52-19.337 18.285.292 31.86 8.59 31.706 20.383z"/><path fill="#f2a88b" d="M592.447 292.177c-.134 11.706-14.934 20.948-33.046 20.658-18.094-.283-32.664-9.994-32.53-21.692.154-11.697 16.083-19.465 34.177-19.18 18.112.288 31.552 8.521 31.4 20.214z"/><path fill="#f2a88a" d="M592.187 292.09c-.153 11.603-14.8 20.768-32.74 20.48-17.921-.279-32.338-9.906-32.204-21.502.153-11.597 15.91-19.307 33.831-19.026 17.94.287 31.247 8.454 31.112 20.049z"/><path fill="#f2a78a" d="M591.927 292.004c-.134 11.504-14.647 20.589-32.396 20.303-17.767-.276-32.031-9.818-31.897-21.316.153-11.495 15.757-19.146 33.506-18.867 17.748.283 30.94 8.388 30.787 19.88z"/><path fill="#f1a689" d="M591.666 291.96c-.153 11.406-14.513 20.412-32.089 20.128-17.576-.272-31.706-9.73-31.572-21.127.134-11.395 15.585-18.985 33.161-18.71 17.577.278 30.635 8.318 30.5 19.709z"/><path fill="#f0a589" d="M591.406 291.874c-.134 11.302-14.36 20.229-31.763 19.952-17.404-.27-31.38-9.645-31.266-20.941.153-11.294 15.432-18.826 32.835-18.554 17.404.274 30.328 8.25 30.194 19.543z"/><path fill="#f0a48a" d="M591.146 291.787c-.153 11.202-14.226 20.048-31.457 19.774-17.213-.266-31.074-9.556-30.94-20.752.153-11.195 15.278-18.668 32.49-18.397 17.232.27 30.041 8.184 29.907 19.375z"/><path fill="#f0a488" d="M590.885 291.7c-.134 11.101-14.072 19.87-31.112 19.598-17.06-.261-30.768-9.469-30.634-20.565.134-11.093 15.106-18.505 32.165-18.239 17.04.268 29.715 8.115 29.581 19.206z"/><path fill="#f0a388" d="M590.668 291.613c-.152 11-13.938 19.689-30.806 19.42-16.867-.259-30.442-9.38-30.308-20.376.134-10.992 14.953-18.346 31.821-18.084 16.868.265 29.428 8.049 29.294 19.04z"/><path fill="#f0a288" d="M590.365 291.527c-.135 10.899-13.785 19.512-30.481 19.246-16.695-.257-30.117-9.295-29.983-20.19.134-10.893 14.78-18.188 31.476-17.928 16.696.264 29.122 7.983 28.988 18.871z"/><path fill="#f0a187" d="M590.104 291.44c-.134 10.8-13.632 19.332-30.136 19.07-16.523-.252-29.81-9.209-29.677-20.001s14.628-18.028 31.132-17.773c16.524.261 28.815 7.916 28.681 18.704z"/><path fill="#f0a187" d="M589.844 291.396c-.134 10.7-13.498 19.153-29.83 18.893-16.35-.248-29.485-9.121-29.37-19.812.134-10.694 14.475-17.87 30.806-17.617 16.351.257 28.528 7.847 28.394 18.537z"/><path fill="#f09f87" d="M589.584 291.31c-.115 10.599-13.326 18.972-29.505 18.719-16.159-.251-29.16-9.036-29.044-19.629.134-10.59 14.302-17.709 30.48-17.458 16.16.253 28.202 7.779 28.069 18.368z"/><path fill="#ef9e86" d="M589.324 291.223c-.135 10.498-13.192 18.794-29.18 18.54-16.006-.246-28.853-8.947-28.738-19.439.134-10.49 14.15-17.548 30.136-17.301 15.987.249 27.897 7.712 27.782 18.2z"/><path fill="#ef9c86" d="M589.063 291.136c-.115 10.397-13.038 18.614-28.853 18.365-15.815-.242-28.528-8.86-28.413-19.25.134-10.392 13.976-17.39 29.791-17.147 15.815.248 27.609 7.646 27.475 18.032z"/><path fill="#ef9c86" d="M588.846 291.05c-.134 10.298-12.904 18.435-28.547 18.188-15.642-.238-28.221-8.771-28.087-19.062.115-10.29 13.823-17.23 29.446-16.99 15.643.244 27.303 7.577 27.188 17.863z"/><path fill="#ef9b85" d="M588.543 290.963c-.115 10.196-12.752 18.256-28.222 18.013-15.45-.236-27.896-8.686-27.781-18.878.134-10.19 13.67-17.07 29.121-16.831 15.47.242 27.016 7.51 26.882 17.696z"/><path fill="#ef9b84" d="M588.326 290.876c-.135 10.097-12.618 18.075-27.896 17.838-15.298-.234-27.59-8.599-27.475-18.69.134-10.088 13.498-16.91 28.796-16.674 15.278.238 26.69 7.442 26.575 17.526z"/><path fill="#ef9b84" d="M588.065 290.832c-.115 9.995-12.464 17.896-27.57 17.66-15.106-.23-27.264-8.513-27.15-18.503.116-9.985 13.346-16.748 28.452-16.518 15.106.236 26.403 7.376 26.268 17.361z"/><path fill="#ef9983" d="M587.805 290.746c-.134 9.896-12.33 17.717-27.264 17.483-14.934-.225-26.939-8.422-26.824-18.313.115-9.888 13.173-16.59 28.107-16.362 14.934.231 26.096 7.31 25.981 17.192z"/><path fill="#ef9883" d="M587.545 290.659c-.115 9.795-12.177 17.54-26.939 17.31-14.743-.223-26.614-8.339-26.499-18.127.115-9.787 13.02-16.431 27.762-16.208 14.762.23 25.79 7.243 25.675 17.025z"/><path fill="#ee9783" d="M587.241 290.572c-.115 9.694-12.023 17.36-26.594 17.132-14.59-.22-26.307-8.25-26.211-17.938.134-9.686 12.866-16.27 27.455-16.052 14.57.226 25.484 7.174 25.35 16.858z"/><path fill="#ee9783" d="M587.024 290.485c-.115 9.591-11.89 17.177-26.287 16.954-14.398-.216-25.982-8.162-25.886-17.75.115-9.586 12.694-16.11 27.111-15.894 14.398.223 25.178 7.105 25.063 16.69z"/><path fill="#ee9682" d="M586.72 290.399c-.095 9.492-11.736 16.999-25.962 16.778-14.225-.212-25.656-8.075-25.56-17.563.115-9.484 12.54-15.95 26.766-15.736 14.226.219 24.871 7.039 24.756 16.52z"/><path fill="#ed9482" d="M586.504 290.312c-.115 9.394-11.603 16.82-25.637 16.602-14.053-.208-25.369-7.987-25.254-17.374.115-9.386 12.369-15.792 26.422-15.58 14.053.217 24.584 6.97 24.469 16.352z"/><path fill="#ed9482" d="M586.243 290.268c-.096 9.292-11.45 16.641-25.311 16.427-13.881-.208-25.044-7.903-24.929-17.188s12.216-15.63 26.078-15.425c13.88.215 24.277 6.904 24.162 16.186z"/><path fill="#ee9482" d="M585.983 290.182c-.115 9.19-11.296 16.46-25.005 16.25-13.69-.204-24.717-7.813-24.603-16.999.096-9.183 12.043-15.472 25.752-15.268 13.69.21 23.971 6.835 23.856 16.017z"/><path fill="#ee9282" d="M585.723 290.095c-.096 9.09-11.143 16.28-24.68 16.072-13.517-.2-24.392-7.725-24.297-16.812.115-9.08 11.91-15.31 25.427-15.11 13.517.207 23.664 6.77 23.55 15.85z"/><path fill="#ed9182" d="M585.462 290.008c-.115 8.99-11.009 16.103-24.354 15.897-13.345-.198-24.086-7.637-23.99-16.624.115-8.982 11.737-15.15 25.082-14.952 13.345.203 23.358 6.7 23.262 15.68z"/><path fill="#ed9181" d="M585.202 289.921c-.096 8.89-10.856 15.923-24.029 15.723-13.172-.195-23.76-7.553-23.664-16.437.096-8.88 11.564-14.991 24.736-14.796 13.173.2 23.072 6.63 22.957 15.51z"/><path fill="#ed9081" d="M584.942 289.835c-.115 8.789-10.722 15.742-23.723 15.544-12.981-.19-23.435-7.465-23.339-16.248.096-8.78 11.411-14.833 24.392-14.642 13 .198 22.765 6.567 22.67 15.346z"/><path fill="#ed8e81" d="M584.681 289.748c-.095 8.688-10.568 15.564-23.377 15.369-12.828-.189-23.129-7.378-23.033-16.06.096-8.681 11.239-14.674 24.067-14.485 12.809.195 22.44 6.499 22.343 15.176z"/><path fill="#ed8d80" d="M584.421 289.704c-.096 8.588-10.435 15.384-23.071 15.193-12.636-.186-22.803-7.291-22.727-15.875.115-8.58 11.105-14.513 23.742-14.328 12.636.193 22.152 6.434 22.056 15.01z"/><path fill="#ed8d80" d="M584.16 289.618c-.095 8.486-10.28 15.204-22.745 15.017-12.464-.182-22.497-7.204-22.4-15.686.095-8.48 10.932-14.353 23.396-14.173 12.464.19 21.846 6.364 21.75 14.842z"/><path fill="#ed8c7f" d="M583.9 289.53c-.095 8.389-10.128 15.026-22.42 14.842-12.292-.178-22.171-7.116-22.075-15.498.096-8.379 10.779-14.193 23.052-14.015 12.292.186 21.559 6.297 21.444 14.672z"/><path fill="#ed8a7f" d="M583.64 289.444c-.096 8.287-9.994 14.846-22.094 14.663-12.12-.173-21.865-7.028-21.77-15.308s10.607-14.036 22.708-13.86c12.12.183 21.252 6.229 21.157 14.505z"/><path fill="#ed8a7e" d="M583.38 289.357c-.077 8.187-9.841 14.668-21.77 14.49-11.927-.173-21.539-6.944-21.443-15.124.096-8.178 10.435-13.872 22.382-13.7 11.928.177 20.926 6.161 20.831 14.335z"/><path fill="#eb897d" d="M583.12 289.27c-.096 8.084-9.708 14.488-21.463 14.312-11.756-.17-21.214-6.855-21.119-14.936.077-8.077 10.282-13.713 22.038-13.546 11.755.178 20.64 6.096 20.544 14.17z"/><path fill="#eb877c" d="M582.86 289.184c-.077 7.982-9.555 14.305-21.138 14.133-11.584-.165-20.889-6.766-20.812-14.747.095-7.976 10.128-13.554 21.712-13.39 11.583.174 20.333 6.027 20.237 14.003z"/><path fill="#eb877c" d="M582.599 289.14c-.096 7.884-9.4 14.128-20.812 13.958-11.411-.16-20.582-6.678-20.506-14.558.096-7.878 9.975-13.396 21.367-13.235 11.411.171 20.027 5.962 19.95 13.835z"/><path fill="#eb867b" d="M582.339 289.054c-.077 7.783-9.248 13.949-20.487 13.784-11.239-.161-20.256-6.595-20.18-14.374.077-7.777 9.803-13.233 21.042-13.077 11.22.168 19.72 5.892 19.625 13.666z"/><path fill="#ea847b" d="M582.078 288.967c-.095 7.68-9.113 13.77-20.18 13.606-11.047-.157-19.95-6.507-19.854-14.185.076-7.674 9.63-13.074 20.697-12.92 11.047.163 19.414 5.825 19.337 13.499z"/><path fill="#ea837b" d="M581.818 288.88c-.077 7.581-8.96 13.591-19.835 13.43-10.895-.152-19.644-6.419-19.549-13.996.077-7.576 9.477-12.916 20.352-12.764 10.876.161 19.128 5.757 19.032 13.33z"/><path fill="#ea837b" d="M581.558 288.793c-.096 7.481-8.827 13.409-19.53 13.252-10.702-.15-19.318-6.33-19.242-13.81.096-7.474 9.325-12.754 20.027-12.604 10.703.157 18.821 5.69 18.744 13.162z"/><path fill="#ea8179" d="M581.298 288.707c-.077 7.38-8.674 13.23-19.204 13.078-10.53-.148-18.993-6.245-18.916-13.623.077-7.374 9.17-12.594 19.682-12.45 10.53.156 18.534 5.621 18.438 12.995z"/><path fill="#ea8078" d="M581.037 288.62c-.057 7.279-8.52 13.052-18.878 12.902-10.339-.143-18.668-6.157-18.59-13.434.076-7.273 8.998-12.435 19.356-12.293 10.34.152 18.209 5.555 18.113 12.825z"/><path fill="#ea8078" d="M580.777 288.576c-.077 7.179-8.386 12.873-18.553 12.725-10.186-.141-18.361-6.07-18.284-13.246.076-7.174 8.826-12.276 19.012-12.138 10.166.15 17.902 5.49 17.825 12.66z"/><path fill="#ea7e77" d="M580.517 288.49c-.058 7.08-8.233 12.692-18.228 12.548-9.994-.137-18.035-5.983-17.959-13.059.077-7.07 8.673-12.115 18.668-11.98 9.994.146 17.614 5.422 17.519 12.49z"/><path fill="#ea7d78" d="M580.256 288.403c-.076 6.976-8.099 12.512-17.92 12.373-9.823-.136-17.711-5.896-17.654-12.873.077-6.97 8.52-11.957 18.342-11.824 9.822.142 17.308 5.353 17.232 12.324z"/><path fill="#e97c77" d="M579.996 288.316c-.057 6.878-7.946 12.334-17.576 12.197-9.65-.13-17.404-5.808-17.347-12.684.077-6.871 8.367-11.797 17.998-11.667 9.65.137 17.001 5.285 16.925 12.154z"/><path fill="#e97c77" d="M579.736 288.23c-.077 6.779-7.812 12.153-17.27 12.02-9.477-.128-17.098-5.721-17.021-12.494.077-6.771 8.194-11.638 17.672-11.511 9.458.135 16.695 5.218 16.619 11.984z"/><path fill="#e97a76" d="M579.475 288.143c-.057 6.676-7.658 11.974-16.944 11.845-9.286-.127-16.772-5.637-16.696-12.31.058-6.669 8.023-11.477 17.328-11.355 9.286.135 16.39 5.15 16.312 11.82z"/><path fill="#e97a76" d="M579.215 288.056c-.077 6.576-7.524 11.796-16.638 11.67-9.114-.123-16.447-5.55-16.37-12.123.057-6.569 7.869-11.317 16.982-11.197 9.114.13 16.102 5.083 16.026 11.65z"/><path fill="#e87975" d="M578.955 288.012c-.057 6.475-7.372 11.616-16.294 11.492-8.941-.118-16.14-5.46-16.082-11.933.076-6.47 7.715-11.159 16.657-11.041 8.941.127 15.796 5.014 15.719 11.483z"/><path fill="#e87975" d="M578.738 287.926c-.076 6.376-7.218 11.437-15.987 11.315-8.769-.114-15.815-5.373-15.758-11.744.077-6.368 7.563-10.998 16.313-10.885 8.769.123 15.49 4.948 15.431 11.314z"/><path fill="#e87875" d="M578.434 287.839c-.057 6.273-7.065 11.255-15.661 11.137-8.578-.111-15.49-5.286-15.432-11.555.057-6.27 7.39-10.84 15.987-10.728 8.577.118 15.183 4.88 15.106 11.146z"/><path fill="#e87775" d="M578.217 287.752c-.077 6.173-6.93 11.078-15.336 10.964-8.424-.11-15.183-5.199-15.125-11.372.057-6.166 7.237-10.678 15.642-10.571 8.405.116 14.877 4.813 14.82 10.979z"/><path fill="#e87673" d="M577.914 287.665c-.058 6.072-6.778 10.898-15.011 10.786-8.233-.105-14.858-5.113-14.8-11.183.057-6.067 7.065-10.517 15.298-10.414 8.233.113 14.57 4.746 14.513 10.81z"/><path fill="#e87673" d="M577.653 287.579c-.039 5.973-6.624 10.719-14.685 10.61-8.06-.101-14.532-5.026-14.494-10.994.077-5.967 6.912-10.36 14.973-10.26 8.06.11 14.283 4.68 14.206 10.644z"/><path fill="#e87573" d="M577.436 287.492c-.057 5.87-6.49 10.537-14.378 10.432-7.87-.099-14.207-4.937-14.169-10.805.058-5.866 6.759-10.2 14.647-10.104 7.87.11 13.958 4.611 13.9 10.477z"/><path fill="#e87473" d="M577.133 287.448c-.04 5.77-6.338 10.36-14.035 10.259-7.715-.099-13.919-4.852-13.862-10.62.058-5.766 6.587-10.038 14.303-9.946 7.696.105 13.67 4.543 13.594 10.308z"/><path fill="#e87472" d="M576.916 287.362c-.058 5.67-6.204 10.18-13.728 10.082-7.525-.094-13.594-4.763-13.537-10.432.058-5.664 6.433-9.88 13.958-9.788 7.525.1 13.364 4.476 13.307 10.138z"/><path fill="#e87472" d="M576.612 287.275c-.039 5.57-6.05 10-13.402 9.904-7.352-.09-13.269-4.675-13.211-10.243.057-5.563 6.26-9.72 13.613-9.634 7.352.099 13.058 4.41 13 9.973z"/><path fill="#e87272" d="M576.395 287.188c-.057 5.47-5.916 9.821-13.096 9.729-7.16-.086-12.943-4.588-12.885-10.055.039-5.464 6.107-9.56 13.268-9.477 7.18.096 12.77 4.34 12.714 9.803z"/><path fill="#e87171" d="M576.135 287.101c-.04 5.367-5.763 9.64-12.752 9.553-7.007-.084-12.636-4.502-12.598-9.868.057-5.364 5.955-9.403 12.962-9.321 6.988.092 12.445 4.274 12.387 9.636z"/><path fill="#e86f70" d="M575.875 287.015c-.058 5.267-5.63 9.462-12.446 9.376-6.816-.081-12.31-4.416-12.273-9.681.058-5.263 5.783-9.24 12.618-9.162 6.816.088 12.158 4.206 12.1 9.467z"/><path fill="#e86f70" d="M575.614 286.928c-.039 5.169-5.457 9.282-12.12 9.2-6.643-.077-11.985-4.327-11.947-9.492.04-5.162 5.63-9.08 12.273-9.008 6.644.088 11.852 4.14 11.794 9.3z"/><path fill="#e86e70" d="M575.354 286.884c-.057 5.066-5.323 9.105-11.794 9.025-6.471-.075-11.679-4.24-11.64-9.308.038-5.06 5.456-8.92 11.927-8.849 6.472.084 11.546 4.07 11.507 9.132z"/><path fill="#e76d6f" d="M575.094 286.798c-.04 4.967-5.17 8.924-11.469 8.849-6.299-.073-11.373-4.155-11.315-9.12.039-4.96 5.303-8.76 11.583-8.694 6.3.081 11.258 4.006 11.2 8.965z"/><path fill="#e76c6f" d="M574.833 286.71c-.017 4.865-5.016 8.743-11.143 8.67-6.127-.069-11.047-4.066-11.009-8.93.057-4.86 5.15-8.603 11.277-8.539 6.108.08 10.933 3.938 10.875 8.8z"/><path fill="#e76c6f" d="M574.573 286.624c-.039 4.764-4.882 8.564-10.817 8.493-5.955-.064-10.741-3.978-10.703-8.742.039-4.76 4.978-8.442 10.932-8.381 5.935.075 10.626 3.869 10.588 8.63z"/><path fill="#e76a6f" d="M574.313 286.537c-.018 4.663-4.73 8.384-10.492 8.32-5.783-.065-10.416-3.893-10.378-8.558.04-4.656 4.825-8.28 10.588-8.223 5.763.071 10.339 3.8 10.282 8.46z"/><path fill="#e7696d" d="M574.052 286.45c-.039 4.562-4.595 8.204-10.185 8.142-5.591-.06-10.09-3.805-10.052-8.369.04-4.557 4.653-8.122 10.243-8.066 5.591.066 10.033 3.734 9.995 8.294z"/><path fill="#e6676d" d="M573.792 286.364c-.039 4.463-4.442 8.025-9.86 7.965-5.418-.056-9.765-3.717-9.726-8.18.039-4.459 4.499-7.96 9.917-7.91 5.4.065 9.707 3.668 9.67 8.124z"/><path fill="#e7666d" d="M573.532 286.32c-.04 4.36-4.308 7.846-9.535 7.788-5.246-.054-9.458-3.629-9.44-7.991.04-4.356 4.347-7.803 9.593-7.756 5.227.062 9.42 3.6 9.382 7.959z"/><path fill="#e7666d" d="M573.271 286.234c-.039 4.26-4.154 7.667-9.209 7.611-5.073-.049-9.132-3.543-9.113-7.802.039-4.257 4.193-7.644 9.247-7.599 5.055.058 9.114 3.532 9.075 7.79z"/><path fill="#e6656c" d="M573.011 286.147c-.039 4.16-4.02 7.49-8.903 7.438-4.882-.048-8.807-3.458-8.788-7.618.04-4.157 4.02-7.483 8.903-7.44 4.882.054 8.826 3.464 8.788 7.62z"/><path fill="#f4b891" d="M506.156 270.863s.69-33.987-16.676-7.25 7.39 10.31 16.676 7.25z"/><path fill="#f4b38b" d="M505.766 270.624s.67-32.546-15.968-6.94 7.065 9.872 15.968 6.94z"/><path fill="#f2af85" d="M505.376 270.386s.631-31.112-15.26-6.636 6.759 9.435 15.26 6.636z"/><path fill="#f2a97f" d="M504.985 270.147s.613-29.672-14.55-6.327 6.451 8.997 14.55 6.327z"/><path fill="#f2a579" d="M504.551 269.908s.575-28.233-13.843-6.022 6.127 8.564 13.843 6.022z"/><path fill="#f09e74" d="M504.204 269.67s.536-26.794-13.153-5.714 5.82 8.124 13.153 5.714z"/><path fill="#ef9a6e" d="M503.77 269.427s.498-25.353-12.445-5.407 5.495 7.69 12.445 5.407z"/><path fill="#ef9469" d="M503.38 269.188s.479-23.915-11.737-5.1 5.189 7.253 11.737 5.1z"/><path fill="#ee8f62" d="M502.99 268.954s.44-22.479-11.029-4.796 4.883 6.82 11.028 4.796z"/><path fill="#ec875a" d="M502.556 268.715s.42-21.04-10.32-4.489 4.576 6.383 10.32 4.49z"/><path fill="#26231f" d="M506.72 265.674c-1.608.116-2.106-6.059-4.958-9.312-3.408-2.95-6.127-.093-7.39.128-.441.253-1.437-2.346.765-4.55 1.857-2.26 6.548-3.108 9.899.113 5.667 7.285 2.489 13.99 1.684 13.62zM425.072 235.956c-.364.114 1.972 11.062 9.707 26.963 7.524 15.7 21.003 38.549 44.477 49.072 48.517 19.707 90.083-6.336 88.63-6.195.46-2.464-39.404 18.501-85.337-.417-45.566-21.86-55.545-72.196-57.475-69.423z"/><path fill="#26231f" d="M415.788 236.841c.804-1.34 3.063-1.779 6.758-3.557 3.657-1.65 6.625-3.041 7.659-1.981 1.072 1.036-1.245 5.193-5.763 7.224-4.538 2.451-9.611-.13-8.654-1.686zM565.81 300.333c1.512-.238 3.254 1.688 5.648 4.476 2.47 2.722 4.116 4.796 3.867 6.445-.191 1.572-4.461.982-7.467-2.488-3.063-3.45-3.427-8.278-2.049-8.433zM445.028 283.93c.23-.738 6.376 3.09 11.029 13.366 2.47 4.935 4.748 11.137 7.581 17.488 3.198 6.417 6.261 12.823 13.307 8.51 29.677-9.894 55.141-5.718 54.72-3.815-.096 1.183-24.621-.314-53.245 9.224-2.642 1.529-9.516 2.715-12.617-1.276-3.274-3.23-4.864-6.966-6.338-10.352-2.776-6.872-4.633-13.04-6.605-18.007-3.619-10.175-8.252-14.423-7.83-15.138z"/><path fill="#da013c" d="M498.955 318.034s-23.799-6.4-38.714-18.841c-3.312-2.769 5.667 30.32 14.092 23.896 9.515-7.238 16.12-4.69 24.622-5.055z"/><path fill="#9e2c14" d="M442.99 223.097c-.23 1.123.727 2.327 2.144 2.68 1.397.361 2.718-.26 2.948-1.39.23-1.129-.727-2.333-2.125-2.687-1.417-.36-2.738.268-2.968 1.397zM434.182 213.579c-.23 1.124.728 2.326 2.145 2.683 1.397.358 2.738-.269 2.967-1.393.21-1.13-.746-2.331-2.144-2.685-1.417-.36-2.738.266-2.968 1.395zM433.532 226.281c-.21 1.13.727 2.327 2.144 2.686 1.417.356 2.738-.267 2.968-1.395.23-1.13-.728-2.331-2.145-2.688-1.417-.354-2.738.268-2.967 1.397zM453.662 236.524c-.23 1.13.727 2.334 2.144 2.692 1.417.356 2.738-.272 2.968-1.394.21-1.13-.728-2.327-2.145-2.688-1.416-.36-2.737.268-2.967 1.39zM567.111 277.691c-.23 1.124.728 2.327 2.144 2.686 1.417.356 2.738-.266 2.968-1.397.21-1.128-.728-2.327-2.144-2.685-1.417-.358-2.738.268-2.968 1.396zM556.786 287.101c-.23 1.128.727 2.332 2.144 2.69 1.417.356 2.738-.27 2.968-1.396.23-1.129-.728-2.332-2.145-2.686-1.417-.356-2.738.266-2.967 1.392zM581.992 287.448c-.211 1.124.746 2.325 2.144 2.686 1.417.356 2.738-.269 2.968-1.397.23-1.123-.728-2.327-2.145-2.68-1.416-.36-2.738.261-2.967 1.391zM548.412 275.527c-.21 1.128.728 2.33 2.145 2.687 1.397.358 2.738-.268 2.967-1.392.23-1.13-.746-2.331-2.144-2.687-1.417-.354-2.738.268-2.968 1.392z"/><path fill="#252413" d="M447.11 592.004s43.671 52.078 38.044 66.282l-5.647 14.202s85.948 195.692 83.132 228.829-105.666-14.2-119.762 6.314c0 0-8.443-34.72-9.86-22.095 0 0-38.044-26.826-73.254-1.574 0 0 2.814-153.08-14.092-183.067-16.906-29.985-18.323-85.22-2.814-101.002 15.49-15.781 85.926-22.093 101.436-14.2l2.815 6.312z"/><path fill="#252413" d="M513.315 877.644s-9.86 127.831-25.35 146.768c-15.508 18.938-32.415-3.156-23.952-14.2 8.444-11.051 15.49-94.69 9.86-124.677-5.629-29.983 39.442-23.669 39.442-7.888zM400.603 853.957s2.815 88.377-1.417 96.273c-4.231 7.889-40.858 22.095-30.998 26.826 9.86 4.738 42.276 3.155 49.32-6.314 7.045-9.469 21.118-86.794 15.49-104.156-5.63-17.357-25.35-31.564-32.396-12.626z"/><path fill="#252413" d="M480.907 994.434s-128.204 1.577-129.618 18.938c-1.398 17.357 54.95 28.409 87.345 26.826 32.414-1.574 57.765-6.312 59.18-18.938 1.397-12.626 8.443-33.138-16.907-26.826z"/><path fill="#252413" d="M396.352 940.768c4.04-1.364 33.812-1.58 32.395 18.938-1.398 20.512-118.343 64.703-131.02 52.074-12.675-12.626 42.256-52.074 98.62-71.015zM600.43 215.921c-5.227 5.107 27.628 47.649 5.878 50.235-6.204.738-16.428-25.485-22.708-26.593-6.26-1.108-12.847 33.98-15.336 21.86-5.055-24.609-11.353-40.931-11.353-31.462 0 9.47-25.273 20.414-21.042 4.633 4.212-15.782 1.014-20.081-.402-15.344-1.398 4.731-7.907 27.267-21.75 20.313-9.573-4.802 2.297-25.855 2.297-25.855s-40.666 28.66-32.95 11.359c7.716-17.303 26.69-26.133 22.726-26.87-9.822-1.835-60.1 11.147-51.635 3.255 8.443-7.89 18.514-4.948 23.607-12.49 7.257-10.713-12.215-1.445-22.075-7.758-9.88-6.312.44-19.81 24.392-10.341 23.952 9.468-11.833-51.476 2.24-37.271 14.092 14.202 14.781 10.275 21.827 16.588 7.046 6.312 2.125-33.95 11.985-16.588 9.88 17.359 7.142 30.388 9.956 36.7 2.834 6.313 1.245-37.95 15.413-33.544-4.538 27.243 1.417 29.984 1.417 37.876 0 7.89 8.443-26.83 26.766-26.83 18.304 0-11.277 20.518-8.462 29.987 2.814 9.469 15.489-20.517 33.812-14.204 18.323 6.312-36.626 29.986-16.906 28.406 19.72-1.577 50.316 7.754 48.017 15.447-1.972 6.648-20.505 3.391-25.713 8.493z"/><path fill="#39372c" d="M538.087 205.578c.747 1.261 4.882 16.383 3.37 21.425-1.493 5.041 7.141-.002 10.512-9.662 3.37-9.66 20.62.84 18.743 17.645 0 0 4.136-7.14 6.012-10.082 1.877-2.943 12.37 4.203 14.628 12.183 2.24 7.98 0-19.325 0-19.325-10.128-2.101 2.24-10.92 11.24-11.342 8.998-.42-10.493-15.963-28.49-8.402-18.017 7.56-6.012-10.923 2.24-16.804 8.252-5.884-16.504 1.258-22.497 10.922-6.013 9.662 0-23.106 0-23.106 7.505-10.922-13.288 12.9-13.498 15.545-1.13 13.442-5.63-15.124-3.006-23.106 2.623-7.984-12.751 7.98-10.128 16.383 2.623 8.403-11.24-12.602-11.622-22.685-.383-10.08-13.135 4.62-6.759 16.804 6.376 12.181-1.857 6.72-5.993 1.682-4.116-5.042.384 8.819.384 8.819 7.868 3.362-19.893 10.083-23.627 12.602-3.753 2.522 41.24-7.98 43.117-4.199 1.877 3.78-19.127 18.065-19.874 23.106-.746 5.042 27.743-17.224 27.743-17.224 4.136.42-12.732 22.266-10.492 27.307 2.26 5.039 13.498-20.585 18.38-20.165 4.864.42-1.129.42-.382 1.68z"/><path fill="#26231f" d="M317.653 41.77s-100.27 17.379-103.848 30.75c-3.58 13.37-14.322 57.492 13.134 54.815 27.456-2.672 81.163-10.694 81.163-10.694l193.375 37.436s-7.18-50.807 19.089-61.5-177.849-61.502-202.912-50.808zM289.8 148.26s-79.974-13.371-89.527 4.01c-9.535 17.384-41.758 73.536-22.669 76.209 19.09 2.674 97.874 1.336 97.874 1.336l122.938 21.395s-9.554-73.536 15.508-84.23l-124.126-18.72zM154.139 265.05s17.92 33.423 3.58 41.446 84.76 4.01 91.922-17.381c7.16-21.392 7.16-42.785 0-41.449-7.16 1.338-83.553 9.36-95.501 17.383z"/><path fill="#26231f" d="M249.627 318.511s-66.838-20.055-77.58-10.693c-10.76 9.358-32.644 49.814-29.063 75.22 3.58 25.403 37.412 13.026 66.056 11.69 28.643-1.338 139.653 21.39 139.653 21.39s-2.393-65.515 19.09-73.537c21.5-8.023-118.153-24.067-118.153-24.067zM199.084 550.486s-60.347-5.339-63.527 10.676c-3.178 16.015-9.535 39.145 6.357 44.482 15.872 5.34 58.76 8.898 58.76 8.898s132.051 10.059 136.971-.794c4.94-10.852-6.376-14.875-6.452-80.52-20.659 0-106.682 10.142-132.109 17.258zM143.51 429.488s15.872 69.392 0 96.082 57.171 17.793 73.063-1.782c15.872-19.569 28.584-74.73 9.534-87.18-19.07-12.455-69.905-10.677-82.599-7.119z"/><path fill="#252413" d="M135.527 546.928c4.001-2.897 68.295-10.674 69.883 3.56 1.589 14.237-4.768 16.015-9.535 14.237-4.767-1.778-50.815-12.454-50.815-1.778 0 10.672-7.946 35.585 3.159 37.363 11.123 1.78 57.189-5.338 57.189 7.116 0 12.456-3.179 21.353-3.179 21.353s-63.527-3.559-69.883-14.235c-6.356-10.676-23.836-48.04 3.179-67.614z"/><path fill="#26231f" d="M138.737 436.603c6.204 1.544 60.347-12.455 69.883 5.336 9.535 17.794 6.357 85.41-12.713 83.627-19.05-1.782-61.939-12.452-63.527 1.78-1.589 14.234 3.179 19.569 3.179 19.569s57.171 7.12 69.882 3.56c12.714-3.56 119.376-3.807 124.144-10.925 4.748-7.117 5.801-104.781 1.34-117.185-4.442-12.4-58.76-12.454-100.056-12.454-41.318 0-93.723-3.56-98.49 3.56-4.768 7.116-7.947 19.568 6.356 23.13z"/><path fill="#26231f" d="M200.3 563.718s122.993.813 128.069-7.294c5.054-8.105 2.163-13.78-2.891-17.02-10.148-6.484-118.669 4.863-123.723 9.723-5.074 4.867-4.346 11.35-1.455 14.59zM201.037 604.238s130.959-9.728 134.577-4.051c3.619 5.673 4.346 13.777 0 16.212-4.346 2.43-127.094 15.038-133.371 12.381-6.28-2.657-5.552-25.353-1.206-24.542zM157.696 306.494c-3.657 2.514-27.436 50.807-22.669 80.221 4.768 29.413 3.906 24.38 3.906 24.38s77.254 13.054 80.837 1.024c3.58-12.035-5.973-24.067-5.973-24.067s-59.68 10.695-59.68 0 1.207-57.493 9.555-65.515c8.367-8.023 75.206 10.696 77.58 0 2.392-10.697 1.205-21.391 1.205-21.391s-63.258-9.362-84.759 5.347z"/><path fill="#26231f" d="M237.696 301.158c4.92 0 151.601 22.727 148.018 33.423-3.6 10.697-1.207 12.034-13.135 12.034-11.947 0-136.074-13.37-138.464-21.392-2.374-8.023-3.58-24.066 3.58-24.066zM213.792 388.056c-6.28-1.519-1.187 18.717 5.973 24.068 7.161 5.347 125.332 24.066 131.306 13.368 5.955-10.696 7.161-21.391 3.58-21.391-3.58 0-79.227-1.146-140.859-16.045z"/><path fill="#26231f" d="M152.924 250.346s97.874-24.066 103.848-8.02c5.955 16.042 7.161 56.155-9.553 58.828-16.715 2.672-99.866 21.166-103.45 13.143-3.58-8.022 5.572-13.143 16.313-17.156 10.74-4.01 77.58-4.01 81.163-14.706 3.58-10.698 2.392-26.742-7.161-26.742-9.554 0-79.974 18.72-84.742 13.372-4.768-5.349-8.348-18.719 3.58-18.719z"/><path fill="#26231f" d="M256.785 242.325s131.285 6.685 134.868 33.425c3.58 26.74 2.393 57.492-10.741 56.156-13.134-1.338-134.868-25.402-143.232-30.75-8.348-5.352 10.74-10.698 10.74-22.732 0-12.032 2.394-42.785 8.368-36.098z"/><path fill="#26231f" d="M273.488 139.375s-73.367-6.299-87.692 5.736c-14.322 12.033-31.4 94.17-24.24 99.519 7.162 5.346 107.164 7.05 111.932-2.308 4.786-9.359 4.786-20.056-4.768-18.719-9.554 1.338-84.742 14.706-84.742 1.338 0-13.37 10.741-58.828 19.09-64.178 8.366-5.347 76.394 5.347 79.973-1.338 3.58-6.683 5.974-18.716 5.974-18.716s-4.787-1.336-15.527-1.336z"/><path fill="#26231f" d="M289.02 140.71s140.841 4.012 143.232 18.717l2.374 14.707-8.348 2.674s-137.258-14.707-143.232-17.381c-5.974-2.673 0-20.052 5.973-18.716zM273.488 224.945s132.972 13.302 131.553 25.368c-1.436 12.068-6.222 18.753-14.57 18.753-8.367 0-122.937-20.055-122.937-20.055s-1.207-26.74 5.954-24.066z"/><path fill="#26231f" d="M320.04 33.747s11.927 21.391 0 22.727c-11.948 1.339-88.322 8.024-96.69 17.384-8.349 9.36-11.929 44.122 2.392 45.458 14.322 1.336 88.322-22.729 88.322-12.03 0 10.694-9.554 36.015-9.554 36.015s-100.252 5.431-103.83-3.927c-3.581-9.362-8.368-61.505-3.581-74.876 4.767-13.369 100.251-36.098 122.937-30.75z"/><path fill="#26231f" d="M320.04 33.747s225.579 28.079 224.394 46.794c-1.187 18.723-9.553 14.708-9.553 14.708s-210.074-30.75-214.842-38.775c-4.787-8.022 0-22.727 0-22.727zM314.095 107.283s196.938 32.09 195.753 44.122l-1.186 12.035s-5.974 6.685-15.528 5.347c-9.554-1.339-187.384-25.402-194.547-28.076-7.16-2.677 3.58-36.1 15.509-33.425z"/><path fill="#fefbde" d="M319.866 61.873s-16.14 23.525-4.844 42.522-95.31 20.808-98.525 12.665c-3.236-8.141.842-40.27 6.873-43.204 6.05-2.937 96.499-11.983 96.499-11.983z"/><path fill="#ab0a15" d="M223.553 430.269s18.782 83.982-13.536 111.128 107.427-7.239 112.273-12.67c4.844-5.425 10.55-84.598 5.706-87.318-4.844-2.715-102.013-16.568-104.443-11.14z"/><path fill="#e20415" d="M134.095 418.338s-4.04 13.57 3.236 13.57c7.256 0 59.757-11.76 69.462 1.81l.804-9.952s-59.774-13.57-73.501-5.428zM138.13 526.017l.804 6.333s58.148 11.762 60.577 9.049c2.412-2.715 4.04-8.144 1.608-8.144-2.412 0-59.757-15.38-62.989-7.238z"/><path fill="#d2650c" d="M205.419 550.486s-3.485 8.98 1.378 8.98c4.844 0 115.488-3.621 115.488-6.336 0-2.713-4.04-8.142-4.04-8.142s-110.147 1.948-112.828 5.497zM209.236 613.783s-3.235 9.953 4.04 9.048c7.276-.905 118.725-5.43 119.532-10.858.804-5.428-3.217-7.237-3.217-7.237s-115.51 1.81-120.351 9.047zM199.084 550.486s.46 8.978-1.972 8.073c-2.412-.903-52.499-3.619-55.714 0-3.235 3.62-6.471 29.856 0 41.617l60.56 9.954-.804 12.667s-58.147-8.144-62.186-10.86c-4.04-2.714-15.337-13.569-12.12-41.617 1.512-13.063 14.55-21.711 14.55-21.711l57.689 1.876z"/><path fill="#fefbde" d="M151.883 438.251s17.767 57.905 2.412 78.712 50.89 19 55.736 11.762c4.843-7.237 12.923-78.712 1.627-86.85-11.316-8.144-59.775-3.621-59.775-3.621zM202.772 570.312s-3.236 21.715 4.04 33.477-59.774-4.525-61.401-9.954c-1.608-5.428-3.217-25.33 1.627-28.044 4.845-2.715 55.736 4.521 55.736 4.521z"/><path fill="#d9b68b" d="M210.842 570.312s-5.649 25.333 2.431 31.667 116.313-4.526 116.313-4.526-7.276-29.854-1.628-36.187-112.256 3.618-117.12 9.046zM236.655 339.64s-13.728 45.236-7.256 48.854l115.488 9.954s-10.492-40.714 7.275-47.046-112.273-17.188-115.51-11.761zM288.369 166.824s-12.924 36.19-8.08 57.904l109.84 15.379s-8.884-54.282 7.275-64.234-104.195-14.477-109.037-9.048zM327.154 65.496s-10.492 21.713-6.452 36.19l172.833 36.187s-2.432-34.38 15.336-43.427-180.109-33.471-181.718-28.95z"/><path fill="#009935" d="M235.05 309.791s1.608 13.572-2.432 11.762c-4.04-1.808-67.033-9.045-72.681 1.812-5.667 10.854-21.004 64.234-4.844 73.28 16.14 9.049 58.95-.903 58.95-.903s2.432 14.476-1.608 14.476-65.423 0-68.66-2.714c-3.235-2.714-14.531-49.762 10.493-86.855 14.168-20.98 80.777-10.859 80.777-10.859zM243.944 312.481s-9.382 6.546-2.68 10.059c6.72 3.513 133.526 24.32 135.939 21.607 2.43-2.713 1.627-8.145 1.627-8.145s-134.083-25.334-134.885-23.521zM221.34 399.336s-3.235 13.572 0 13.572c3.217 0 120.873 13.486 122.764 9.949 1.896-3.537 6.453-9.95 6.453-9.95s-125.18-17.192-129.22-13.571z"/><path fill="#fefbde" d="M229.41 332.394s-10.512 31.665-6.471 53.376-68.963 13.627-68.812 2.29c.154-11.337 1.78-54.763 12.273-58.381 10.511-3.62 60.577-.905 63.01 2.713z"/><path fill="#21276e" d="M249.627 247.665s16.695 32.65-.517 51.597a26.111 26.111 0 0 1-1.876 1.887c58.09 13.143 131.592 23.096 134.004 22.192 2.432-.908 6.472-44.33 2.432-48.855-4.04-4.525-130.79-31.02-134.044-26.817zM148.629 256.39s-.804 7.236 2.431 8.141c3.217.905 85.601-9.949 86.408-12.664.824-2.716 4.864-9.954-3.216-7.239-8.08 2.713-83.996 7.239-85.622 11.761zM149.453 304.325s-1.608 6.33 2.432 6.33 81.18-3.667 85.813-9.522c4.653-5.857.613-8.57.613-8.57s-79.957 9.047-86.425 11.762c-6.472 2.713-2.432 0-2.432 0z"/><path fill="#fefbde" d="M163.987 272.676s10.492 15.38 4.844 22.618 69.462-2.717 74.308-9.953c4.844-7.236 6.452-25.331 0-25.331-6.471 0-74.308 9.953-79.15 12.667z"/><path fill="#e20415" d="M281.124 146.919s0 9.046-4.06 9.046c-4.02 0-71.127-11.013-77.561-1.887-6.433 9.125-24.201 71.553-18.534 77.883 5.648 6.334 90.447-3.622 90.447-.905 0 2.716-6.453 8.144-6.453 8.144s-90.464 4.521-93.7-.905c-3.217-5.428 11.315-82.33 21.003-89.566s79.957-5.427 88.86-1.81zM277.87 231.054s-11.162 10.763-4.385 11.265c6.797.5 115.029 23.117 119.072 21.307 4.04-1.81 5.074-10.612 5.074-10.612s-116.525-27.391-119.762-21.96zM289.02 150.069s-3.064 5.898 3.388 6.802c6.472.905 134.886 17.19 136.495 14.475 1.627-2.712-2.412-8.141-2.412-8.141S294.517 144.17 289.02 150.069z"/><path fill="#fefbde" d="M281.124 166.82s-18.438 41.143-7.62 58.116-85.276 7.025-85.276-.215c0-7.238 1.455-59.163 14.857-63.961 13.422-4.799 78.04 6.06 78.04 6.06z"/><path fill="#fec611" d="M316.655 37.444s5.648 15.381-2.432 15.381-94.507 9.048-100.959 18.094c-6.452 9.048-14.531 51.57 3.236 56.998 17.768 5.431 91.614-11.276 91.614-11.276l-4.384 13.991s-90.465 8.143-95.31 5.429c-4.845-2.715-8.08-60.616-4.04-67.853 4.04-7.236 105.8-33.475 112.273-30.763zM326.33 39.253s-4.04 10.855.804 12.667c4.844 1.81 207.566 39.81 208.386 36.19.804-3.621-.823-9.048-.823-9.048s-208.37-41.62-208.37-39.81zM317.436 117.965s-9.688 13.573-4.04 15.381c5.648 1.81 184.148 31.664 187.384 29.857 3.217-1.81 2.413-6.334 2.413-6.334s-180.912-41.616-185.758-38.904z"/><path fill="#26231f" d="M226.98 343.24c-.172.599-2.106.43-5.13.2-3.026-.243-7.161-.472-11.775-.375-9.21.17-16.754 1.398-17.021.175-.288-1.12 7.18-4.377 16.963-4.572 4.864-.105 9.286.652 12.35 1.715 3.082 1.053 4.786 2.302 4.614 2.857zM224.55 350.485c.018 1.234-5.781 2.154-12.885 2.315-7.065.17-12.827-.191-12.942-1.412-.115-1.192 5.648-2.814 12.866-2.985 7.2-.163 12.962.888 12.962 2.082zM197.913 463.587c-.096.616-2.47.637-6.222.674l-14.762.171c-5.82.022-11.182-.328-15.011-1.13-3.83-.77-6.089-1.849-5.993-2.428.096-.611 2.47-.632 6.242-.669l14.762-.171c5.801-.022 11.162.328 14.991 1.128 3.848.772 6.108 1.849 5.993 2.425zM194.703 480.768c-.23 1.256-7.907.145-17.117-1.42-9.19-1.62-16.676-1.892-16.81-3.102-.04-.583 1.857-1.34 5.035-1.722 3.16-.392 7.582-.304 12.33.472 9.516 1.622 16.773 4.656 16.562 5.772zM201.948 457.253c.017.59-2.662 1.21-7.008 1.24-4.346.062-10.32-.611-16.772-1.849-6.452-1.237-12.177-2.573-16.332-3.502-4.154-.954-6.759-1.602-6.72-2.222.017-.592 2.719-1.04 7.046-.866 4.327.15 10.263 1.025 16.657 2.254 6.414 1.23 12.158 2.359 16.332 3.086 4.174.755 6.797 1.235 6.797 1.86zM247.197 584.802c-.039 1.216-8.635 2.145-19.26 3.327-10.627 1.16-19.377 1.535-19.51.294-.135-1.167 8.385-3.496 19.146-4.674 10.798-1.2 19.643-.16 19.624 1.053zM262.512 381.245c-.23 1.29-8.252-.069-17.883-1.081-4.805-.472-9.151-.526-12.31-.399-3.16.105-5.19.279-5.343-.328-.153-.553 1.666-1.817 4.96-2.752 3.254-.952 7.964-1.402 13.038-.903a55.677 55.677 0 0 1 12.655 2.748c3.14 1.1 4.997 2.127 4.883 2.715zM432.924 116.155c-.133.597-6.529-.695-16.772-3.127-10.224-2.415-24.315-5.975-39.958-9.192-15.643-3.228-29.926-5.264-40.303-6.336-10.377-1.106-16.848-1.506-16.848-2.153 0-.566 6.49-1.27 17.02-.95 10.531.282 25.044 1.855 40.839 5.112 15.777 3.248 29.83 7.31 39.92 10.501 10.09 3.21 16.236 5.567 16.102 6.145zM365.896 91.73c-.268 1.203-9.841-.438-21.578-2.438-11.718-2.06-21.272-3.573-21.233-4.8.04-1.2 9.899-1.64 21.827.452 11.947 2.036 21.233 5.634 20.984 6.786zM204.377 185.826c-.076-.6 3.791-1.829 10.148-3.418 6.356-1.557 15.183-3.505 25.139-4.613 9.956-1.139 19.146-.881 25.694.446 6.548 1.278 10.262 3.46 10.09 3.965-.192.637-4.06-.433-10.435-.88-6.357-.496-15.183-.267-24.967.847-9.764 1.085-18.61 2.532-25.081 3.303-6.452.802-10.511.95-10.588.35zM243.944 200.303c0-1.217 2.89-2.201 6.452-2.201 3.58 0 6.471.984 6.471 2.201 0 1.21-2.89 2.197-6.471 2.197-3.562 0-6.452-.987-6.452-2.197z"/><path fill="#26231f" d="M273.01 209.344c-.286.536-3.637-1.108-9.439-2.197-5.762-1.141-13.919-1.826-22.917-1.479-9.018.327-17.117 1.594-22.861 3.014-5.763 1.38-9.133 3.006-9.4 2.472-.288-.499 2.794-3.228 8.634-5.463 5.82-2.268 14.188-4.082 23.493-4.419 9.305-.36 17.787.85 23.703 2.85 5.954 1.953 9.075 4.732 8.788 5.222zM199.518 275.388c-.23 1.29-8.04-.045-17.231 1.602-9.19 1.589-16.083 5.835-16.696 4.73-.268-.492 1.13-2.208 3.944-4.162 2.796-1.952 7.104-4.02 12.14-4.914 5.035-.903 9.687-.47 12.885.324 3.216.794 5.054 1.847 4.958 2.42zM201.124 279.913c0 1.284-7.563 1.936-16.562 3.76-9.018 1.758-16.045 4.602-16.542 3.478-.23-.528 1.283-1.98 4.116-3.582 2.815-1.602 6.97-3.253 11.718-4.22 9.535-1.922 17.308-.57 17.27.564zM309.367 201.205c0 1.27-7.659 2.04-16.926 2.54-9.267.47-16.733 1.362-17.002.177-.287-1.17 7.219-4.08 16.792-4.568 9.516-.511 17.136.695 17.136 1.852zM283.51 196.676c-.345 1.225-11.488-2.128-25.407-3.925-6.97-.911-13.288-1.154-17.883-1.11-4.595.03-7.486.232-7.6-.392-.096-.56 2.66-1.866 7.37-2.706 4.71-.856 11.354-1.105 18.554-.163 14.474 1.88 25.33 7.232 24.966 8.296z"/><path fill="#e20415" d="M233.531 447.882s86.196 0 87.02 7.428c.842 7.427-3.313 7.427-3.313 7.427s-81.219 6.5-83.705 2.786c-2.489-3.712-6.643-16.711 0-17.64z"/><path fill="#26231f" d="M503.293 413.262s-172.62 116.113-227.57 206.07l15.489 3.157S417.806 505.89 515.03 474.329s24.91-75.272-11.737-61.068z"/><path fill="#252413" d="M573.879 337.904s18.323-11.047 32.414 0 16.926 47.15 16.926 47.15-79.306 100.182-107.276 101.314c-7.582.305-16.734-88.49-26.594-88.49s71.857-58.39 84.53-59.97z"/><path fill="#26231f" d="M278.477 609.878s-42.887-19.66-40.399-6.666c1.494 7.724 11.488 13.27 11.91 20.272.23 4.165-10.57 2.104-18.84 4.165-6.319 1.574-.881 7.269 6.432 10.273 6.912 2.836 14.111 3.7 13.384 6.943-.709 3.243 4.384 13.79 10.166 10.552 5.801-3.245 4.978-3.88 7.87-1.45 2.89 2.434-1.954 8.045 6.011 5.615 7.965-2.43 7.907-5.615 10.09-5.615 2.164 0 1.915 8.542 9.152 4.491 2.757-1.546 18.093-17.507 9.478-35.151-3.485-7.11-2.47-3.436-6.817-9.92-4.327-6.485-4.69-8.373-18.438-3.508z"/><path fill="#bd0179" d="M527.805 467.188s90.755-83.588 89.74-93.752c-1.015-10.166-14.111-35.015-22.19-33.887-8.061 1.128-96.803 55.345-96.803 55.345s29.255 51.961 22.19 74.551l7.065-2.26z"/><path fill="#532d84" d="M368.456 602.72c2.91-.929 55.679-16.86 68.772-6.692 13.115 10.166 38.752 52.295 34.712 59.076-4.04 6.778-6.95 15.548-6.95 15.548s86.577 195.254 88.608 213.323l-105.84 5.154-21.826-65.016 3.025 42.924-62.512 2.258s-4.04-133.288-7.066-153.618c-3.025-20.331-14.11-36.145-17.135-51.961-3.025-15.813 0-50.829 4.04-53.089 4.02-2.256 15.106-5.65 22.17-7.908z"/><path fill="#f4b891" d="M500.56 424.238s17.136 27.11 8.06 33.887c-9.075 6.777-161.21 74.902-217.674 160.746l-9.21-1.482s27.226-35.018 34.29-41.794c7.046-6.775 136.131-128.768 184.53-151.358z"/><path fill="#f4b891" d="M283.293 616.386s-35.363-17.816-37.278-14.13c-1.934 3.687 12.062 12.9 10.416 18.43-1.647 5.529-26.058 6.45-22.21 9.214 3.83 2.765 22.21 3.685 21.923 8.6-.269 4.914-.824 10.135 2.757 8.907 3.56-1.229 12.062-3.684 12.885 1.536.823 5.22.268 4.913 5.208 2.151 4.94-2.765 10.416-3.076 10.684-1.538.287 1.538 3.848.614 6.03-1.844 2.202-2.456 6.07-8.352 2.872-18.985-1.608-5.366-3.446-7.99-3.503-9.831-.058-1.84-5.667-5.274-9.784-2.51zM505.289 899.423s-14.954 87.618-14.954 97.93c0 10.31-3.446 15.465-3.446 15.465s-80.508 11.594-71.32 1.288c9.21-10.31 59.814-9.02 59.814-9.02s3.447-100.504 9.21-103.085c5.743-2.578 21.846-9.021 20.697-2.578zM430.495 881.375l-13.805 61.849s-54.047 33.502-59.813 28.346c-5.744-5.151 52.92-32.211 52.92-32.211s-5.763-56.695 0-60.56c5.743-3.867 20.697 2.576 20.697 2.576z"/><path fill="#252413" d="M370.929 666.885c-1.551-2.767 20.333 16.56 26.785 16.56 6.472 0 29.562 130.385 29.562 130.385l-32.319-119.002s-12.943-8.28-24.028-27.94z"/><path fill="#7d5399" d="M365.419 712.395c0 9.312 6.452 149.01 6.452 149.01s14.8-7.242 38.81-1.033-22.172-13.454-29.562-11.384c-7.39 2.07-15.7-136.594-15.7-136.594zM412.49 699.987l40.648 173.848s29.561-17.588 48.039-19.66-24.01-5.176-35.095 1.033c-11.086 6.209-53.592-155.22-53.592-155.22z"/><path fill="#d60078" d="M597.263 348.013s-77.601 35.181-82.213 45.531 18.476 31.047 16.62 48.638c0 0 14.78-34.15 8.328-44.495 8.309-10.348 69.27-51.74 57.267-49.67z"/><path fill="#7d5399" d="M427.718 602.113c-2.776 0-72.985 8.28-79.436 20.698-6.07 11.652-7.256 37.886-2.795 50.482.287.826.593 1.591.938 2.292 5.552 11.382-4.614-43.462 14.78-50.707 19.396-7.243 66.517-22.766 66.517-22.766z"/><path fill="#dbd800" d="M403.987 361.462c3.81 0 73.198 34.289 58.417 43.605-14.781 9.314-72.065-20.699-69.289-12.418 2.776 8.279 57.84 36.22 49.896 36.22-12.024 0-46.2-16.555-46.2-13.454 0 3.104 26.116 27.94 22.171 31.045-3.943 3.107-23.09-20.695-56.347-26.906-11.085-2.067 29.562 4.14 25.867 2.07-3.696-2.07-17.557-16.557-17.557-16.557s21.252-2.07 28.643 4.139-22.172-25.87-22.172-25.87 58.894 16.853 72.048 14.488c5.571-1.001-53.783-36.361-45.47-36.361z"/><path fill="#6fb419" d="M397.436 368.967s0 13.038 8.463 9.482c8.462-3.554-8.463-9.482-8.463-9.482zM427.067 409.227c12.177-5.848 7.41-18.965-2.125-16.595-9.516 2.372-5.284 20.15 2.125 16.595zM394.27 427.015s-20.105 4.74-8.463 8.296c11.64 3.558 8.462-8.296 8.462-8.296zM498.52 394.867l11.259-4.774s25.713 53.167 22.4 75.32l-11.468 4.008s-11.028-60.92-22.19-74.551z"/><path fill="#930c7a" d="M608.673 366.494s1.321 11.076-1.321 14.029c-2.623 2.953-69.866 69.41-69.866 69.41s37.565-46.52 44.82-56.117c7.257-9.598 15.164-31.75 15.164-31.75s9.228-2.954 11.2 4.43z"/><path fill="#6fb419" d="m341.688 591.83 1.57 4.13s71.7-20.479 100.937-13.907l-.115-7.067s-54.434-1.604-102.395 16.845z"/><path fill="#d6daed" d="M447.762 889.141s78.65-11.77 106.568-.542l-.709-11.228s-94.984-.524-105.86 11.77zM366.46 869.271s50.412-6.372 64.733.044c14.321 6.417 1.82-2.741 1.82-2.741l-3.256-3.674s-51.406-.89-63.297 6.372zM346.286 610.616s63.376-20.812 90.946-14.6l5.4 6.214s-65.155-6.415-99.523 18.448l3.178-10.063z"/><path fill="#7d5399" d="M411.58 622.85s-14.992 6.462-30.003 18.102c-15.01 11.639-26.556 37.5-26.556 37.5s-15.01-51.722 56.56-55.601z"/><path fill="#372569" d="M432.143 608.967s37.47 32.784 33.947 43.276c-3.504 10.492-8.195 18.36-8.195 18.36s81.948 183.593 86.638 205.888-67.892-7.866-90.14 3.936c0 0 42.142-22.292 63.22-20.982 21.06 1.31-67.913-177.037-73.753-183.597-5.859-6.556 4.672-17.048 5.84-23.604 1.167-6.557-17.558-43.276-17.558-43.276zM491.796 1026.191s-103.466 12.534-128.642-8.351 26.096-17.754 71.779-15.665c0 0-53.132 10.444-41.95 15.665 11.182 5.22 84.838 9.394 98.816 8.351zM421.861 960.378s-111.852 57.427-118.382 44.898 31.707-37.59 51.276-42.81c0 0-35.42 29.236-24.24 29.236s91.346-31.323 91.346-31.323z"/><path fill="#777457" d="M557.957 196.338s10.511-23.104 31.878-27.305-26.249 16.385-25.12 25.625c1.13 9.24-4.882 4.62-6.758 1.68zM560.213 205.162s29.255-13.44 56.252-.838-35.995-5.462-54.374 4.2c0 0-6.375-1.261-1.876-3.362zM538.478 142.142c.804-1.42-14.245 10.502-6.376 46.209l3.37 1.682s-9.382-26.047 3.005-47.892zM570.321 151.388c1.494-1.335-21.75 12.185-25.886 34.87l3.753 6.719s1.876-23.527 22.133-41.59zM529.063 200.537s-15.374 11.344-14.628 34.029 7.888-28.569 15.758-31.507l-1.13-2.522zM517.827 195.921s-35.746 26.849-26.633 24.367c19.874-19.749 27.743-18.067 27.743-18.067 6.012-1.681 5.246-5.879-1.11-6.3zM583.814 217.76s19.127 9.662 23.243 37.39l-15.374-26.886c-8.252-7.561-7.87-10.503-7.87-10.503zM495.31 178.698s-19.127-8.822-32.242-4.62 27.38 1.681 32.242 8.4v-3.78zM513.315 147.604s-1.877 28.569 10.492 39.91h3.752s-10.128-10.923-14.244-39.91zM544.812 210.624s1.13 15.12-2.623 23.104 7.122-13.02 4.116-23.104c-3.006-10.085-1.493 0-1.493 0z"/></svg>